<?xml version="1.0" encoding="UTF-8" ?>
<!DOCTYPE svg PUBLIC "-//W3C//DTD SVG 1.1//EN" "http://www.w3.org/Graphics/SVG/1.1/DTD/svg11.dtd">
<svg width="1024pt" height="1024pt" viewBox="0 0 1024 1024" version="1.1" xmlns="http://www.w3.org/2000/svg">
<g id="#ffffffff">
<path fill="#ffffff" opacity="1.00" d=" M 0.00 0.00 L 1024.00 0.00 L 1024.00 1024.00 L 716.04 1024.00 C 730.69 1013.33 739.13 996.95 749.71 982.71 C 760.75 966.77 773.80 952.12 789.01 940.05 C 794.87 935.19 801.14 930.86 807.14 926.16 C 821.57 914.34 835.28 901.42 846.35 886.33 C 858.75 870.18 868.23 851.91 874.74 832.65 C 878.94 819.82 882.56 806.52 882.44 792.92 C 879.14 800.88 876.77 809.22 873.14 817.07 C 864.83 836.36 854.24 854.71 841.27 871.25 C 830.62 884.18 819.04 896.42 806.01 906.98 C 798.36 913.46 790.01 919.03 781.82 924.80 C 768.65 933.95 758.81 947.00 750.54 960.56 C 739.67 978.11 732.17 997.54 720.82 1014.81 C 718.82 1017.87 716.95 1021.02 714.83 1024.00 L 616.83 1024.00 C 612.13 999.31 607.61 974.59 603.00 949.88 C 600.90 939.77 599.85 929.38 596.15 919.67 C 586.65 892.27 567.22 868.63 542.54 853.50 C 530.62 846.06 517.44 841.04 504.63 835.39 C 488.33 828.43 472.01 820.94 457.79 810.21 C 428.70 787.78 405.09 758.72 387.27 726.71 C 368.43 693.00 355.55 656.31 345.93 619.01 C 342.70 604.92 339.42 590.85 336.22 576.75 C 334.70 570.14 334.16 563.32 332.31 556.79 C 331.86 575.89 333.90 594.97 336.33 613.90 C 339.79 637.44 344.19 660.92 351.17 683.69 C 362.38 721.30 382.53 756.09 408.82 785.16 C 427.79 805.47 449.08 823.98 473.44 837.54 C 486.44 845.04 500.86 849.47 514.60 855.35 C 528.97 861.79 542.94 869.58 554.52 880.38 C 565.37 889.75 573.41 902.04 578.63 915.34 C 590.30 944.73 590.73 977.37 603.56 1006.39 C 606.31 1012.78 610.28 1018.53 614.55 1024.00 L 300.07 1024.00 C 300.81 1022.13 301.66 1020.12 301.01 1018.11 C 299.38 1011.02 296.62 1004.26 294.61 997.28 C 285.77 970.00 279.32 942.04 271.77 914.40 C 268.48 897.45 265.79 880.39 262.78 863.39 C 256.10 815.93 258.12 767.38 267.47 720.42 C 269.57 710.86 271.73 701.32 273.81 691.76 C 275.93 681.91 278.93 672.19 279.59 662.09 C 280.34 649.00 277.64 636.06 276.52 623.07 C 274.18 601.16 273.56 579.05 275.50 557.09 C 279.31 513.16 294.71 470.77 316.84 432.83 C 325.10 418.43 334.95 405.04 344.49 391.47 C 350.40 384.17 355.80 376.41 362.18 369.51 C 363.16 382.45 366.00 395.40 371.85 407.06 C 374.30 411.93 377.55 416.36 380.12 421.17 C 379.71 424.64 378.11 427.85 377.31 431.25 C 370.89 452.49 367.07 474.85 369.16 497.07 C 371.08 521.18 377.61 544.94 388.52 566.55 C 393.55 577.14 400.42 586.71 405.87 597.08 C 419.16 624.49 429.49 653.65 447.44 678.55 C 471.50 712.61 504.44 739.43 539.62 761.34 C 552.91 769.41 566.61 776.81 579.62 785.33 C 592.02 793.28 604.38 801.66 614.36 812.62 C 623.97 822.82 630.58 835.50 635.13 848.67 C 639.55 861.14 642.21 874.13 644.97 887.05 C 646.46 893.77 646.72 900.85 649.63 907.21 C 650.25 888.44 649.43 869.58 646.75 850.99 C 644.62 837.68 642.10 823.87 634.49 812.45 C 628.14 802.65 619.16 794.97 609.68 788.33 C 595.27 778.18 579.89 769.53 565.14 759.90 C 558.38 755.31 551.62 750.72 544.86 746.13 C 528.76 735.63 514.13 723.01 500.56 709.44 C 489.14 698.42 479.04 686.09 469.82 673.20 C 456.11 653.06 446.17 630.74 434.46 609.46 C 425.31 592.97 413.70 578.03 404.30 561.69 C 394.14 544.32 388.28 524.72 385.17 504.93 C 381.49 479.72 381.94 453.93 385.95 428.80 C 396.97 441.56 409.20 453.39 423.30 462.72 C 434.85 470.93 446.96 478.41 459.95 484.13 C 460.60 496.16 462.35 508.42 467.64 519.36 C 473.87 532.91 484.47 543.72 494.77 554.23 C 510.19 570.00 519.42 590.34 531.31 608.63 C 539.00 620.96 548.07 632.40 558.22 642.78 C 569.32 653.94 582.18 663.76 597.18 669.00 C 595.79 667.31 594.26 665.76 592.57 664.40 C 578.40 653.61 567.12 639.58 556.90 625.13 C 536.56 596.88 523.59 563.28 498.30 538.71 C 491.15 531.77 484.14 524.45 479.45 515.56 C 475.35 507.61 473.33 498.77 472.18 489.94 C 480.07 493.24 487.91 496.80 496.26 498.82 C 500.23 499.95 504.35 500.45 508.30 501.67 C 511.27 504.73 513.32 508.58 516.38 511.59 C 524.08 520.30 534.11 526.57 544.59 531.40 C 546.17 541.67 547.42 552.09 551.02 561.91 C 555.43 575.23 562.84 587.51 572.44 597.71 C 575.75 599.02 577.99 595.63 579.08 593.02 C 585.08 598.47 590.60 604.55 597.01 609.51 C 600.65 609.94 600.68 605.57 601.35 603.10 C 608.09 607.58 614.60 612.56 622.17 615.60 C 628.15 614.19 633.87 611.70 639.81 610.05 C 640.21 612.28 639.20 615.52 641.20 617.02 C 644.24 617.09 647.26 616.36 650.09 615.27 C 659.34 611.81 668.32 607.50 676.68 602.22 C 676.45 605.45 676.47 608.73 677.32 611.88 C 682.37 611.55 686.06 607.78 689.78 604.78 C 695.75 599.81 700.75 593.84 705.76 587.94 C 706.78 589.51 707.65 591.23 709.06 592.53 C 711.79 592.50 713.39 589.84 715.04 588.02 C 726.55 571.95 731.49 552.15 732.59 532.64 C 739.02 529.06 745.71 525.94 751.85 521.87 C 755.67 519.33 758.85 515.26 763.74 514.88 C 785.54 511.36 807.12 506.30 827.98 499.02 C 826.63 513.41 826.06 528.02 822.11 542.01 C 813.20 575.62 793.01 605.27 768.45 629.46 C 757.66 640.47 745.08 649.43 733.03 658.95 C 747.45 653.57 760.35 644.82 772.53 635.54 C 783.64 627.12 793.41 617.07 802.40 606.46 C 824.05 581.38 838.26 549.54 840.20 516.29 C 840.76 508.93 840.91 501.55 841.10 494.18 C 848.70 490.16 856.49 486.44 863.56 481.51 C 868.73 478.18 873.36 474.11 878.33 470.50 C 876.61 498.30 874.55 526.33 878.13 554.08 C 878.88 557.45 876.94 560.51 875.51 563.41 C 860.71 589.97 846.89 617.96 842.75 648.43 C 840.38 664.40 841.83 680.86 837.38 696.53 C 833.21 713.06 824.04 728.04 812.27 740.26 C 792.22 760.48 765.36 771.62 743.40 789.38 C 725.22 804.03 711.56 823.94 703.97 845.99 C 698.03 863.33 694.84 881.76 695.57 900.12 C 700.51 885.82 704.99 871.29 711.61 857.64 C 717.02 846.50 723.48 835.85 731.14 826.11 C 740.06 814.47 751.08 804.56 762.86 795.88 C 782.86 782.19 805.13 771.66 823.14 755.17 C 832.69 746.21 841.58 736.20 847.35 724.33 C 854.16 711.33 858.10 697.02 860.42 682.58 C 863.28 666.53 863.00 650.09 866.25 634.09 C 869.74 616.73 875.36 599.85 882.06 583.49 C 886.33 607.64 892.77 631.34 898.85 655.09 C 917.51 727.11 917.87 802.69 909.08 876.20 C 905.33 901.10 901.52 925.99 897.69 950.87 C 893.74 970.79 889.58 990.68 884.61 1010.38 C 884.04 1013.67 882.76 1017.35 884.35 1020.55 C 886.14 1022.00 888.55 1021.85 890.73 1021.83 C 893.73 1016.92 894.38 1011.14 895.72 1005.66 C 905.30 963.53 913.88 921.10 918.44 878.09 C 924.60 824.67 926.28 770.51 919.99 717.01 C 917.43 693.26 912.52 669.83 906.36 646.77 C 900.23 623.82 894.58 600.71 890.95 577.22 C 886.04 547.09 883.86 516.52 884.19 486.00 C 884.29 479.72 883.80 473.42 884.41 467.16 C 884.60 464.12 887.56 462.49 889.34 460.36 C 904.40 445.59 915.99 426.67 919.73 405.73 C 923.18 411.19 924.29 417.75 925.48 424.01 C 928.26 416.69 930.68 409.22 932.44 401.60 C 934.17 394.38 934.29 386.94 935.09 379.60 C 938.57 384.21 940.57 389.76 944.24 394.24 C 945.69 385.89 947.35 377.46 946.79 368.93 C 946.60 359.99 944.34 351.29 941.66 342.81 C 947.26 344.57 952.68 347.03 957.28 350.73 C 962.52 354.41 965.80 360.01 969.64 364.98 C 968.04 350.07 964.65 335.07 956.92 322.06 C 955.07 318.66 952.84 315.49 950.71 312.27 C 957.59 314.44 964.86 315.51 972.07 314.94 C 973.56 314.69 975.29 314.51 976.42 313.36 C 977.35 312.11 976.64 310.40 975.73 309.37 C 972.70 306.00 968.69 303.71 965.61 300.41 C 954.96 289.96 946.98 277.23 939.51 264.42 C 925.70 239.06 916.34 211.60 907.78 184.11 C 918.99 171.60 927.19 156.66 933.10 141.00 C 941.08 119.28 944.88 96.10 945.07 72.98 C 945.24 60.55 944.21 48.02 940.99 35.98 C 938.60 27.19 934.82 18.25 927.69 12.27 C 921.58 7.16 912.84 7.29 905.56 9.42 C 888.10 14.18 872.42 23.65 857.16 33.11 C 833.73 47.25 811.93 64.73 785.91 74.09 C 780.91 75.74 775.48 79.04 770.16 76.78 C 763.32 74.15 756.34 71.91 749.39 69.60 C 737.38 65.18 724.79 62.66 712.36 59.77 C 688.27 54.41 663.68 51.08 638.99 50.79 C 612.67 50.55 586.46 54.25 560.79 59.88 C 552.08 61.52 543.39 64.81 534.40 63.44 C 520.58 61.23 508.30 53.93 496.95 46.11 C 485.39 37.94 474.35 28.95 461.95 22.03 C 443.19 11.39 422.67 2.99 401.03 0.96 C 393.87 0.62 386.02 0.46 379.96 4.91 C 370.79 10.99 368.30 22.75 367.68 33.02 C 366.85 52.41 368.33 71.91 371.80 91.00 C 374.98 108.95 379.82 127.73 392.63 141.40 C 399.53 149.63 408.60 155.47 416.94 162.03 C 414.99 165.28 412.17 167.86 409.68 170.68 C 399.38 181.35 390.93 193.65 383.45 206.42 C 375.39 220.62 369.43 235.86 362.74 250.73 C 356.63 263.64 349.44 276.21 339.79 286.83 C 336.08 291.61 331.00 295.11 327.51 300.07 C 334.42 303.53 342.08 300.45 348.16 296.74 C 342.08 309.93 337.22 323.85 328.78 335.80 C 326.07 339.91 322.56 343.39 319.69 347.38 C 330.92 348.21 341.32 342.69 350.05 336.17 C 347.00 345.76 346.07 355.79 344.92 365.74 C 329.71 377.94 312.38 387.34 294.17 394.23 C 280.12 400.27 265.41 404.53 251.09 409.85 C 241.19 412.92 231.53 416.71 222.14 421.09 C 208.80 427.07 195.45 433.04 182.10 439.00 C 159.95 449.95 138.74 462.97 119.63 478.67 C 75.11 514.59 41.93 563.57 22.06 617.01 C 6.23 662.12 -0.31 710.25 0.63 757.95 C 2.60 777.30 3.29 796.84 7.11 815.96 C 11.97 842.50 19.40 868.56 29.34 893.64 C 31.04 897.57 31.98 901.94 34.62 905.39 C 36.83 908.10 42.06 906.53 42.06 902.92 C 42.01 897.53 38.96 892.85 37.04 887.98 C 21.08 846.88 11.72 803.09 10.59 758.96 C 9.62 732.14 10.76 705.16 15.53 678.72 C 26.26 619.01 52.84 561.77 93.71 516.71 C 106.99 501.63 122.31 488.47 138.18 476.20 C 159.76 460.76 183.47 448.53 207.54 437.52 C 206.13 440.33 204.25 442.85 202.47 445.44 C 190.94 463.06 182.77 482.58 175.12 502.12 C 166.99 524.24 158.58 546.28 152.00 568.92 C 145.90 590.20 141.26 611.86 135.30 633.17 C 123.51 673.68 109.92 713.98 104.74 756.04 C 101.61 781.52 102.08 807.45 106.11 832.80 C 110.96 865.46 118.82 897.84 131.77 928.28 C 134.39 934.37 136.60 940.82 140.83 946.04 C 136.14 926.93 130.76 907.99 126.08 888.88 C 115.55 840.38 114.16 789.81 122.62 740.88 C 125.21 724.42 130.15 708.48 134.27 692.37 C 142.88 659.94 151.44 627.49 158.83 594.76 C 162.58 579.36 165.46 563.70 170.87 548.76 C 177.49 530.14 184.89 511.81 192.66 493.65 C 198.26 481.20 204.10 468.82 211.03 457.05 C 215.98 449.04 220.94 441.04 226.09 433.16 C 228.03 430.22 230.20 427.00 233.73 425.87 C 246.97 421.67 259.95 416.66 273.08 412.14 C 266.44 424.30 258.70 435.85 252.03 448.00 C 241.67 466.79 232.17 486.06 223.89 505.86 C 198.08 568.46 184.37 635.31 175.56 702.23 C 169.77 746.28 165.87 791.22 172.72 835.39 C 178.68 872.64 192.41 909.14 215.88 938.95 C 207.98 917.64 200.44 896.16 194.95 874.09 C 190.01 853.74 187.18 832.94 185.40 812.10 C 183.08 782.40 184.68 752.57 187.23 722.94 C 190.94 681.56 197.83 640.49 207.09 600.00 C 216.08 562.08 228.05 524.77 244.39 489.36 C 259.50 462.19 274.84 435.14 289.98 407.98 C 291.38 404.35 295.65 404.00 298.84 402.80 C 289.37 417.82 281.57 433.79 273.63 449.64 C 255.05 488.65 241.64 530.67 238.95 574.00 C 238.60 581.38 238.27 588.78 238.32 596.17 C 239.18 593.52 239.67 590.78 240.00 588.02 C 242.45 565.62 247.28 543.53 253.85 521.99 C 266.65 478.27 289.07 438.23 312.44 399.43 C 314.36 395.65 318.39 393.93 321.83 391.86 C 328.17 388.24 334.31 384.26 340.79 380.88 C 329.92 394.27 320.54 408.77 311.32 423.32 C 289.13 459.49 273.27 499.81 267.13 541.90 C 263.09 571.47 263.98 601.51 267.46 631.08 C 268.36 642.14 270.79 653.22 269.29 664.34 C 267.64 677.91 263.13 690.89 260.43 704.26 C 250.20 749.29 246.77 795.86 250.61 841.90 C 253.92 883.16 263.28 923.67 274.43 963.45 C 280.51 983.63 286.54 1003.83 292.66 1024.00 L 0.00 1024.00 L 0.00 0.00 M 318.41 745.03 C 318.12 773.09 326.35 800.40 336.84 826.14 C 349.44 856.37 365.70 884.96 383.92 912.13 C 399.43 935.15 416.40 957.29 435.78 977.20 C 446.23 988.02 456.72 999.01 469.09 1007.67 C 465.06 1001.87 460.26 996.66 456.09 990.97 C 441.26 971.76 427.44 951.76 415.16 930.82 C 405.51 915.13 396.02 899.34 386.36 883.66 C 367.39 853.09 347.40 822.89 333.03 789.79 C 326.63 775.39 323.00 760.03 318.41 745.03 Z" />
<path fill="#ffffff" opacity="1.00" d=" M 383.33 16.34 C 386.76 13.37 391.73 12.79 396.11 13.05 C 415.56 15.58 433.61 24.92 448.60 37.34 C 461.82 48.08 473.50 60.55 484.56 73.47 C 489.03 79.10 493.92 84.50 497.31 90.90 C 486.08 102.80 474.73 114.59 463.53 126.51 C 456.74 133.14 452.22 141.77 444.99 147.99 C 439.84 151.72 433.91 154.28 427.86 156.16 C 426.41 156.88 425.15 155.59 423.98 154.96 C 412.27 147.39 401.04 138.43 393.41 126.58 C 385.03 112.49 382.31 96.03 380.05 80.04 C 378.09 66.45 377.48 52.72 377.47 39.01 C 377.77 31.25 378.18 22.62 383.33 16.34 Z" />
<path fill="#ffffff" opacity="1.00" d=" M 841.80 52.79 C 859.81 40.19 877.30 26.29 897.94 18.15 C 895.94 20.17 893.40 21.50 890.97 22.90 C 875.76 31.00 863.60 43.49 851.55 55.55 C 843.98 63.32 836.15 70.92 829.66 79.65 C 823.00 88.15 817.98 97.75 812.20 106.84 C 805.17 99.58 795.33 94.05 784.91 95.46 C 785.29 96.25 785.81 96.94 786.48 97.52 C 801.13 108.30 814.79 120.62 825.95 135.04 C 836.67 147.74 843.99 162.82 853.92 176.08 C 860.84 185.08 870.21 193.61 882.05 194.58 C 888.49 195.26 894.41 192.23 900.53 191.05 C 906.57 211.86 914.16 232.22 923.02 252.00 C 931.42 270.51 941.11 288.75 954.82 303.93 C 947.15 301.81 939.97 298.36 932.58 295.51 C 934.69 300.99 938.11 305.83 941.06 310.88 C 946.66 320.34 952.44 329.83 955.93 340.32 C 951.91 338.57 948.23 335.90 943.84 335.15 C 939.29 334.10 934.61 334.36 929.99 334.54 C 930.59 338.55 932.78 342.07 934.08 345.87 C 937.21 353.24 938.50 361.21 939.05 369.16 C 935.22 366.61 931.01 363.23 926.11 364.97 C 926.88 375.34 926.39 385.74 925.44 396.09 C 923.95 395.42 923.31 393.85 922.46 392.59 C 920.52 389.45 917.59 386.97 914.24 385.47 C 912.48 402.11 908.22 418.84 899.13 433.06 C 890.15 447.06 878.10 459.00 864.39 468.38 C 846.64 480.46 826.72 489.13 806.11 495.03 C 794.59 498.33 782.98 501.52 771.08 503.09 C 777.86 493.87 782.60 483.24 784.79 472.00 C 793.97 467.29 802.66 461.73 811.52 456.47 C 828.00 446.97 843.40 435.36 856.32 421.37 C 857.77 419.54 860.23 417.75 859.66 415.11 C 858.21 406.10 855.64 397.20 855.65 388.01 C 855.58 379.97 859.07 372.52 862.35 365.37 C 870.40 349.01 876.32 331.36 877.50 313.07 C 879.11 288.78 873.05 264.58 863.58 242.36 C 857.18 227.76 849.26 213.86 840.50 200.54 C 831.30 187.34 821.71 174.13 809.22 163.81 C 816.77 178.73 825.17 193.23 832.95 208.03 C 841.86 226.20 849.55 245.10 854.19 264.85 C 857.97 281.91 859.58 299.63 857.53 317.04 C 855.41 332.70 848.69 347.21 842.64 361.66 C 838.33 371.20 833.77 381.34 835.36 392.09 C 835.83 399.92 841.31 408.21 836.70 415.71 C 827.39 430.09 814.18 441.45 800.44 451.48 C 795.42 454.77 790.55 458.35 785.27 461.21 C 784.39 442.48 781.02 423.17 770.81 407.09 C 760.51 391.20 745.77 378.99 733.38 364.86 C 737.28 375.33 743.77 384.60 750.80 393.20 C 757.33 401.30 764.69 409.47 767.61 419.64 C 754.14 431.70 738.75 441.68 722.38 449.38 C 712.77 453.73 702.55 456.53 692.43 459.42 C 690.57 459.95 688.76 460.62 687.07 461.57 C 712.42 459.29 736.61 449.00 757.00 433.98 C 761.57 431.03 765.59 427.36 769.92 424.08 C 771.57 431.33 773.74 438.49 774.99 445.83 L 774.71 446.60 C 750.87 464.47 722.31 475.46 692.99 480.13 C 688.71 481.27 684.12 480.78 680.01 482.52 C 690.44 482.52 700.98 482.47 711.19 480.05 C 723.61 477.71 735.54 473.28 747.02 468.05 C 757.53 463.51 767.07 457.04 775.86 449.77 C 776.56 456.89 777.21 464.14 776.24 471.27 C 762.52 480.98 746.94 487.83 730.95 492.85 C 714.33 498.18 696.74 499.79 679.35 499.56 C 679.35 499.78 679.33 500.21 679.32 500.42 C 690.05 501.83 700.94 501.81 711.70 500.70 C 730.62 498.07 749.03 491.94 765.79 482.77 C 768.79 481.17 771.70 479.40 774.82 478.02 C 772.73 486.08 770.14 494.28 764.89 500.89 C 760.47 506.00 754.21 508.88 748.88 512.89 C 743.46 516.93 737.73 520.56 731.80 523.82 C 726.49 526.60 721.13 529.81 715.00 530.21 C 699.68 532.15 684.90 526.57 670.78 521.40 C 659.45 517.53 648.51 511.62 640.52 502.53 C 639.34 500.97 638.33 499.03 638.79 497.02 C 639.56 490.82 640.13 484.59 640.55 478.36 C 650.57 475.67 657.64 467.77 664.67 460.68 C 670.74 454.26 678.78 450.23 685.16 444.17 C 697.82 431.23 707.92 414.80 709.62 396.43 C 712.56 371.26 701.84 347.56 694.80 324.00 C 699.39 317.95 702.75 311.07 705.22 303.88 C 713.39 306.73 721.32 310.62 730.00 311.78 C 741.93 313.50 754.87 310.20 763.64 301.68 C 773.01 293.21 774.49 279.73 774.92 267.83 C 788.53 270.23 802.09 274.03 814.08 281.10 C 814.25 291.68 814.03 302.50 810.87 312.69 C 807.27 323.52 800.76 333.84 791.02 340.09 C 782.20 345.36 771.73 346.26 761.84 348.13 C 768.56 351.77 776.46 352.42 783.97 352.74 C 792.37 353.19 801.69 350.96 807.13 344.09 C 814.34 335.33 817.76 324.23 820.58 313.43 C 824.86 296.70 826.08 279.26 824.89 262.06 C 824.31 250.53 821.93 238.92 816.25 228.77 C 815.50 235.05 815.40 241.65 812.43 247.39 C 809.60 253.39 803.96 257.77 797.71 259.76 C 789.39 262.59 779.72 262.61 772.06 257.91 C 761.91 252.32 750.73 247.62 738.91 248.09 C 729.00 248.31 719.39 253.58 713.65 261.63 C 704.94 272.80 702.25 287.10 698.57 300.44 C 696.69 306.45 695.19 312.60 692.96 318.50 C 688.64 311.32 688.45 302.60 685.54 294.95 C 685.14 312.15 688.78 329.16 693.20 345.70 C 697.26 361.54 702.52 377.50 701.66 394.06 C 701.40 402.28 698.69 410.21 695.17 417.57 C 688.60 411.44 679.20 409.22 670.45 410.70 C 657.67 411.87 646.13 420.09 633.00 418.21 C 619.12 416.47 607.27 406.75 592.99 406.81 C 587.60 406.50 582.65 408.81 577.87 410.94 C 577.53 410.85 576.84 410.67 576.50 410.58 C 571.22 401.38 567.63 390.68 568.97 379.97 C 570.26 367.84 575.32 356.59 579.03 345.09 C 583.81 329.16 587.43 312.59 586.68 295.86 C 585.25 301.87 584.44 308.01 583.44 314.10 C 582.98 312.77 582.53 311.43 582.38 310.04 C 580.89 293.02 581.20 275.10 573.58 259.38 C 568.90 249.48 559.26 241.55 548.05 240.97 C 536.81 239.71 526.74 245.63 516.75 249.78 C 508.33 253.47 498.09 253.72 490.08 248.86 C 482.53 244.22 475.34 237.73 473.01 228.85 C 470.63 221.37 471.58 213.49 471.94 205.81 C 464.63 218.61 460.67 233.09 458.41 247.58 C 455.03 272.45 457.51 298.64 468.56 321.40 C 472.42 329.39 478.68 336.50 487.06 339.84 C 498.54 344.33 511.14 343.00 523.18 342.57 C 522.77 342.28 521.95 341.71 521.55 341.43 C 508.40 336.84 494.72 332.23 484.06 322.89 C 475.35 314.94 469.64 303.69 468.57 291.93 C 467.77 282.64 471.74 272.82 479.56 267.49 C 487.68 261.76 497.91 261.54 507.41 260.43 C 508.27 264.74 508.26 269.18 509.40 273.43 C 512.40 284.75 519.81 295.16 530.37 300.52 C 536.12 303.43 542.58 304.55 548.96 304.92 C 557.53 304.72 565.91 302.44 573.97 299.65 C 575.58 305.96 577.08 312.34 579.75 318.32 C 580.65 319.93 579.80 321.65 579.34 323.25 C 575.01 335.53 570.19 347.62 565.80 359.87 C 560.80 373.58 559.39 388.98 564.02 403.00 C 569.33 419.13 578.19 433.97 589.01 447.01 C 600.34 460.57 614.88 471.84 631.82 477.35 L 632.56 477.94 C 632.25 484.47 632.13 491.04 631.43 497.54 C 620.79 509.49 607.10 519.11 591.56 523.43 C 577.86 527.80 562.78 528.52 549.05 523.88 C 531.46 518.03 517.32 503.82 510.12 486.91 C 519.63 489.78 529.16 492.83 539.05 494.12 C 552.59 496.51 566.38 496.14 580.06 495.67 C 583.44 495.41 586.87 495.34 590.15 494.39 C 579.80 493.38 569.39 493.82 559.04 492.99 C 542.32 492.06 525.80 488.58 510.05 482.92 C 509.04 482.43 507.33 482.27 507.29 480.83 C 505.46 472.46 503.30 464.15 501.72 455.73 C 507.17 457.86 512.10 461.07 517.42 463.47 C 534.85 471.10 553.53 476.04 572.52 477.46 C 572.56 477.28 572.64 476.91 572.67 476.73 C 547.96 471.50 523.21 464.50 501.19 451.79 C 500.12 438.34 502.26 424.68 507.11 412.10 C 527.45 437.05 555.73 455.88 586.98 463.90 C 571.23 455.97 555.16 448.48 540.55 438.51 C 529.23 430.70 518.32 422.14 508.89 412.09 C 506.85 410.33 509.11 407.80 509.80 405.91 C 516.46 391.40 527.17 379.39 536.99 367.00 C 538.88 364.53 540.71 362.00 542.09 359.20 C 536.04 363.79 529.98 368.36 524.01 373.05 C 504.75 389.48 493.93 414.32 492.14 439.32 C 481.62 431.12 471.19 422.72 461.66 413.36 C 456.31 407.66 450.48 402.05 447.23 394.82 C 448.27 387.96 451.14 381.16 450.23 374.03 C 448.32 353.11 432.88 336.88 428.14 316.82 C 423.43 292.00 426.99 266.16 435.88 242.67 C 443.42 222.01 454.27 202.80 464.26 183.27 C 471.16 169.81 478.15 156.40 485.04 142.94 C 481.07 145.58 478.05 149.35 474.71 152.70 C 460.77 168.04 448.28 184.71 437.39 202.35 C 419.10 232.46 407.68 267.52 408.99 303.00 C 409.33 313.97 411.16 325.07 415.88 335.07 C 421.48 347.29 429.19 359.15 430.00 372.94 C 430.80 382.28 426.62 392.17 430.91 401.06 C 436.04 410.83 444.81 417.91 452.91 425.14 C 464.98 434.95 477.50 444.33 491.15 451.86 C 492.39 452.44 492.99 453.69 492.97 455.04 C 494.04 467.66 497.96 479.85 503.11 491.37 C 501.24 491.20 499.37 490.99 497.60 490.35 C 479.85 483.90 462.27 476.69 446.07 466.88 C 433.19 459.12 420.61 450.69 409.62 440.36 C 394.51 427.43 382.36 410.73 376.05 391.78 C 371.90 379.26 370.63 365.99 370.61 352.87 C 365.15 354.59 361.10 359.13 355.81 361.30 C 355.11 355.89 356.54 350.52 357.46 345.22 C 359.07 336.79 362.31 328.83 365.25 320.82 C 357.14 322.50 349.95 326.82 342.88 330.94 C 348.70 319.72 354.20 308.31 358.63 296.46 C 360.40 291.56 362.59 286.78 363.60 281.65 C 359.92 283.31 356.62 285.70 352.90 287.27 C 367.27 267.79 375.67 244.89 386.12 223.26 C 395.39 204.17 407.30 186.29 421.80 170.78 C 425.50 166.39 431.36 165.47 436.42 163.44 C 442.31 161.05 448.32 158.42 452.98 153.97 C 458.02 149.62 461.74 144.06 466.01 139.01 C 471.73 132.38 477.26 125.59 482.98 118.97 C 489.03 112.69 495.35 106.68 501.35 100.37 C 503.91 97.75 506.83 95.34 508.51 92.00 C 506.85 86.68 503.79 81.92 500.51 77.46 C 491.70 65.43 482.03 54.05 471.83 43.18 C 469.55 40.79 466.97 38.65 465.08 35.91 C 479.02 44.87 491.85 55.53 506.33 63.65 C 515.30 68.07 524.82 71.90 534.89 72.71 C 540.96 73.42 547.04 72.23 552.99 71.05 C 585.53 63.29 619.05 58.62 652.55 59.81 C 649.75 62.81 645.89 64.44 642.37 66.40 C 631.19 72.41 618.77 76.29 606.05 76.86 C 597.09 77.39 588.09 77.88 579.36 80.12 C 567.73 82.46 556.72 87.02 546.03 92.04 C 539.24 95.73 532.14 99.01 526.07 103.85 C 537.56 99.14 549.22 94.82 561.06 91.07 C 574.97 87.12 589.50 85.19 603.97 85.83 C 620.83 86.79 638.63 83.06 652.04 72.31 C 656.92 77.71 662.17 83.14 669.11 85.84 C 684.43 91.86 701.16 89.05 717.13 90.88 C 729.34 92.90 740.95 97.89 751.22 104.75 C 762.94 112.52 773.71 121.60 784.11 131.05 C 779.68 119.02 771.08 108.89 761.46 100.59 C 748.99 89.99 733.84 82.84 718.03 78.83 C 704.47 75.02 690.30 74.47 676.57 71.60 C 669.22 70.21 662.35 66.32 657.87 60.27 C 668.29 60.70 678.49 63.18 688.81 64.51 C 708.79 68.23 728.82 72.23 748.00 79.09 C 758.07 82.30 768.23 87.15 779.08 85.78 C 785.97 84.97 792.40 82.14 798.81 79.62 C 814.24 72.59 827.96 62.48 841.80 52.79 M 651.58 82.00 C 647.50 92.00 638.17 99.15 627.95 102.05 C 614.04 106.44 599.24 104.46 584.97 106.17 C 574.69 107.51 564.94 111.62 556.34 117.32 C 549.05 122.16 542.11 127.80 537.01 135.00 C 532.58 140.88 529.93 147.89 528.17 154.98 C 538.93 138.26 555.21 124.22 575.04 120.01 C 586.60 117.58 598.33 120.58 609.96 120.83 C 619.95 121.72 630.12 119.63 639.07 115.13 C 643.15 113.08 646.46 109.88 649.94 106.99 C 652.84 110.09 655.59 113.48 659.31 115.65 C 670.09 122.68 683.54 123.26 696.02 122.86 C 704.27 122.80 712.81 121.46 720.80 124.19 C 726.98 126.00 732.52 129.46 737.47 133.51 C 745.69 139.63 751.24 148.41 758.04 155.93 C 753.94 139.08 743.20 123.75 728.32 114.71 C 719.14 108.68 707.81 106.97 697.02 107.56 C 682.78 108.61 667.14 104.59 657.51 93.48 C 654.43 90.26 653.51 85.86 651.58 82.00 M 617.70 139.72 C 610.11 142.37 602.01 142.34 594.08 142.65 C 573.28 143.72 553.79 158.17 546.96 177.88 C 545.08 183.75 544.62 190.70 547.67 196.25 C 549.90 187.99 554.16 180.26 559.97 173.99 C 566.29 167.26 574.00 161.03 583.40 159.60 C 592.94 158.12 602.76 158.00 612.03 155.01 C 622.69 151.85 632.30 145.89 640.79 138.80 C 642.71 137.07 644.48 135.15 646.69 133.75 C 653.02 146.25 665.16 155.12 678.21 159.62 C 687.58 162.89 697.72 162.03 707.19 164.77 C 717.46 167.54 725.19 175.98 729.66 185.32 C 733.49 193.00 734.48 201.63 735.16 210.07 C 741.15 204.16 743.03 195.30 741.49 187.20 C 738.97 171.17 727.84 156.78 713.28 149.78 C 700.49 144.55 685.81 146.92 673.26 140.77 C 661.80 136.26 652.32 126.73 648.51 114.94 C 641.18 126.14 630.42 135.30 617.70 139.72 M 643.02 151.02 C 640.96 158.96 638.52 166.81 636.97 174.87 C 635.96 180.55 635.75 186.91 639.02 191.94 C 640.49 194.04 643.47 193.57 645.38 192.37 C 649.02 188.59 649.72 183.05 649.99 178.04 C 650.16 166.51 648.23 155.06 645.43 143.91 C 644.15 146.10 643.68 148.61 643.02 151.02 M 495.33 169.33 C 491.56 176.62 489.63 185.46 492.55 193.38 C 494.95 200.17 502.13 203.04 507.33 207.30 C 498.51 213.77 489.21 220.82 484.79 231.18 C 489.81 228.65 494.71 225.75 500.16 224.21 C 507.84 221.63 516.10 221.43 524.10 222.24 C 536.04 223.74 546.87 229.42 556.70 236.07 C 550.74 226.48 543.86 217.06 534.51 210.51 C 530.44 207.93 526.07 205.24 521.10 205.16 C 518.08 204.78 515.06 205.58 512.07 205.24 C 507.10 199.96 502.90 193.39 502.56 185.95 C 501.66 172.26 507.49 159.44 512.02 146.85 C 505.39 153.42 499.68 161.05 495.33 169.33 M 773.08 149.16 C 782.52 168.58 788.58 190.72 783.86 212.29 C 779.28 211.49 774.74 210.35 770.05 210.37 C 760.95 209.60 751.91 212.54 744.18 217.20 C 736.81 222.01 731.03 228.80 725.85 235.83 C 733.95 231.36 742.41 227.18 751.69 225.84 C 761.58 224.06 772.51 225.13 780.83 231.16 C 783.61 233.15 784.32 236.63 785.69 239.56 C 788.75 235.58 791.94 231.62 793.97 226.98 C 799.41 214.55 800.04 200.27 796.93 187.15 C 793.51 172.23 784.11 159.46 773.08 149.16 M 628.80 158.80 C 621.52 164.55 613.10 168.58 605.07 173.16 C 596.61 178.01 589.01 184.95 584.90 193.94 C 579.86 204.62 579.81 217.52 584.81 228.23 C 584.85 224.48 584.32 220.69 585.26 217.00 C 587.39 206.88 594.68 198.72 603.01 193.00 C 616.53 183.43 628.97 170.94 634.12 154.81 C 632.20 155.94 630.50 157.38 628.80 158.80 M 654.93 158.02 C 656.03 164.69 658.81 171.00 662.25 176.78 C 667.18 184.98 675.05 190.70 682.46 196.50 C 689.58 201.39 695.83 207.98 698.88 216.19 C 700.62 220.44 700.52 225.09 700.88 229.59 C 703.07 227.82 703.43 224.86 704.26 222.33 C 706.59 214.39 705.44 205.67 701.50 198.43 C 695.93 188.41 687.28 180.32 677.41 174.60 C 669.30 169.98 661.59 164.59 654.93 158.02 M 446.69 356.35 C 449.84 363.99 453.44 371.71 459.34 377.65 C 463.46 381.96 468.99 385.19 475.06 385.48 C 486.49 386.45 497.51 381.22 506.31 374.31 C 511.75 369.46 517.70 364.73 521.15 358.17 C 508.94 364.37 496.32 372.53 482.00 371.01 C 472.57 370.21 465.36 362.90 461.06 354.98 C 451.34 336.57 447.44 315.63 446.40 295.00 C 439.01 314.51 438.96 336.91 446.69 356.35 M 846.10 303.94 C 841.11 321.91 835.55 339.95 826.19 356.20 C 821.78 363.81 817.20 371.57 810.52 377.45 C 807.63 380.01 803.92 381.51 800.09 381.86 C 793.55 382.34 786.76 382.07 780.68 379.37 C 771.52 376.24 764.13 369.75 755.97 364.81 C 762.09 376.46 771.24 386.64 782.69 393.27 C 792.50 399.01 804.65 400.06 815.58 397.38 C 821.09 395.90 825.05 391.39 827.34 386.34 C 834.70 370.23 841.94 353.85 845.66 336.44 C 847.83 324.75 848.65 312.75 847.45 300.91 C 846.91 301.88 846.36 302.85 846.10 303.94 Z" />
<path fill="#ffffff" opacity="1.00" d=" M 909.72 26.89 C 914.49 25.66 919.78 22.91 924.61 25.39 C 928.73 27.21 930.06 31.93 931.13 35.91 C 935.86 56.62 936.46 78.18 933.74 99.21 C 930.91 120.70 924.88 142.06 913.78 160.80 C 908.14 170.06 901.47 179.77 891.16 184.18 C 885.77 186.74 879.36 185.56 874.46 182.49 C 870.61 180.15 867.46 176.86 864.58 173.45 C 853.26 159.19 844.78 142.88 832.87 129.06 C 828.10 123.18 822.78 117.79 817.75 112.15 C 824.54 109.26 827.56 102.24 831.51 96.54 C 840.09 83.96 847.91 70.62 859.06 60.06 C 873.80 46.15 890.86 34.47 909.72 26.89 Z" />
<path fill="#ffffff" opacity="1.00" d=" M 535.66 261.99 C 535.62 257.86 536.86 252.82 541.11 251.13 C 543.11 250.96 545.12 251.13 547.13 251.22 C 543.67 252.90 539.08 254.52 538.62 258.98 C 536.99 265.46 543.57 271.86 549.97 270.09 C 555.37 269.36 558.90 263.18 556.80 258.15 C 556.11 254.62 552.72 253.00 550.04 251.16 C 555.06 252.65 560.88 254.58 563.28 259.67 C 566.47 270.14 553.57 281.36 543.73 276.20 C 538.91 273.17 535.58 267.76 535.66 261.99 Z" />
<path fill="#ffffff" opacity="1.00" d=" M 515.43 258.81 C 518.96 257.69 522.21 255.80 525.81 254.86 C 521.37 267.28 528.77 282.75 541.67 286.19 C 551.71 288.87 561.47 284.02 569.94 279.11 C 570.66 283.53 572.18 287.94 571.78 292.46 C 562.53 295.48 552.80 298.74 542.96 296.96 C 534.59 295.78 526.98 290.64 522.44 283.56 C 517.69 276.22 515.92 267.41 515.43 258.81 Z" />
<path fill="#ffffff" opacity="1.00" d=" M 733.62 258.06 C 736.85 257.93 740.47 257.00 743.48 258.54 C 748.47 262.44 750.46 269.47 749.28 275.57 C 747.33 282.31 740.37 287.68 733.20 286.56 C 725.29 285.91 720.52 277.30 721.19 269.96 C 720.88 265.49 723.98 261.46 728.02 259.86 C 725.72 262.93 722.35 265.77 722.52 269.98 C 722.06 276.47 728.55 282.32 734.94 281.05 C 741.10 278.95 742.68 271.09 740.37 265.60 C 739.26 262.19 735.69 260.74 733.62 258.06 Z" />
<path fill="#ffffff" opacity="1.00" d=" M 755.90 259.71 C 759.89 260.86 763.60 262.88 767.05 265.16 C 768.09 272.99 766.95 281.41 763.57 288.64 C 759.44 297.75 749.87 303.83 739.95 304.30 C 729.01 305.33 718.36 301.85 708.23 298.18 C 708.94 293.92 710.87 290.05 712.47 286.08 C 716.90 287.84 720.14 291.56 724.33 293.76 C 731.00 296.95 739.06 296.87 745.74 293.74 C 753.33 289.75 759.04 281.73 759.12 273.00 C 759.40 268.33 757.53 263.97 755.90 259.71 Z" />
<path fill="#ffffff" opacity="1.00" d=" M 583.64 421.97 C 582.55 418.37 586.07 415.92 589.13 415.26 C 596.58 413.71 604.29 415.75 611.02 419.00 C 615.61 421.31 620.51 422.93 625.40 424.49 C 634.42 427.15 644.16 426.17 652.93 423.00 C 662.27 419.83 672.39 415.29 682.31 418.85 C 685.68 420.40 690.24 423.35 688.78 427.73 C 687.17 431.81 684.21 435.31 680.76 437.99 C 680.46 435.30 679.41 432.23 676.48 431.51 C 669.49 429.53 662.75 434.61 659.33 440.36 C 655.11 446.67 655.71 455.00 651.12 461.11 C 646.11 467.08 637.43 469.00 630.08 466.87 C 626.14 465.56 621.73 464.25 619.25 460.66 C 616.47 457.10 616.33 452.43 615.50 448.19 C 614.26 441.83 612.19 435.19 607.25 430.70 C 604.47 428.43 600.82 427.09 597.23 427.29 C 594.37 427.80 593.47 430.96 592.10 433.10 C 588.88 429.73 585.71 426.18 583.64 421.97 Z" />
<path fill="#ffffff" opacity="1.00" d=" M 618.75 523.57 C 625.36 521.68 632.31 522.74 639.00 523.59 C 649.46 524.80 659.34 528.60 669.44 531.34 C 687.06 536.53 705.71 542.11 724.15 538.00 C 723.52 551.81 719.64 565.66 712.11 577.32 C 710.48 573.60 709.51 569.59 707.55 566.01 C 703.52 576.08 697.92 585.56 690.69 593.67 C 689.12 595.34 687.59 597.16 685.44 598.09 C 685.56 594.60 685.31 591.11 684.80 587.66 C 683.79 587.96 682.86 588.39 682.00 588.96 C 672.16 596.45 661.69 603.56 649.70 607.09 C 649.54 604.41 649.59 601.73 649.72 599.06 C 640.77 601.67 631.94 604.72 622.98 607.33 C 612.68 603.21 603.96 595.97 596.38 587.98 C 595.53 591.03 594.53 594.03 593.62 597.07 C 586.23 591.57 581.79 583.29 576.68 575.82 C 574.76 578.56 573.44 581.65 571.95 584.62 C 561.68 569.74 555.35 552.21 553.20 534.28 C 567.59 536.34 582.58 536.36 596.43 531.47 C 603.97 529.10 611.00 525.27 618.75 523.57 Z" />
</g>
<g id="#010101ff">
<path fill="#010101" opacity="1.00" d=" M 379.96 4.91 C 386.02 0.46 393.87 0.62 401.03 0.96 C 422.67 2.99 443.19 11.39 461.95 22.03 C 474.35 28.95 485.39 37.94 496.95 46.11 C 508.30 53.93 520.58 61.23 534.40 63.44 C 543.39 64.81 552.08 61.52 560.79 59.88 C 586.46 54.25 612.67 50.55 638.99 50.79 C 663.68 51.08 688.27 54.41 712.36 59.77 C 724.79 62.66 737.38 65.18 749.39 69.60 C 756.34 71.91 763.32 74.15 770.16 76.78 C 775.48 79.04 780.91 75.74 785.91 74.09 C 811.93 64.73 833.73 47.25 857.16 33.11 C 872.42 23.65 888.10 14.18 905.56 9.42 C 912.84 7.29 921.58 7.16 927.69 12.27 C 934.82 18.25 938.60 27.19 940.99 35.98 C 944.21 48.02 945.24 60.55 945.07 72.98 C 944.88 96.10 941.08 119.28 933.10 141.00 C 927.19 156.66 918.99 171.60 907.78 184.11 C 916.34 211.60 925.70 239.06 939.51 264.42 C 946.98 277.23 954.96 289.96 965.61 300.41 C 968.69 303.71 972.70 306.00 975.73 309.37 C 976.64 310.40 977.35 312.11 976.42 313.36 C 975.29 314.51 973.56 314.69 972.07 314.94 C 964.86 315.51 957.59 314.44 950.71 312.27 C 952.84 315.49 955.07 318.66 956.92 322.06 C 964.65 335.07 968.04 350.07 969.64 364.98 C 965.80 360.01 962.52 354.41 957.28 350.73 C 952.68 347.03 947.26 344.57 941.66 342.81 C 944.34 351.29 946.60 359.99 946.79 368.93 C 947.35 377.46 945.69 385.89 944.24 394.24 C 940.57 389.76 938.57 384.21 935.09 379.60 C 934.29 386.94 934.17 394.38 932.44 401.60 C 930.68 409.22 928.26 416.69 925.48 424.01 C 924.29 417.75 923.18 411.19 919.73 405.73 C 915.99 426.67 904.40 445.59 889.34 460.36 C 887.56 462.49 884.60 464.12 884.41 467.16 C 883.80 473.42 884.29 479.72 884.19 486.00 C 883.86 516.52 886.04 547.09 890.95 577.22 C 894.58 600.71 900.23 623.82 906.36 646.77 C 912.52 669.83 917.43 693.26 919.99 717.01 C 926.28 770.51 924.60 824.67 918.44 878.09 C 913.88 921.10 905.30 963.53 895.72 1005.66 C 894.38 1011.14 893.73 1016.92 890.73 1021.83 C 888.55 1021.85 886.14 1022.00 884.35 1020.55 C 882.76 1017.35 884.04 1013.67 884.61 1010.38 C 889.58 990.68 893.74 970.79 897.69 950.87 C 901.52 925.99 905.33 901.10 909.08 876.20 C 917.87 802.69 917.51 727.11 898.85 655.09 C 892.77 631.34 886.33 607.64 882.06 583.49 C 875.36 599.85 869.74 616.73 866.25 634.09 C 863.00 650.09 863.28 666.53 860.42 682.58 C 858.10 697.02 854.16 711.33 847.35 724.33 C 841.58 736.20 832.69 746.21 823.14 755.17 C 805.13 771.66 782.86 782.19 762.86 795.88 C 751.08 804.56 740.06 814.47 731.14 826.11 C 723.48 835.85 717.02 846.50 711.61 857.64 C 704.99 871.29 700.51 885.82 695.57 900.12 C 694.84 881.76 698.03 863.33 703.97 845.99 C 711.56 823.94 725.22 804.03 743.40 789.38 C 765.36 771.62 792.22 760.48 812.27 740.26 C 824.04 728.04 833.21 713.06 837.38 696.53 C 841.83 680.86 840.38 664.40 842.75 648.43 C 846.89 617.96 860.71 589.97 875.51 563.41 C 876.94 560.51 878.88 557.45 878.13 554.08 C 874.55 526.33 876.61 498.30 878.33 470.50 C 873.36 474.11 868.73 478.18 863.56 481.51 C 856.49 486.44 848.70 490.16 841.10 494.18 C 840.91 501.55 840.76 508.93 840.20 516.29 C 838.26 549.54 824.05 581.38 802.40 606.46 C 793.41 617.07 783.64 627.12 772.53 635.54 C 760.35 644.82 747.45 653.57 733.03 658.95 C 745.08 649.43 757.66 640.47 768.45 629.46 C 793.01 605.27 813.20 575.62 822.11 542.01 C 826.06 528.02 826.63 513.41 827.98 499.02 C 807.12 506.30 785.54 511.36 763.74 514.88 C 758.85 515.26 755.67 519.33 751.85 521.87 C 745.71 525.94 739.02 529.06 732.59 532.64 C 731.49 552.15 726.55 571.95 715.04 588.02 C 713.39 589.84 711.79 592.50 709.06 592.53 C 707.65 591.23 706.78 589.51 705.76 587.94 C 700.75 593.84 695.75 599.81 689.78 604.78 C 686.06 607.78 682.37 611.55 677.32 611.88 C 676.47 608.73 676.45 605.45 676.68 602.22 C 668.32 607.50 659.34 611.81 650.09 615.27 C 647.26 616.36 644.24 617.09 641.20 617.02 C 639.20 615.52 640.21 612.28 639.81 610.05 C 633.87 611.70 628.15 614.19 622.17 615.60 C 614.60 612.56 608.09 607.58 601.35 603.10 C 600.68 605.57 600.65 609.94 597.01 609.51 C 590.60 604.55 585.08 598.47 579.08 593.02 C 577.99 595.63 575.75 599.02 572.44 597.71 C 562.84 587.51 555.43 575.23 551.02 561.91 C 547.42 552.09 546.17 541.67 544.59 531.40 C 534.11 526.57 524.08 520.30 516.38 511.59 C 513.32 508.58 511.27 504.73 508.30 501.67 C 504.35 500.45 500.23 499.95 496.26 498.82 C 487.91 496.80 480.07 493.24 472.18 489.94 C 473.33 498.77 475.35 507.61 479.45 515.56 C 484.14 524.45 491.15 531.77 498.30 538.71 C 523.59 563.28 536.56 596.88 556.90 625.13 C 567.12 639.58 578.40 653.61 592.57 664.40 C 594.26 665.76 595.79 667.31 597.18 669.00 C 582.18 663.76 569.32 653.94 558.22 642.78 C 548.07 632.40 539.00 620.96 531.31 608.63 C 519.42 590.34 510.19 570.00 494.77 554.23 C 484.47 543.72 473.87 532.91 467.64 519.36 C 462.35 508.42 460.60 496.16 459.95 484.13 C 446.96 478.41 434.85 470.93 423.30 462.72 C 409.20 453.39 396.97 441.56 385.95 428.80 C 381.94 453.93 381.49 479.72 385.17 504.93 C 388.28 524.72 394.14 544.32 404.30 561.69 C 413.70 578.03 425.31 592.97 434.46 609.46 C 446.17 630.74 456.11 653.06 469.82 673.20 C 479.04 686.09 489.14 698.42 500.56 709.44 C 514.13 723.01 528.76 735.63 544.86 746.13 C 551.62 750.72 558.38 755.31 565.14 759.90 C 579.89 769.53 595.27 778.18 609.68 788.33 C 619.16 794.97 628.14 802.65 634.49 812.45 C 642.10 823.87 644.62 837.68 646.75 850.99 C 649.43 869.58 650.25 888.44 649.63 907.21 C 646.72 900.85 646.46 893.77 644.97 887.05 C 642.21 874.13 639.55 861.14 635.13 848.67 C 630.58 835.50 623.97 822.82 614.36 812.62 C 604.38 801.66 592.02 793.28 579.62 785.33 C 566.61 776.81 552.91 769.41 539.62 761.34 C 504.44 739.43 471.50 712.61 447.44 678.55 C 429.49 653.65 419.16 624.49 405.87 597.08 C 400.42 586.71 393.55 577.14 388.52 566.55 C 377.61 544.94 371.08 521.18 369.16 497.07 C 367.07 474.85 370.89 452.49 377.31 431.25 C 378.11 427.85 379.71 424.64 380.12 421.17 C 377.55 416.36 374.30 411.93 371.85 407.06 C 366.00 395.40 363.16 382.45 362.18 369.51 C 355.80 376.41 350.40 384.17 344.49 391.47 C 334.95 405.04 325.10 418.43 316.84 432.83 C 294.71 470.77 279.31 513.16 275.50 557.09 C 273.56 579.05 274.18 601.16 276.52 623.07 C 277.64 636.06 280.34 649.00 279.59 662.09 C 278.93 672.19 275.93 681.91 273.81 691.76 C 271.73 701.32 269.57 710.86 267.47 720.42 C 258.12 767.38 256.10 815.93 262.78 863.39 C 265.79 880.39 268.48 897.45 271.77 914.40 C 279.32 942.04 285.77 970.00 294.61 997.28 C 296.62 1004.26 299.38 1011.02 301.01 1018.11 C 301.66 1020.12 300.81 1022.13 300.07 1024.00 L 292.66 1024.00 C 286.54 1003.83 280.51 983.63 274.43 963.45 C 263.28 923.67 253.92 883.16 250.61 841.90 C 246.77 795.86 250.20 749.29 260.43 704.26 C 263.13 690.89 267.64 677.91 269.29 664.34 C 270.79 653.22 268.36 642.14 267.46 631.08 C 263.98 601.51 263.09 571.47 267.13 541.90 C 273.27 499.81 289.13 459.49 311.32 423.32 C 320.54 408.77 329.92 394.27 340.79 380.88 C 334.31 384.26 328.17 388.24 321.83 391.86 C 318.39 393.93 314.36 395.65 312.44 399.43 C 289.07 438.23 266.65 478.27 253.85 521.99 C 247.28 543.53 242.45 565.62 240.00 588.02 C 239.67 590.78 239.18 593.52 238.32 596.17 C 238.27 588.78 238.60 581.38 238.95 574.00 C 241.64 530.67 255.05 488.65 273.63 449.64 C 281.57 433.79 289.37 417.82 298.84 402.80 C 295.65 404.00 291.38 404.35 289.98 407.98 C 274.84 435.14 259.50 462.19 244.39 489.36 C 228.05 524.77 216.08 562.08 207.09 600.00 C 197.83 640.49 190.94 681.56 187.23 722.94 C 184.68 752.57 183.08 782.40 185.40 812.10 C 187.18 832.94 190.01 853.74 194.95 874.09 C 200.44 896.16 207.98 917.64 215.88 938.95 C 192.41 909.14 178.68 872.64 172.72 835.39 C 165.87 791.22 169.77 746.28 175.56 702.23 C 184.37 635.31 198.08 568.46 223.89 505.86 C 232.17 486.06 241.67 466.79 252.03 448.00 C 258.70 435.85 266.44 424.30 273.08 412.14 C 259.95 416.66 246.97 421.67 233.73 425.87 C 230.20 427.00 228.03 430.22 226.09 433.16 C 220.94 441.04 215.98 449.04 211.03 457.05 C 204.10 468.82 198.26 481.20 192.66 493.65 C 184.89 511.81 177.49 530.14 170.87 548.76 C 165.46 563.70 162.58 579.36 158.83 594.76 C 151.44 627.49 142.88 659.94 134.27 692.37 C 130.15 708.48 125.21 724.42 122.62 740.88 C 114.16 789.81 115.55 840.38 126.08 888.88 C 130.76 907.99 136.14 926.93 140.83 946.04 C 136.60 940.82 134.39 934.37 131.77 928.28 C 118.82 897.84 110.96 865.46 106.11 832.80 C 102.08 807.45 101.61 781.52 104.74 756.04 C 109.92 713.98 123.51 673.68 135.30 633.17 C 141.26 611.86 145.90 590.20 152.00 568.92 C 158.58 546.28 166.99 524.24 175.12 502.12 C 182.77 482.58 190.94 463.06 202.47 445.44 C 204.25 442.85 206.13 440.33 207.54 437.52 C 183.47 448.53 159.76 460.76 138.18 476.20 C 122.31 488.47 106.99 501.63 93.71 516.71 C 52.84 561.77 26.26 619.01 15.53 678.72 C 10.76 705.16 9.62 732.14 10.59 758.96 C 11.72 803.09 21.08 846.88 37.04 887.98 C 38.96 892.85 42.01 897.53 42.06 902.92 C 42.06 906.53 36.83 908.10 34.62 905.39 C 31.98 901.94 31.04 897.57 29.34 893.64 C 19.40 868.56 11.97 842.50 7.11 815.96 C 3.29 796.84 2.60 777.30 0.63 757.95 C -0.31 710.25 6.23 662.12 22.06 617.01 C 41.93 563.57 75.11 514.59 119.63 478.67 C 138.74 462.97 159.95 449.95 182.10 439.00 C 195.45 433.04 208.80 427.07 222.14 421.09 C 231.53 416.71 241.19 412.92 251.09 409.85 C 265.41 404.53 280.12 400.27 294.17 394.23 C 312.38 387.34 329.71 377.94 344.92 365.74 C 346.07 355.79 347.00 345.76 350.05 336.17 C 341.32 342.69 330.92 348.21 319.69 347.38 C 322.56 343.39 326.07 339.91 328.78 335.80 C 337.22 323.85 342.08 309.93 348.16 296.74 C 342.08 300.45 334.42 303.53 327.51 300.07 C 331.00 295.11 336.08 291.61 339.79 286.83 C 349.44 276.21 356.63 263.64 362.74 250.73 C 369.43 235.86 375.39 220.62 383.45 206.42 C 390.93 193.65 399.38 181.35 409.68 170.68 C 412.17 167.86 414.99 165.28 416.94 162.03 C 408.60 155.47 399.53 149.63 392.63 141.40 C 379.82 127.73 374.98 108.95 371.80 91.00 C 368.33 71.91 366.85 52.41 367.68 33.02 C 368.30 22.75 370.79 10.99 379.96 4.91 M 383.33 16.34 C 378.18 22.62 377.77 31.25 377.47 39.01 C 377.48 52.72 378.09 66.45 380.05 80.04 C 382.31 96.03 385.03 112.49 393.41 126.58 C 401.04 138.43 412.27 147.39 423.98 154.96 C 425.15 155.59 426.41 156.88 427.86 156.16 C 433.91 154.28 439.84 151.72 444.99 147.99 C 452.22 141.77 456.74 133.14 463.53 126.51 C 474.73 114.59 486.08 102.80 497.31 90.90 C 493.92 84.50 489.03 79.10 484.56 73.47 C 473.50 60.55 461.82 48.08 448.60 37.34 C 433.61 24.92 415.56 15.58 396.11 13.05 C 391.73 12.79 386.76 13.37 383.33 16.34 M 841.80 52.79 C 827.96 62.48 814.24 72.59 798.81 79.62 C 792.40 82.14 785.97 84.97 779.08 85.78 C 768.23 87.15 758.07 82.30 748.00 79.09 C 728.82 72.23 708.79 68.23 688.81 64.51 C 678.49 63.18 668.29 60.70 657.87 60.27 C 662.35 66.32 669.22 70.21 676.57 71.60 C 690.30 74.47 704.47 75.02 718.03 78.83 C 733.84 82.84 748.99 89.99 761.46 100.59 C 771.08 108.89 779.68 119.02 784.11 131.05 C 773.71 121.60 762.94 112.52 751.22 104.75 C 740.95 97.89 729.34 92.90 717.13 90.88 C 701.16 89.05 684.43 91.86 669.11 85.84 C 662.17 83.14 656.92 77.71 652.04 72.31 C 638.63 83.06 620.83 86.79 603.97 85.83 C 589.50 85.19 574.97 87.12 561.06 91.07 C 549.22 94.82 537.56 99.14 526.07 103.85 C 532.14 99.01 539.24 95.73 546.03 92.04 C 556.72 87.02 567.73 82.46 579.36 80.12 C 588.09 77.88 597.09 77.39 606.05 76.86 C 618.77 76.29 631.19 72.41 642.37 66.40 C 645.89 64.44 649.75 62.81 652.55 59.81 C 619.05 58.62 585.53 63.29 552.99 71.05 C 547.04 72.23 540.96 73.42 534.89 72.71 C 524.82 71.90 515.30 68.07 506.33 63.65 C 491.85 55.53 479.02 44.87 465.08 35.91 C 466.97 38.65 469.55 40.79 471.83 43.18 C 482.03 54.05 491.70 65.43 500.51 77.46 C 503.79 81.92 506.85 86.68 508.51 92.00 C 506.83 95.34 503.91 97.75 501.35 100.37 C 495.35 106.68 489.03 112.69 482.98 118.97 C 477.26 125.59 471.73 132.38 466.01 139.01 C 461.74 144.06 458.02 149.62 452.98 153.97 C 448.32 158.42 442.31 161.05 436.42 163.44 C 431.36 165.47 425.50 166.39 421.80 170.78 C 407.30 186.29 395.39 204.17 386.12 223.26 C 375.67 244.89 367.27 267.79 352.90 287.27 C 356.62 285.70 359.92 283.31 363.60 281.65 C 362.59 286.78 360.40 291.56 358.63 296.46 C 354.20 308.31 348.70 319.72 342.88 330.94 C 349.95 326.82 357.14 322.50 365.25 320.82 C 362.31 328.83 359.07 336.79 357.46 345.22 C 356.54 350.52 355.11 355.89 355.81 361.30 C 361.10 359.13 365.15 354.59 370.61 352.87 C 370.63 365.99 371.90 379.26 376.05 391.78 C 382.36 410.73 394.51 427.43 409.62 440.36 C 420.61 450.69 433.19 459.12 446.07 466.88 C 462.27 476.69 479.85 483.90 497.60 490.35 C 499.37 490.99 501.24 491.20 503.11 491.37 C 497.96 479.85 494.04 467.66 492.97 455.04 C 492.99 453.69 492.39 452.44 491.15 451.86 C 477.50 444.33 464.98 434.95 452.91 425.14 C 444.81 417.91 436.04 410.83 430.91 401.06 C 426.62 392.17 430.80 382.28 430.00 372.94 C 429.19 359.15 421.48 347.29 415.88 335.07 C 411.16 325.07 409.33 313.97 408.99 303.00 C 407.68 267.52 419.10 232.46 437.39 202.35 C 448.28 184.71 460.77 168.04 474.71 152.70 C 478.05 149.35 481.07 145.58 485.04 142.94 C 478.15 156.40 471.16 169.81 464.26 183.27 C 454.27 202.80 443.42 222.01 435.88 242.67 C 426.99 266.16 423.43 292.00 428.14 316.82 C 432.88 336.88 448.32 353.11 450.23 374.03 C 451.14 381.16 448.27 387.96 447.23 394.82 C 450.48 402.05 456.31 407.66 461.66 413.36 C 471.19 422.72 481.62 431.12 492.14 439.32 C 493.93 414.32 504.75 389.48 524.01 373.05 C 529.98 368.36 536.04 363.79 542.09 359.20 C 540.71 362.00 538.88 364.53 536.99 367.00 C 527.17 379.39 516.46 391.40 509.80 405.91 C 509.11 407.80 506.85 410.33 508.89 412.09 C 518.32 422.14 529.23 430.70 540.55 438.51 C 555.16 448.48 571.23 455.97 586.98 463.90 C 555.73 455.88 527.45 437.05 507.11 412.10 C 502.26 424.68 500.12 438.34 501.19 451.79 C 523.21 464.50 547.96 471.50 572.67 476.73 C 572.64 476.91 572.56 477.28 572.52 477.46 C 553.53 476.04 534.85 471.10 517.42 463.47 C 512.10 461.07 507.17 457.86 501.72 455.73 C 503.30 464.15 505.46 472.46 507.29 480.83 C 507.33 482.27 509.04 482.43 510.05 482.92 C 525.80 488.58 542.32 492.06 559.04 492.99 C 569.39 493.82 579.80 493.38 590.15 494.39 C 586.87 495.34 583.44 495.41 580.06 495.67 C 566.38 496.14 552.59 496.51 539.05 494.12 C 529.16 492.83 519.63 489.78 510.12 486.91 C 517.32 503.82 531.46 518.03 549.05 523.88 C 562.78 528.52 577.86 527.80 591.56 523.43 C 607.10 519.11 620.79 509.49 631.43 497.54 C 632.13 491.04 632.25 484.47 632.56 477.94 L 631.82 477.35 C 614.88 471.84 600.34 460.57 589.01 447.01 C 578.19 433.97 569.33 419.13 564.02 403.00 C 559.39 388.98 560.80 373.58 565.80 359.87 C 570.19 347.62 575.01 335.53 579.34 323.25 C 579.80 321.65 580.65 319.93 579.75 318.32 C 577.08 312.34 575.58 305.96 573.97 299.65 C 565.91 302.44 557.53 304.72 548.96 304.92 C 542.58 304.55 536.12 303.43 530.37 300.52 C 519.81 295.16 512.40 284.75 509.40 273.43 C 508.26 269.18 508.27 264.74 507.41 260.43 C 497.91 261.54 487.68 261.76 479.56 267.49 C 471.74 272.82 467.77 282.64 468.57 291.93 C 469.64 303.69 475.35 314.94 484.06 322.89 C 494.72 332.23 508.40 336.84 521.55 341.43 C 521.95 341.71 522.77 342.28 523.18 342.57 C 511.14 343.00 498.54 344.33 487.06 339.84 C 478.68 336.50 472.42 329.39 468.56 321.40 C 457.51 298.64 455.03 272.45 458.41 247.58 C 460.67 233.09 464.63 218.61 471.94 205.81 C 471.58 213.49 470.63 221.37 473.01 228.85 C 475.34 237.73 482.53 244.22 490.08 248.86 C 498.09 253.72 508.33 253.47 516.75 249.78 C 526.74 245.63 536.81 239.71 548.05 240.97 C 559.26 241.55 568.90 249.48 573.58 259.38 C 581.20 275.10 580.89 293.02 582.38 310.04 C 582.53 311.43 582.98 312.77 583.44 314.10 C 584.44 308.01 585.25 301.87 586.68 295.86 C 587.43 312.59 583.81 329.16 579.03 345.09 C 575.32 356.59 570.26 367.84 568.97 379.97 C 567.63 390.68 571.22 401.38 576.50 410.58 C 576.84 410.67 577.53 410.85 577.87 410.94 C 582.65 408.81 587.60 406.50 592.99 406.81 C 607.27 406.75 619.12 416.47 633.00 418.21 C 646.13 420.09 657.67 411.87 670.45 410.70 C 679.20 409.22 688.60 411.44 695.17 417.57 C 698.69 410.21 701.40 402.28 701.66 394.06 C 702.52 377.50 697.26 361.54 693.20 345.70 C 688.78 329.16 685.14 312.15 685.54 294.95 C 688.45 302.60 688.64 311.32 692.96 318.50 C 695.19 312.60 696.69 306.45 698.57 300.44 C 702.25 287.10 704.94 272.80 713.65 261.63 C 719.39 253.58 729.00 248.31 738.91 248.09 C 750.73 247.62 761.91 252.32 772.06 257.91 C 779.72 262.61 789.39 262.59 797.71 259.76 C 803.96 257.77 809.60 253.39 812.43 247.39 C 815.40 241.65 815.50 235.05 816.25 228.77 C 821.93 238.92 824.31 250.53 824.89 262.06 C 826.08 279.26 824.86 296.70 820.58 313.43 C 817.76 324.23 814.34 335.33 807.13 344.09 C 801.69 350.96 792.37 353.19 783.97 352.74 C 776.46 352.42 768.56 351.77 761.84 348.13 C 771.73 346.26 782.20 345.36 791.02 340.09 C 800.76 333.84 807.27 323.52 810.87 312.69 C 814.03 302.50 814.25 291.68 814.08 281.10 C 802.09 274.03 788.53 270.23 774.92 267.83 C 774.49 279.73 773.01 293.21 763.64 301.68 C 754.87 310.20 741.93 313.50 730.00 311.78 C 721.32 310.62 713.39 306.73 705.22 303.88 C 702.75 311.07 699.39 317.95 694.80 324.00 C 701.84 347.56 712.56 371.26 709.62 396.43 C 707.92 414.80 697.82 431.23 685.16 444.17 C 678.78 450.23 670.74 454.26 664.67 460.68 C 657.64 467.77 650.57 475.67 640.55 478.36 C 640.13 484.59 639.56 490.82 638.79 497.02 C 638.33 499.03 639.34 500.97 640.52 502.53 C 648.51 511.62 659.45 517.53 670.78 521.40 C 684.90 526.57 699.68 532.15 715.00 530.21 C 721.13 529.81 726.49 526.60 731.80 523.82 C 737.73 520.56 743.46 516.93 748.88 512.89 C 754.21 508.88 760.47 506.00 764.89 500.89 C 770.14 494.28 772.73 486.08 774.82 478.02 C 771.70 479.40 768.79 481.17 765.79 482.77 C 749.03 491.94 730.62 498.07 711.70 500.70 C 700.94 501.81 690.05 501.83 679.32 500.42 C 679.33 500.21 679.35 499.78 679.35 499.56 C 696.74 499.79 714.33 498.18 730.95 492.85 C 746.94 487.83 762.52 480.98 776.24 471.27 C 777.21 464.14 776.56 456.89 775.86 449.77 C 767.07 457.04 757.53 463.51 747.02 468.05 C 735.54 473.28 723.61 477.71 711.19 480.05 C 700.98 482.47 690.44 482.52 680.01 482.52 C 684.12 480.78 688.71 481.27 692.99 480.13 C 722.31 475.46 750.87 464.47 774.71 446.60 L 774.99 445.83 C 773.74 438.49 771.57 431.33 769.92 424.08 C 765.59 427.36 761.57 431.03 757.00 433.98 C 736.61 449.00 712.42 459.29 687.07 461.57 C 688.76 460.62 690.57 459.95 692.43 459.42 C 702.55 456.53 712.77 453.73 722.38 449.38 C 738.75 441.68 754.14 431.70 767.61 419.64 C 764.69 409.47 757.33 401.30 750.80 393.20 C 743.77 384.60 737.28 375.33 733.38 364.86 C 745.77 378.99 760.51 391.20 770.81 407.09 C 781.02 423.17 784.39 442.48 785.27 461.21 C 790.55 458.35 795.42 454.77 800.44 451.48 C 814.18 441.45 827.39 430.09 836.70 415.71 C 841.31 408.21 835.83 399.92 835.36 392.09 C 833.77 381.34 838.33 371.20 842.64 361.66 C 848.69 347.21 855.41 332.70 857.53 317.04 C 859.58 299.63 857.97 281.91 854.19 264.85 C 849.55 245.10 841.86 226.20 832.95 208.03 C 825.17 193.23 816.77 178.73 809.22 163.81 C 821.71 174.13 831.30 187.34 840.50 200.54 C 849.26 213.86 857.18 227.76 863.58 242.36 C 873.05 264.58 879.11 288.78 877.50 313.07 C 876.32 331.36 870.40 349.01 862.35 365.37 C 859.07 372.52 855.58 379.97 855.65 388.01 C 855.64 397.20 858.21 406.10 859.66 415.11 C 860.23 417.75 857.77 419.54 856.32 421.37 C 843.40 435.36 828.00 446.97 811.52 456.47 C 802.66 461.73 793.97 467.29 784.79 472.00 C 782.60 483.24 777.86 493.87 771.08 503.09 C 782.98 501.52 794.59 498.33 806.11 495.03 C 826.72 489.13 846.64 480.46 864.39 468.38 C 878.10 459.00 890.15 447.06 899.13 433.06 C 908.22 418.84 912.48 402.11 914.24 385.47 C 917.59 386.97 920.52 389.45 922.46 392.59 C 923.31 393.85 923.95 395.42 925.44 396.09 C 926.39 385.74 926.88 375.34 926.11 364.97 C 931.01 363.23 935.22 366.61 939.05 369.16 C 938.50 361.21 937.21 353.24 934.08 345.87 C 932.78 342.07 930.59 338.55 929.99 334.54 C 934.61 334.36 939.29 334.10 943.84 335.15 C 948.23 335.90 951.91 338.57 955.93 340.32 C 952.44 329.83 946.66 320.34 941.06 310.88 C 938.11 305.83 934.69 300.99 932.58 295.51 C 939.97 298.36 947.15 301.81 954.82 303.93 C 941.11 288.75 931.42 270.51 923.02 252.00 C 914.16 232.22 906.57 211.86 900.53 191.05 C 894.41 192.23 888.49 195.26 882.05 194.58 C 870.21 193.61 860.84 185.08 853.92 176.08 C 843.99 162.82 836.67 147.74 825.95 135.04 C 814.79 120.62 801.13 108.30 786.48 97.52 C 785.81 96.94 785.29 96.25 784.91 95.46 C 795.33 94.05 805.17 99.58 812.20 106.84 C 817.98 97.75 823.00 88.15 829.66 79.65 C 836.15 70.92 843.98 63.32 851.55 55.55 C 863.60 43.49 875.76 31.00 890.97 22.90 C 893.40 21.50 895.94 20.17 897.94 18.15 C 877.30 26.29 859.81 40.19 841.80 52.79 M 909.72 26.89 C 890.86 34.47 873.80 46.15 859.06 60.06 C 847.91 70.62 840.09 83.96 831.51 96.54 C 827.56 102.24 824.54 109.26 817.75 112.15 C 822.78 117.79 828.10 123.18 832.87 129.06 C 844.78 142.88 853.26 159.19 864.58 173.45 C 867.46 176.86 870.61 180.15 874.46 182.49 C 879.36 185.56 885.77 186.74 891.16 184.18 C 901.47 179.77 908.14 170.06 913.78 160.80 C 924.88 142.06 930.91 120.70 933.74 99.21 C 936.46 78.18 935.86 56.62 931.13 35.91 C 930.06 31.93 928.73 27.21 924.61 25.39 C 919.78 22.91 914.49 25.66 909.72 26.89 M 535.66 261.99 C 535.58 267.76 538.91 273.17 543.73 276.20 C 553.57 281.36 566.47 270.14 563.28 259.67 C 560.88 254.58 555.06 252.65 550.04 251.16 C 552.72 253.00 556.11 254.62 556.80 258.15 C 558.90 263.18 555.37 269.36 549.97 270.09 C 543.57 271.86 536.99 265.46 538.62 258.98 C 539.08 254.52 543.67 252.90 547.13 251.22 C 545.12 251.13 543.11 250.96 541.11 251.13 C 536.86 252.82 535.62 257.86 535.66 261.99 M 515.43 258.81 C 515.92 267.41 517.69 276.22 522.44 283.56 C 526.98 290.64 534.59 295.78 542.96 296.96 C 552.80 298.74 562.53 295.48 571.78 292.46 C 572.18 287.94 570.66 283.53 569.94 279.11 C 561.47 284.02 551.71 288.87 541.67 286.19 C 528.77 282.75 521.37 267.28 525.81 254.86 C 522.21 255.80 518.96 257.69 515.43 258.81 M 733.62 258.06 C 735.69 260.74 739.26 262.19 740.37 265.60 C 742.68 271.09 741.10 278.95 734.94 281.05 C 728.55 282.32 722.06 276.47 722.52 269.98 C 722.35 265.77 725.72 262.93 728.02 259.86 C 723.98 261.46 720.88 265.49 721.19 269.96 C 720.52 277.30 725.29 285.91 733.20 286.56 C 740.37 287.68 747.33 282.31 749.28 275.57 C 750.46 269.47 748.47 262.44 743.48 258.54 C 740.47 257.00 736.85 257.93 733.62 258.06 M 755.90 259.71 C 757.53 263.97 759.40 268.33 759.12 273.00 C 759.04 281.73 753.33 289.75 745.74 293.74 C 739.06 296.87 731.00 296.95 724.33 293.76 C 720.14 291.56 716.90 287.84 712.47 286.08 C 710.87 290.05 708.94 293.92 708.23 298.18 C 718.36 301.85 729.01 305.33 739.95 304.30 C 749.87 303.83 759.44 297.75 763.57 288.64 C 766.95 281.41 768.09 272.99 767.05 265.16 C 763.60 262.88 759.89 260.86 755.90 259.71 M 583.64 421.97 C 585.71 426.18 588.88 429.73 592.10 433.10 C 593.47 430.96 594.37 427.80 597.23 427.29 C 600.82 427.09 604.47 428.43 607.25 430.70 C 612.19 435.19 614.26 441.83 615.50 448.19 C 616.33 452.43 616.47 457.10 619.25 460.66 C 621.73 464.25 626.14 465.56 630.08 466.87 C 637.43 469.00 646.11 467.08 651.12 461.11 C 655.71 455.00 655.11 446.67 659.33 440.36 C 662.75 434.61 669.49 429.53 676.48 431.51 C 679.41 432.23 680.46 435.30 680.76 437.99 C 684.21 435.31 687.17 431.81 688.78 427.73 C 690.24 423.35 685.68 420.40 682.31 418.85 C 672.39 415.29 662.27 419.83 652.93 423.00 C 644.16 426.17 634.42 427.15 625.40 424.49 C 620.51 422.93 615.61 421.31 611.02 419.00 C 604.29 415.75 596.58 413.71 589.13 415.26 C 586.07 415.92 582.55 418.37 583.64 421.97 M 618.75 523.57 C 611.00 525.27 603.97 529.10 596.43 531.47 C 582.58 536.36 567.59 536.34 553.20 534.28 C 555.35 552.21 561.68 569.74 571.95 584.62 C 573.44 581.65 574.76 578.56 576.68 575.82 C 581.79 583.29 586.23 591.57 593.62 597.07 C 594.53 594.03 595.53 591.03 596.38 587.98 C 603.96 595.97 612.68 603.21 622.98 607.33 C 631.94 604.72 640.77 601.67 649.72 599.06 C 649.59 601.73 649.54 604.41 649.70 607.09 C 661.69 603.56 672.16 596.45 682.00 588.96 C 682.86 588.39 683.79 587.96 684.80 587.66 C 685.31 591.11 685.56 594.60 685.44 598.09 C 687.59 597.16 689.12 595.34 690.69 593.67 C 697.92 585.56 703.52 576.08 707.55 566.01 C 709.51 569.59 710.48 573.60 712.11 577.32 C 719.64 565.66 723.52 551.81 724.15 538.00 C 705.71 542.11 687.06 536.53 669.44 531.34 C 659.34 528.60 649.46 524.80 639.00 523.59 C 632.31 522.74 625.36 521.68 618.75 523.57 Z" />
<path fill="#010101" opacity="1.00" d=" M 651.58 82.00 C 653.51 85.86 654.43 90.26 657.51 93.48 C 667.14 104.59 682.78 108.61 697.02 107.56 C 707.81 106.97 719.14 108.68 728.32 114.71 C 743.20 123.75 753.94 139.08 758.04 155.93 C 751.24 148.41 745.69 139.63 737.47 133.51 C 732.52 129.46 726.98 126.00 720.80 124.19 C 712.81 121.46 704.27 122.80 696.02 122.86 C 683.54 123.26 670.09 122.68 659.31 115.65 C 655.59 113.48 652.84 110.09 649.94 106.99 C 646.46 109.88 643.15 113.08 639.07 115.13 C 630.12 119.63 619.95 121.72 609.96 120.83 C 598.33 120.58 586.60 117.58 575.04 120.01 C 555.21 124.22 538.93 138.26 528.17 154.98 C 529.93 147.89 532.58 140.88 537.01 135.00 C 542.11 127.80 549.05 122.16 556.34 117.32 C 564.94 111.62 574.69 107.51 584.97 106.17 C 599.24 104.46 614.04 106.44 627.95 102.05 C 638.17 99.15 647.50 92.00 651.58 82.00 Z" />
<path fill="#010101" opacity="1.00" d=" M 617.70 139.72 C 630.42 135.30 641.18 126.14 648.51 114.94 C 652.32 126.73 661.80 136.26 673.26 140.77 C 685.81 146.92 700.49 144.55 713.28 149.78 C 727.84 156.78 738.97 171.17 741.49 187.20 C 743.03 195.30 741.15 204.16 735.16 210.07 C 734.48 201.63 733.49 193.00 729.66 185.32 C 725.19 175.98 717.46 167.54 707.19 164.77 C 697.72 162.03 687.58 162.89 678.21 159.62 C 665.16 155.12 653.02 146.25 646.69 133.75 C 644.48 135.15 642.71 137.07 640.79 138.80 C 632.30 145.89 622.69 151.85 612.03 155.01 C 602.76 158.00 592.94 158.12 583.40 159.60 C 574.00 161.03 566.29 167.26 559.97 173.99 C 554.16 180.26 549.90 187.99 547.67 196.25 C 544.62 190.70 545.08 183.75 546.96 177.88 C 553.79 158.17 573.28 143.72 594.08 142.65 C 602.01 142.34 610.11 142.37 617.70 139.72 Z" />
<path fill="#010101" opacity="1.00" d=" M 643.02 151.02 C 643.68 148.61 644.15 146.10 645.43 143.91 C 648.23 155.06 650.16 166.51 649.99 178.04 C 649.72 183.05 649.02 188.59 645.38 192.37 C 643.47 193.57 640.49 194.04 639.02 191.94 C 635.75 186.91 635.96 180.55 636.97 174.87 C 638.52 166.81 640.96 158.96 643.02 151.02 Z" />
<path fill="#010101" opacity="1.00" d=" M 495.33 169.33 C 499.68 161.05 505.39 153.42 512.02 146.85 C 507.49 159.44 501.66 172.26 502.56 185.95 C 502.90 193.39 507.10 199.96 512.07 205.24 C 515.06 205.58 518.08 204.78 521.10 205.16 C 526.07 205.24 530.44 207.93 534.51 210.51 C 543.86 217.06 550.74 226.48 556.70 236.07 C 546.87 229.42 536.04 223.74 524.10 222.24 C 516.10 221.43 507.84 221.63 500.16 224.21 C 494.71 225.75 489.81 228.65 484.79 231.18 C 489.21 220.82 498.51 213.77 507.33 207.30 C 502.13 203.04 494.95 200.17 492.55 193.38 C 489.63 185.46 491.56 176.62 495.33 169.33 Z" />
<path fill="#010101" opacity="1.00" d=" M 773.08 149.16 C 784.11 159.46 793.51 172.23 796.93 187.15 C 800.04 200.27 799.41 214.55 793.97 226.98 C 791.94 231.62 788.75 235.58 785.69 239.56 C 784.32 236.63 783.61 233.15 780.83 231.16 C 772.51 225.13 761.58 224.06 751.69 225.84 C 742.41 227.18 733.95 231.36 725.85 235.83 C 731.03 228.80 736.81 222.01 744.18 217.20 C 751.91 212.54 760.95 209.60 770.05 210.37 C 774.74 210.35 779.28 211.49 783.86 212.29 C 788.58 190.72 782.52 168.58 773.08 149.16 Z" />
<path fill="#010101" opacity="1.00" d=" M 628.80 158.80 C 630.50 157.38 632.20 155.94 634.12 154.81 C 628.97 170.94 616.53 183.43 603.01 193.00 C 594.68 198.72 587.39 206.88 585.26 217.00 C 584.32 220.69 584.85 224.48 584.81 228.23 C 579.81 217.52 579.86 204.62 584.90 193.94 C 589.01 184.95 596.61 178.01 605.07 173.16 C 613.10 168.58 621.52 164.55 628.80 158.80 Z" />
<path fill="#010101" opacity="1.00" d=" M 654.93 158.02 C 661.59 164.59 669.30 169.98 677.41 174.60 C 687.28 180.32 695.93 188.41 701.50 198.43 C 705.44 205.67 706.59 214.39 704.26 222.33 C 703.43 224.86 703.07 227.82 700.88 229.59 C 700.52 225.09 700.62 220.44 698.88 216.19 C 695.83 207.98 689.58 201.39 682.46 196.50 C 675.05 190.70 667.18 184.98 662.25 176.78 C 658.81 171.00 656.03 164.69 654.93 158.02 Z" />
<path fill="#010101" opacity="1.00" d=" M 446.69 356.35 C 438.96 336.91 439.01 314.51 446.40 295.00 C 447.44 315.63 451.34 336.57 461.06 354.98 C 465.36 362.90 472.57 370.21 482.00 371.01 C 496.32 372.53 508.94 364.37 521.15 358.17 C 517.70 364.73 511.75 369.46 506.31 374.31 C 497.51 381.22 486.49 386.45 475.06 385.48 C 468.99 385.19 463.46 381.96 459.34 377.65 C 453.44 371.71 449.84 363.99 446.69 356.35 Z" />
<path fill="#010101" opacity="1.00" d=" M 846.10 303.94 C 846.36 302.85 846.91 301.88 847.45 300.91 C 848.65 312.75 847.83 324.75 845.66 336.44 C 841.94 353.85 834.70 370.23 827.34 386.34 C 825.05 391.39 821.09 395.90 815.58 397.38 C 804.65 400.06 792.50 399.01 782.69 393.27 C 771.24 386.64 762.09 376.46 755.97 364.81 C 764.13 369.75 771.52 376.24 780.68 379.37 C 786.76 382.07 793.55 382.34 800.09 381.86 C 803.92 381.51 807.63 380.01 810.52 377.45 C 817.20 371.57 821.78 363.81 826.19 356.20 C 835.55 339.95 841.11 321.91 846.10 303.94 Z" />
<path fill="#010101" opacity="1.00" d=" M 332.31 556.79 C 334.16 563.32 334.70 570.14 336.22 576.75 C 339.42 590.85 342.70 604.92 345.93 619.01 C 355.55 656.31 368.43 693.00 387.27 726.71 C 405.09 758.72 428.70 787.78 457.79 810.21 C 472.01 820.94 488.33 828.43 504.63 835.39 C 517.44 841.04 530.62 846.06 542.54 853.50 C 567.22 868.63 586.65 892.27 596.15 919.67 C 599.85 929.38 600.90 939.77 603.00 949.88 C 607.61 974.59 612.13 999.31 616.83 1024.00 L 614.55 1024.00 C 610.28 1018.53 606.31 1012.78 603.56 1006.39 C 590.73 977.37 590.30 944.73 578.63 915.34 C 573.41 902.04 565.37 889.75 554.52 880.38 C 542.94 869.58 528.97 861.79 514.60 855.35 C 500.86 849.47 486.44 845.04 473.44 837.54 C 449.08 823.98 427.79 805.47 408.82 785.16 C 382.53 756.09 362.38 721.30 351.17 683.69 C 344.19 660.92 339.79 637.44 336.33 613.90 C 333.90 594.97 331.86 575.89 332.31 556.79 Z" />
<path fill="#010101" opacity="1.00" d=" M 318.41 745.03 C 323.00 760.03 326.63 775.39 333.03 789.79 C 347.40 822.89 367.39 853.09 386.36 883.66 C 396.02 899.34 405.51 915.13 415.16 930.82 C 427.44 951.76 441.26 971.76 456.09 990.97 C 460.26 996.66 465.06 1001.87 469.09 1007.67 C 456.72 999.01 446.23 988.02 435.78 977.20 C 416.40 957.29 399.43 935.15 383.92 912.13 C 365.70 884.96 349.44 856.37 336.84 826.14 C 326.35 800.40 318.12 773.09 318.41 745.03 Z" />
<path fill="#010101" opacity="1.00" d=" M 873.14 817.07 C 876.77 809.22 879.14 800.88 882.44 792.92 C 882.56 806.52 878.94 819.82 874.74 832.65 C 868.23 851.91 858.75 870.18 846.35 886.33 C 835.28 901.42 821.57 914.34 807.14 926.16 C 801.14 930.86 794.87 935.19 789.01 940.05 C 773.80 952.12 760.75 966.77 749.71 982.71 C 739.13 996.95 730.69 1013.33 716.04 1024.00 L 714.83 1024.00 C 716.95 1021.02 718.82 1017.87 720.82 1014.81 C 732.17 997.54 739.67 978.11 750.54 960.56 C 758.81 947.00 768.65 933.95 781.82 924.80 C 790.01 919.03 798.36 913.46 806.01 906.98 C 819.04 896.42 830.62 884.18 841.27 871.25 C 854.24 854.71 864.83 836.36 873.14 817.07 Z" />
</g>
</svg>
