<?xml version="1.0" encoding="UTF-8" ?>
<!DOCTYPE svg PUBLIC "-//W3C//DTD SVG 1.1//EN" "http://www.w3.org/Graphics/SVG/1.1/DTD/svg11.dtd">
<svg width="1079pt" height="1045pt" viewBox="0 0 1079 1045" version="1.1" xmlns="http://www.w3.org/2000/svg">
<g id="#ffffffff">
<path fill="#ffffff" opacity="1.00" d=" M 0.00 0.00 L 1079.00 0.00 L 1079.00 1045.00 L 0.00 1045.00 L 0.00 0.00 M 219.73 126.81 C 206.59 130.76 196.52 141.31 190.07 153.08 C 181.15 168.89 178.62 187.20 176.61 204.96 C 176.14 212.63 176.34 220.32 176.31 228.00 C 176.12 244.96 179.06 261.79 183.15 278.20 C 185.22 286.75 189.02 294.78 190.76 303.42 C 190.97 303.13 191.18 302.84 191.39 302.55 C 195.80 317.47 202.28 331.70 206.16 346.78 C 209.63 359.82 213.41 373.62 210.18 387.10 C 208.80 394.21 205.00 400.48 201.57 406.76 C 197.37 414.51 191.19 420.90 186.08 428.03 C 175.06 442.21 164.25 456.65 155.39 472.31 C 151.52 478.73 147.67 485.30 145.92 492.67 C 151.74 492.69 157.51 491.82 163.32 491.53 C 159.65 499.77 154.31 507.12 150.58 515.34 C 143.49 530.88 137.85 547.25 135.40 564.19 C 140.94 563.05 146.37 561.43 151.89 560.17 C 150.19 568.08 147.10 575.59 145.41 583.50 C 141.84 597.37 140.72 611.72 141.25 626.00 C 145.48 625.33 149.69 624.47 153.95 624.00 C 153.24 631.74 151.07 639.25 150.25 646.97 C 148.04 663.23 148.37 679.66 148.45 696.02 C 148.56 698.67 149.18 701.26 149.47 703.90 C 156.52 702.21 163.39 699.57 170.70 699.22 C 168.93 714.74 169.06 730.38 169.31 745.98 C 169.37 750.30 169.85 754.92 172.52 758.49 C 174.28 760.75 176.82 763.59 179.98 762.08 C 194.10 757.73 207.47 750.05 222.47 749.09 C 222.36 758.06 222.37 767.03 222.53 776.00 C 223.26 786.95 224.37 797.87 225.68 808.77 C 233.54 806.56 239.33 800.27 246.69 796.93 C 246.25 803.29 245.11 809.60 245.24 816.01 C 245.38 825.14 244.32 834.67 247.81 843.36 C 250.27 849.62 254.66 855.78 261.27 858.05 C 267.28 859.89 273.84 858.42 279.02 855.04 C 286.28 851.02 291.64 844.59 298.16 839.62 C 299.05 849.20 300.40 859.14 305.44 867.54 C 307.61 871.07 310.55 874.80 314.95 875.39 C 322.16 876.30 329.29 874.41 336.41 873.59 C 342.66 872.90 348.80 871.52 355.04 870.76 C 364.36 870.21 373.65 869.19 383.00 869.50 C 392.84 869.13 402.59 870.77 412.43 870.65 C 416.50 878.97 419.38 887.82 423.85 895.96 C 428.87 906.98 436.25 916.72 444.48 925.53 C 455.90 936.98 470.59 944.93 486.23 948.90 C 499.91 952.25 513.98 953.47 527.99 954.45 C 539.66 954.59 551.38 954.90 563.01 953.65 C 571.04 953.63 578.86 951.36 586.90 951.49 C 586.00 951.17 585.11 950.87 584.23 950.55 C 585.77 950.47 587.32 950.43 588.88 950.26 C 615.07 946.18 638.29 929.15 651.64 906.47 C 659.02 895.43 663.63 882.92 668.56 870.67 C 674.73 870.67 680.82 869.46 687.00 869.48 C 695.33 869.40 703.67 869.23 712.00 869.66 C 725.52 870.85 738.97 872.70 752.41 874.63 C 757.81 875.32 763.45 876.42 768.83 875.04 C 776.41 872.27 778.48 863.53 780.71 856.65 C 780.93 856.93 781.15 857.21 781.39 857.51 C 782.50 851.63 783.35 845.71 783.83 839.75 C 787.08 842.27 790.22 844.92 793.10 847.88 C 799.28 853.78 807.04 859.35 816.03 858.77 C 821.73 859.02 826.70 855.29 829.74 850.75 C 835.60 842.06 837.13 831.27 836.68 821.00 C 837.06 813.35 835.28 805.82 835.43 798.19 C 841.95 801.48 847.92 805.76 854.55 808.87 C 858.82 789.24 858.55 768.97 858.50 748.97 C 869.68 749.62 879.81 754.83 890.24 758.39 C 895.06 759.89 899.77 762.38 904.91 762.46 C 910.74 758.42 912.78 750.78 912.70 744.01 C 912.69 734.66 912.92 725.30 912.50 715.96 C 911.84 710.32 911.24 704.68 911.16 699.00 C 918.20 699.99 924.96 702.25 931.93 703.59 C 934.32 690.56 933.61 677.13 932.56 663.98 C 931.94 650.25 928.30 636.87 927.06 623.21 C 931.43 624.58 936.00 625.17 940.34 626.67 C 941.02 617.04 939.94 607.45 938.69 597.92 C 937.96 589.98 935.08 582.43 934.24 574.51 C 934.00 574.81 933.78 575.12 933.57 575.44 C 932.09 570.25 930.67 565.04 929.33 559.82 C 934.78 561.34 940.18 563.05 945.67 564.47 C 945.31 561.05 944.88 557.63 944.05 554.30 C 940.20 539.36 935.33 524.62 928.35 510.84 C 925.39 504.13 920.84 498.30 918.02 491.53 C 924.16 491.51 930.16 493.10 936.29 493.43 C 934.51 486.89 930.65 481.27 927.64 475.29 C 922.21 465.07 915.83 455.40 908.91 446.13 C 900.87 434.28 891.42 423.47 883.08 411.85 C 875.29 400.84 870.70 387.50 870.42 373.99 C 869.89 361.40 874.36 349.42 877.67 337.48 C 881.33 324.19 887.15 311.65 891.56 298.61 C 898.02 279.31 903.18 259.36 904.58 239.00 C 904.59 219.62 906.05 199.91 901.30 180.91 C 897.40 164.51 891.36 147.15 877.79 136.24 C 868.98 128.19 856.87 124.10 845.00 124.41 C 833.48 124.13 822.51 128.22 811.68 131.61 C 791.34 138.40 773.46 150.74 756.67 163.79 C 747.08 172.13 737.75 180.76 728.41 189.37 C 716.52 199.36 703.51 209.70 687.64 211.87 C 679.17 213.45 670.63 211.62 662.26 210.33 C 662.71 210.12 663.16 209.91 663.63 209.70 C 650.82 208.46 638.60 204.03 626.23 200.72 C 613.35 197.01 600.19 194.34 586.97 192.17 C 578.02 190.90 569.06 189.37 559.99 189.31 C 545.67 189.06 531.33 189.08 517.00 189.40 C 488.10 191.18 460.44 200.41 432.37 206.74 C 432.77 206.90 433.17 207.06 433.58 207.23 C 425.99 208.29 418.69 210.88 411.07 211.78 C 395.28 214.21 378.73 209.53 366.12 199.81 C 349.10 187.01 334.65 171.16 317.56 158.42 C 301.37 145.87 283.34 135.46 263.73 129.33 C 249.71 124.57 234.11 122.29 219.73 126.81 Z" />
</g>
<g id="#05122cff">
<path fill="#05122c" opacity="1.00" d=" M 219.73 126.81 C 234.11 122.29 249.71 124.57 263.73 129.33 C 283.34 135.46 301.37 145.87 317.56 158.42 C 334.65 171.16 349.10 187.01 366.12 199.81 C 378.73 209.53 395.28 214.21 411.07 211.78 C 418.69 210.88 425.99 208.29 433.58 207.23 C 433.17 207.06 432.77 206.90 432.37 206.74 C 460.44 200.41 488.10 191.18 517.00 189.40 C 531.33 189.08 545.67 189.06 559.99 189.31 C 569.06 189.37 578.02 190.90 586.97 192.17 C 600.19 194.34 613.35 197.01 626.23 200.72 C 638.60 204.03 650.82 208.46 663.63 209.70 C 663.16 209.91 662.71 210.12 662.26 210.33 C 670.63 211.62 679.17 213.45 687.64 211.87 C 703.51 209.70 716.52 199.36 728.41 189.37 C 737.75 180.76 747.08 172.13 756.67 163.79 C 773.46 150.74 791.34 138.40 811.68 131.61 C 822.51 128.22 833.48 124.13 845.00 124.41 C 856.87 124.10 868.98 128.19 877.79 136.24 C 891.36 147.15 897.40 164.51 901.30 180.91 C 906.05 199.91 904.59 219.62 904.58 239.00 C 903.18 259.36 898.02 279.31 891.56 298.61 C 887.15 311.65 881.33 324.19 877.67 337.48 C 874.36 349.42 869.89 361.40 870.42 373.99 C 870.70 387.50 875.29 400.84 883.08 411.85 C 891.42 423.47 900.87 434.28 908.91 446.13 C 915.83 455.40 922.21 465.07 927.64 475.29 C 930.65 481.27 934.51 486.89 936.29 493.43 C 930.16 493.10 924.16 491.51 918.02 491.53 C 920.84 498.30 925.39 504.13 928.35 510.84 C 935.33 524.62 940.20 539.36 944.05 554.30 C 944.88 557.63 945.31 561.05 945.67 564.47 C 940.18 563.05 934.78 561.34 929.33 559.82 C 930.67 565.04 932.09 570.25 933.57 575.44 C 933.78 575.12 934.00 574.81 934.24 574.51 C 935.08 582.43 937.96 589.98 938.69 597.92 C 939.94 607.45 941.02 617.04 940.34 626.67 C 936.00 625.17 931.43 624.58 927.06 623.21 C 928.30 636.87 931.94 650.25 932.56 663.98 C 933.61 677.13 934.32 690.56 931.93 703.59 C 924.96 702.25 918.20 699.99 911.16 699.00 C 911.24 704.68 911.84 710.32 912.50 715.96 C 912.92 725.30 912.69 734.66 912.70 744.01 C 912.78 750.78 910.74 758.42 904.91 762.46 C 899.77 762.38 895.06 759.89 890.24 758.39 C 879.81 754.83 869.68 749.62 858.50 748.97 C 858.55 768.97 858.82 789.24 854.55 808.87 C 847.92 805.76 841.95 801.48 835.43 798.19 C 835.28 805.82 837.06 813.35 836.68 821.00 C 837.13 831.27 835.60 842.06 829.74 850.75 C 826.70 855.29 821.73 859.02 816.03 858.77 C 807.04 859.35 799.28 853.78 793.10 847.88 C 790.22 844.92 787.08 842.27 783.83 839.75 C 783.35 845.71 782.50 851.63 781.39 857.51 C 781.15 857.21 780.93 856.93 780.71 856.65 C 778.48 863.53 776.41 872.27 768.83 875.04 C 763.45 876.42 757.81 875.32 752.41 874.63 C 738.97 872.70 725.52 870.85 712.00 869.66 C 703.67 869.23 695.33 869.40 687.00 869.48 C 680.82 869.46 674.73 870.67 668.56 870.67 C 663.63 882.92 659.02 895.43 651.64 906.47 C 638.29 929.15 615.07 946.18 588.88 950.26 C 587.32 950.43 585.77 950.47 584.23 950.55 C 585.11 950.87 586.00 951.17 586.90 951.49 C 578.86 951.36 571.04 953.63 563.01 953.65 C 551.38 954.90 539.66 954.59 527.99 954.45 C 513.98 953.47 499.91 952.25 486.23 948.90 C 470.59 944.93 455.90 936.98 444.48 925.53 C 436.25 916.72 428.87 906.98 423.85 895.96 C 419.38 887.82 416.50 878.97 412.43 870.65 C 402.59 870.77 392.84 869.13 383.00 869.50 C 373.65 869.19 364.36 870.21 355.04 870.76 C 348.80 871.52 342.66 872.90 336.41 873.59 C 329.29 874.41 322.16 876.30 314.95 875.39 C 310.55 874.80 307.61 871.07 305.44 867.54 C 300.40 859.14 299.05 849.20 298.16 839.62 C 291.64 844.59 286.28 851.02 279.02 855.04 C 273.84 858.42 267.28 859.89 261.27 858.05 C 254.66 855.78 250.27 849.62 247.81 843.36 C 244.32 834.67 245.38 825.14 245.24 816.01 C 245.11 809.60 246.25 803.29 246.69 796.93 C 239.33 800.27 233.54 806.56 225.68 808.77 C 224.37 797.87 223.26 786.95 222.53 776.00 C 222.37 767.03 222.36 758.06 222.47 749.09 C 207.47 750.05 194.10 757.73 179.98 762.08 C 176.82 763.59 174.28 760.75 172.52 758.49 C 169.85 754.92 169.37 750.30 169.31 745.98 C 169.06 730.38 168.93 714.74 170.70 699.22 C 163.39 699.57 156.52 702.21 149.47 703.90 C 149.18 701.26 148.56 698.67 148.45 696.02 C 148.37 679.66 148.04 663.23 150.25 646.97 C 151.07 639.25 153.24 631.74 153.95 624.00 C 149.69 624.47 145.48 625.33 141.25 626.00 C 140.72 611.72 141.84 597.37 145.41 583.50 C 147.10 575.59 150.19 568.08 151.89 560.17 C 146.37 561.43 140.94 563.05 135.40 564.19 C 137.85 547.25 143.49 530.88 150.58 515.34 C 154.31 507.12 159.65 499.77 163.32 491.53 C 157.51 491.82 151.74 492.69 145.92 492.67 C 147.67 485.30 151.52 478.73 155.39 472.31 C 164.25 456.65 175.06 442.21 186.08 428.03 C 191.19 420.90 197.37 414.51 201.57 406.76 C 205.00 400.48 208.80 394.21 210.18 387.10 C 213.41 373.62 209.63 359.82 206.16 346.78 C 202.28 331.70 195.80 317.47 191.39 302.55 C 191.18 302.84 190.97 303.13 190.76 303.42 C 189.02 294.78 185.22 286.75 183.15 278.20 C 179.06 261.79 176.12 244.96 176.31 228.00 C 176.34 220.32 176.14 212.63 176.61 204.96 C 178.62 187.20 181.15 168.89 190.07 153.08 C 196.52 141.31 206.59 130.76 219.73 126.81 M 207.76 182.68 C 202.22 191.00 197.97 200.35 196.47 210.30 C 194.80 221.77 193.69 233.45 195.23 245.01 C 196.66 265.94 202.90 286.19 210.49 305.64 C 216.91 322.50 221.85 339.96 224.49 357.82 C 226.96 372.84 224.97 388.35 219.73 402.58 C 213.03 421.51 198.44 435.92 187.21 452.13 C 182.96 459.03 178.10 465.61 174.83 473.08 C 179.56 474.54 184.13 476.47 188.92 477.74 C 187.52 480.66 186.11 483.59 184.45 486.38 C 174.44 502.34 164.52 518.74 159.16 536.93 C 164.51 536.12 169.69 534.46 175.03 533.69 C 176.96 533.14 178.24 534.90 179.80 535.64 C 172.67 549.28 167.07 563.75 163.43 578.72 C 161.85 585.36 159.84 592.13 160.50 598.97 C 169.86 593.24 177.68 585.03 188.06 581.03 C 185.69 588.26 181.83 594.87 179.23 602.01 C 175.28 612.60 171.82 623.40 169.43 634.47 C 166.59 645.12 165.73 656.14 164.27 667.03 C 163.79 670.57 163.65 674.14 163.68 677.71 C 173.36 674.24 182.54 669.24 192.74 667.25 C 192.18 672.90 190.93 678.45 189.78 684.01 C 186.29 701.97 184.08 720.28 184.55 738.59 C 202.37 732.81 219.75 724.79 238.52 722.61 C 238.63 731.07 238.43 739.55 239.18 747.99 C 239.54 758.12 239.04 768.25 239.40 778.38 C 243.63 776.28 247.87 774.20 251.95 771.82 C 268.23 763.44 285.49 756.66 303.59 753.48 C 303.19 753.18 302.80 752.89 302.41 752.61 C 311.20 752.15 319.76 749.95 328.46 748.78 C 337.08 747.59 345.75 746.64 354.45 746.36 C 354.40 731.48 353.49 716.45 356.37 701.75 C 358.47 691.03 360.48 680.14 364.83 670.06 C 365.39 668.62 365.96 667.18 366.27 665.67 C 369.27 662.76 372.38 659.96 375.58 657.28 C 375.49 669.83 371.42 681.93 370.09 694.37 C 369.10 704.40 367.44 714.38 367.43 724.48 C 367.69 724.99 368.21 726.00 368.46 726.51 C 377.28 728.19 385.82 730.99 394.42 733.52 C 409.05 737.82 423.26 743.44 437.08 749.85 C 442.76 752.56 448.13 755.99 454.22 757.78 C 457.12 759.51 460.19 761.01 462.86 763.12 C 464.27 764.31 465.85 765.89 465.53 767.93 C 465.36 770.51 462.25 771.58 460.03 771.29 C 453.91 770.57 448.16 768.21 442.25 766.63 C 433.06 764.09 424.07 760.91 414.91 758.31 C 400.00 754.44 384.81 751.45 369.40 750.61 C 369.50 756.33 369.95 762.12 371.60 767.63 C 371.94 769.11 373.56 769.66 374.81 770.19 C 392.71 775.09 410.61 780.13 428.85 783.66 C 439.50 785.91 450.14 788.30 460.93 789.78 C 464.08 790.26 467.27 790.63 470.30 791.68 C 470.79 792.89 470.85 794.23 471.03 795.53 C 450.05 802.21 427.58 801.15 405.99 798.74 C 399.19 798.19 392.55 796.28 385.71 796.20 C 387.46 799.09 389.09 802.09 391.28 804.68 C 398.44 813.51 406.42 822.20 416.82 827.21 C 427.15 832.04 438.58 834.97 450.04 834.28 C 464.36 833.55 477.84 827.98 490.29 821.24 C 504.16 814.25 518.84 807.36 534.73 807.49 C 535.09 804.68 535.56 801.84 535.21 799.01 C 534.25 791.59 534.45 784.10 534.35 776.64 C 530.84 774.63 527.00 772.73 524.61 769.34 C 522.86 766.50 522.07 763.20 520.51 760.28 C 518.44 758.51 515.59 758.03 513.10 757.10 C 504.79 754.66 496.78 751.33 488.83 747.96 C 480.70 744.49 473.40 738.54 469.40 730.55 C 464.81 721.42 464.41 711.00 463.82 701.00 C 463.97 696.20 464.45 691.42 464.46 686.62 C 464.45 685.40 464.43 684.19 464.40 682.99 C 464.57 678.10 459.77 675.35 457.49 671.54 C 453.58 666.55 454.51 659.90 454.44 653.99 C 454.63 647.98 454.13 641.96 454.62 635.97 C 454.58 634.45 455.94 633.09 455.29 631.58 C 458.89 640.94 458.71 651.81 464.94 660.10 C 468.10 663.44 472.54 665.15 476.59 667.17 C 476.66 676.49 476.28 685.81 476.89 695.11 C 481.91 695.51 486.91 696.24 491.94 696.52 C 505.38 697.32 518.52 700.53 531.56 703.68 C 536.63 704.97 541.98 705.60 547.14 704.37 C 557.30 702.07 567.42 699.45 577.74 697.92 C 586.44 696.55 595.26 696.49 604.04 696.21 C 604.80 686.51 604.06 676.79 604.62 667.10 C 610.34 665.41 615.73 661.85 618.26 656.27 C 621.90 648.10 622.71 638.99 626.34 630.80 C 626.71 637.86 626.76 644.94 627.19 652.00 C 627.17 659.64 626.44 668.12 621.04 674.05 C 619.21 676.45 616.21 678.57 616.45 681.93 C 616.38 693.72 616.84 705.51 616.29 717.29 C 614.73 729.86 606.67 741.96 594.71 746.74 C 585.04 750.71 575.43 754.90 565.50 758.21 C 564.08 758.83 562.40 759.17 561.32 760.37 C 559.35 763.49 558.78 767.41 556.23 770.20 C 553.56 773.13 549.85 774.75 546.32 776.38 C 546.25 786.71 546.22 797.05 546.34 807.38 C 552.86 807.99 559.42 808.70 565.75 810.43 C 576.05 813.08 585.21 818.67 594.66 823.36 C 606.67 829.89 620.24 834.05 634.00 833.73 C 641.57 833.87 649.26 833.17 656.39 830.46 C 671.08 825.32 682.98 814.36 691.96 801.92 C 693.37 800.20 693.34 797.66 694.97 796.17 C 687.89 796.30 681.03 798.20 674.00 798.84 C 652.86 801.34 630.88 801.99 610.36 795.46 C 610.32 794.08 610.28 792.70 610.25 791.34 C 619.42 789.66 628.65 788.35 637.82 786.69 C 655.26 783.72 672.20 778.42 689.61 775.32 C 689.19 775.09 688.78 774.88 688.38 774.67 C 695.20 773.73 701.90 772.08 708.55 770.35 C 710.37 764.16 711.76 757.82 711.77 751.34 C 696.03 750.95 680.60 754.85 665.47 758.76 C 651.78 762.76 638.10 766.79 624.32 770.46 C 621.53 771.37 618.63 770.81 615.92 769.94 C 616.34 767.88 616.09 765.36 617.91 763.91 C 622.49 759.92 628.06 757.27 633.49 754.65 C 644.06 749.78 654.43 744.39 665.45 740.57 C 670.58 738.78 675.66 736.83 680.80 735.06 C 687.81 732.61 695.19 731.16 701.86 727.80 C 704.33 728.79 707.12 727.88 709.63 727.39 C 711.03 726.81 713.42 726.72 713.39 724.71 C 714.12 717.56 712.86 710.42 712.33 703.31 C 711.24 690.61 709.01 678.05 706.13 665.65 C 705.33 663.18 706.05 660.68 706.32 658.21 C 709.04 660.40 711.66 662.73 714.50 664.79 C 714.87 665.92 715.47 666.96 715.97 668.07 C 716.82 672.00 718.43 675.71 719.57 679.57 C 723.24 691.06 725.21 703.03 726.37 715.01 C 726.96 725.43 726.72 735.87 726.65 746.30 C 743.35 746.85 759.95 749.31 776.26 752.90 C 788.12 755.81 800.06 758.68 811.32 763.54 C 822.24 767.24 831.89 773.71 842.49 778.17 C 842.73 759.46 842.19 740.75 842.76 722.06 C 850.54 723.66 858.28 725.50 865.87 727.88 C 876.50 731.12 886.56 736.07 897.38 738.68 C 897.87 722.16 895.46 705.77 893.22 689.45 C 891.99 681.99 889.82 674.70 889.26 667.14 C 899.10 669.10 907.97 673.94 917.45 677.03 C 917.83 670.69 917.06 664.39 916.06 658.15 C 913.69 639.74 909.76 621.44 902.98 604.12 C 900.26 596.60 896.28 589.54 894.61 581.66 C 904.93 584.80 911.82 593.74 921.44 598.10 C 921.06 593.53 920.43 588.98 920.47 584.39 C 920.08 584.83 919.71 585.29 919.34 585.74 C 919.03 582.94 918.70 580.15 918.47 577.35 C 918.17 577.76 917.89 578.19 917.62 578.61 C 917.01 574.61 916.26 570.64 915.56 566.66 C 915.25 566.90 914.95 567.14 914.67 567.39 C 911.70 555.31 905.71 544.33 900.68 533.05 C 907.36 533.09 913.92 534.21 920.54 534.99 C 917.85 521.04 909.33 509.37 903.27 496.80 C 900.02 490.20 895.39 484.42 892.33 477.72 C 896.98 475.70 901.88 474.33 906.88 473.47 C 905.42 470.82 904.03 468.14 902.43 465.59 C 893.03 451.41 883.49 437.32 873.38 423.64 C 863.70 410.36 857.26 394.53 856.51 378.01 C 855.87 358.22 859.60 338.47 865.79 319.73 C 870.08 308.92 874.16 298.02 877.75 286.96 C 880.46 276.79 883.87 266.76 885.10 256.27 C 887.22 244.99 886.55 233.46 886.49 222.05 C 885.32 207.93 881.66 193.41 873.00 181.97 C 865.96 175.37 857.16 168.96 847.03 169.38 C 836.65 169.25 826.16 171.10 816.77 175.62 C 806.07 180.66 795.19 185.60 785.57 192.57 C 771.04 202.10 756.63 212.03 744.06 224.09 C 740.55 227.28 736.45 229.72 732.98 232.95 C 728.80 236.74 725.15 241.25 720.20 244.08 C 718.29 245.15 716.07 244.24 714.18 243.66 C 706.83 240.92 699.65 237.76 692.41 234.78 C 676.37 229.72 660.56 223.85 644.16 220.00 C 619.19 213.90 594.03 208.04 568.38 205.68 C 554.66 203.69 540.76 204.66 526.95 204.50 C 481.73 207.21 437.58 218.84 394.72 232.97 C 383.94 236.33 373.88 241.66 362.97 244.63 C 357.19 240.26 351.93 235.25 346.21 230.80 C 339.48 225.52 333.32 219.54 326.21 214.75 C 312.71 204.09 298.50 194.33 283.96 185.14 C 269.85 177.13 254.42 170.32 238.03 169.34 C 226.54 168.42 214.80 173.58 207.76 182.68 M 321.28 754.24 C 313.48 755.32 305.88 757.39 298.20 759.05 C 286.70 761.57 275.79 766.11 264.66 769.86 C 263.54 781.23 263.11 792.65 261.82 804.00 C 261.33 806.40 262.42 808.66 262.46 811.05 C 267.28 806.64 272.02 802.14 277.31 798.29 C 292.41 786.51 310.21 778.60 328.64 773.67 C 338.24 771.20 347.83 768.50 357.72 767.48 C 356.92 761.92 355.92 756.40 355.32 750.83 C 343.87 750.39 332.53 752.40 321.28 754.24 M 726.16 750.72 C 725.42 756.27 724.53 761.82 724.10 767.42 C 730.02 768.22 735.96 769.03 741.74 770.61 C 753.57 773.81 765.59 776.77 776.61 782.30 C 788.26 787.79 799.53 794.31 809.42 802.60 C 812.38 805.54 815.54 808.29 819.39 810.04 C 819.26 797.38 816.78 784.89 816.29 772.25 C 816.48 770.66 815.04 769.86 813.85 769.24 C 796.49 761.59 777.93 757.13 759.30 753.83 C 748.35 752.08 737.29 750.16 726.16 750.72 M 715.33 789.93 C 720.10 796.32 727.33 800.41 732.39 806.61 C 744.75 819.34 754.02 834.72 761.14 850.89 C 769.00 835.76 770.29 818.46 772.51 801.86 C 782.32 808.75 791.03 817.05 799.54 825.46 C 804.19 829.77 808.08 834.92 813.49 838.35 C 817.52 832.50 820.79 825.30 819.26 818.07 C 814.99 811.98 808.68 807.66 802.97 803.01 C 792.02 794.58 779.74 787.86 766.70 783.32 C 766.90 783.10 767.12 782.88 767.35 782.67 C 752.54 777.86 737.56 773.23 722.03 771.45 C 720.10 777.72 716.75 783.50 715.33 789.93 M 318.46 780.76 C 318.84 780.94 319.22 781.13 319.60 781.33 C 311.80 783.25 304.80 787.26 297.62 790.71 C 288.35 795.24 279.81 801.17 272.20 808.13 C 268.53 811.59 264.27 814.69 261.73 819.14 C 261.00 825.99 264.22 832.53 267.70 838.23 C 269.04 837.04 270.59 836.12 272.01 835.04 C 280.70 826.36 289.00 817.18 298.77 809.66 C 301.82 806.91 305.10 804.45 308.20 801.77 C 309.18 807.47 309.70 813.23 310.60 818.94 C 312.05 828.24 314.78 837.28 317.81 846.17 C 318.51 847.97 319.10 850.05 320.85 851.15 C 324.14 845.43 326.29 839.15 329.53 833.41 C 332.62 827.41 336.74 822.06 340.54 816.51 C 346.57 807.71 354.46 800.38 362.78 793.79 C 364.08 792.46 366.32 791.20 365.58 789.01 C 364.31 783.13 361.30 777.85 359.26 772.23 C 345.26 772.74 331.99 777.66 318.46 780.76 M 357.42 804.42 C 343.88 817.08 333.95 833.15 326.65 850.08 C 326.09 851.29 325.53 852.50 324.98 853.73 C 332.39 853.63 339.77 852.72 347.00 851.08 C 367.86 846.59 389.30 849.00 410.44 848.37 C 410.23 844.76 411.53 840.27 408.47 837.52 C 404.96 834.16 400.26 832.48 396.50 829.45 C 389.45 823.46 383.94 815.98 378.00 808.96 C 375.11 804.39 372.21 799.80 368.88 795.54 C 364.24 797.20 360.99 801.20 357.42 804.42 M 709.69 798.76 C 706.67 804.28 702.84 809.27 699.31 814.46 C 697.30 817.33 695.12 820.11 692.48 822.45 C 686.94 827.31 681.30 832.15 674.88 835.84 C 672.65 837.36 669.46 838.77 669.60 841.97 C 669.50 844.53 668.79 849.04 672.68 848.59 C 687.06 848.42 701.46 847.85 715.84 848.61 C 722.94 849.14 729.97 850.34 737.07 850.84 C 743.15 852.75 749.63 852.99 755.95 853.54 C 750.22 833.96 737.61 816.95 722.75 803.24 C 719.67 800.40 716.73 797.30 712.99 795.33 C 711.25 795.53 710.61 797.53 709.69 798.76 M 494.99 830.98 C 483.35 836.41 471.81 842.66 459.07 845.06 C 447.97 846.42 436.72 845.49 425.73 843.66 C 425.58 864.18 431.83 884.72 443.00 901.90 C 453.36 917.48 469.89 928.58 488.00 933.02 C 503.45 936.24 519.17 938.67 535.00 938.56 C 545.87 938.63 556.77 938.68 567.57 937.26 C 578.96 935.67 590.46 934.12 601.44 930.51 C 611.53 927.38 620.32 921.10 628.09 914.09 C 635.37 906.64 640.90 897.59 645.28 888.19 C 651.96 874.34 656.20 859.04 655.47 843.56 C 642.21 846.20 628.32 846.68 615.20 843.05 C 604.20 841.02 594.56 835.18 584.73 830.18 C 570.77 823.78 555.36 820.65 540.00 821.29 C 524.45 820.57 509.02 824.44 494.99 830.98 Z" />
<path fill="#05122c" opacity="1.00" d=" M 518.02 234.21 C 524.24 233.55 530.51 233.56 536.72 234.39 C 537.13 243.06 535.64 251.60 533.87 260.05 C 524.81 262.17 515.44 260.81 506.33 262.54 C 482.14 265.32 458.13 269.86 434.86 277.05 C 418.75 281.37 403.32 287.76 387.37 292.55 C 386.11 292.94 384.72 293.28 383.72 292.17 C 386.49 286.17 391.64 281.81 396.16 277.16 C 414.18 257.97 438.92 246.06 464.45 240.64 C 481.98 236.37 500.02 234.78 518.02 234.21 Z" />
<path fill="#05122c" opacity="1.00" d=" M 544.28 234.34 C 550.16 233.38 556.10 233.61 562.00 234.19 C 583.95 234.65 605.94 237.25 627.17 242.97 C 642.50 247.56 657.36 254.14 670.25 263.73 C 678.93 269.92 686.50 277.52 693.46 285.56 C 695.63 287.97 696.93 290.95 698.39 293.81 C 687.37 291.62 677.21 286.61 666.49 283.41 C 656.05 279.58 645.10 277.51 634.48 274.31 C 622.44 270.60 610.00 268.47 597.67 265.97 C 587.21 264.02 576.63 262.72 566.04 261.72 C 559.96 261.15 553.80 262.06 547.75 261.16 C 546.64 260.21 546.23 258.76 545.91 257.40 C 544.43 249.81 544.30 242.05 544.28 234.34 Z" />
<path fill="#05122c" opacity="1.00" d=" M 490.05 288.79 C 500.43 287.13 510.96 285.80 521.49 286.79 C 520.39 293.89 519.15 301.02 516.94 307.87 C 516.37 310.62 513.25 310.84 511.02 311.29 C 503.76 312.28 496.43 312.75 489.28 314.42 C 477.95 316.96 466.57 319.59 455.71 323.77 C 445.22 328.15 433.88 330.40 423.93 336.06 C 414.32 340.70 404.78 345.49 395.29 350.37 C 388.05 353.99 381.22 358.58 373.36 360.81 C 374.35 358.36 375.32 355.88 376.64 353.58 C 387.14 337.16 401.98 324.06 417.85 312.98 C 425.10 308.31 432.84 304.47 440.59 300.73 C 448.59 297.25 457.22 295.73 465.60 293.49 C 473.62 291.30 481.86 290.12 490.05 288.79 Z" />
<path fill="#05122c" opacity="1.00" d=" M 559.34 286.71 C 580.83 285.32 602.24 289.42 622.95 294.77 C 630.70 297.24 638.67 299.14 646.21 302.17 C 657.72 309.32 669.69 316.00 679.72 325.24 C 686.93 331.69 693.56 338.80 699.56 346.40 C 703.06 350.74 705.48 355.82 707.33 361.07 C 699.31 358.14 692.31 353.13 684.70 349.37 C 669.45 341.24 653.69 334.10 637.57 327.90 C 617.95 320.35 597.65 314.10 576.70 311.66 C 572.69 311.11 568.37 311.32 564.71 309.37 C 562.07 302.07 560.58 294.36 559.34 286.71 Z" />
<path fill="#05122c" opacity="1.00" d=" M 529.30 331.69 C 530.60 318.39 532.73 304.59 539.93 293.07 C 546.51 299.36 547.86 308.73 550.07 317.13 C 552.19 328.62 552.92 340.34 553.41 352.00 C 552.65 368.87 552.28 386.40 545.12 402.04 C 543.95 403.93 542.76 406.96 540.05 406.52 C 537.55 404.96 536.45 402.07 535.39 399.47 C 527.72 377.81 526.53 354.36 529.30 331.69 Z" />
<path fill="#05122c" opacity="1.00" d=" M 453.43 352.50 C 471.68 342.86 491.87 335.10 512.80 335.43 C 513.28 341.71 514.53 348.30 512.45 354.41 C 507.52 355.99 502.32 356.39 497.32 357.63 C 489.79 359.24 482.51 362.02 475.85 365.89 C 473.62 367.12 472.20 369.28 470.83 371.34 C 470.61 370.87 470.17 369.94 469.95 369.47 C 452.52 379.47 438.49 395.38 431.10 414.09 C 426.38 425.59 424.98 438.09 424.11 450.39 C 421.43 446.83 418.57 443.18 417.64 438.72 C 413.33 421.17 414.52 401.66 423.78 385.84 C 430.85 372.55 441.44 361.46 453.43 352.50 Z" />
<path fill="#05122c" opacity="1.00" d=" M 568.70 335.57 C 578.68 334.91 588.54 337.14 598.10 339.80 C 608.63 343.26 619.32 346.85 628.62 353.04 C 644.01 364.28 656.78 379.79 662.91 397.99 C 666.24 407.56 666.14 417.90 665.26 427.88 C 663.89 436.16 662.17 444.76 657.00 451.60 C 656.46 445.58 656.23 439.53 655.22 433.57 C 652.43 416.39 644.94 399.78 632.94 387.05 C 626.44 380.23 619.37 373.71 611.01 369.22 C 606.54 366.62 602.16 363.80 597.36 361.83 C 590.24 358.91 582.67 357.32 575.08 356.18 C 572.93 355.72 570.58 355.53 568.75 354.20 C 566.32 348.25 567.80 341.69 568.70 335.57 Z" />
<path fill="#05122c" opacity="1.00" d=" M 761.29 346.52 C 769.58 349.10 775.98 355.10 782.82 360.13 C 789.82 365.41 796.27 371.35 802.77 377.22 C 808.75 382.59 813.70 388.95 819.43 394.57 C 825.17 400.26 829.49 407.15 834.63 413.36 C 839.50 419.27 843.60 425.75 847.82 432.14 C 856.93 446.30 865.92 460.64 872.58 476.16 C 868.18 479.27 864.02 482.73 859.26 485.30 C 860.81 493.71 862.80 502.05 863.82 510.56 C 865.22 521.69 867.53 532.75 867.45 544.01 C 867.40 554.74 867.72 565.49 867.25 576.22 C 866.60 585.19 864.62 594.02 864.39 603.03 C 864.15 602.01 863.93 601.00 863.71 600.00 C 862.84 607.32 860.86 614.59 861.45 622.03 C 862.46 631.33 867.39 639.72 868.22 649.05 C 868.57 651.91 867.36 654.64 866.09 657.14 C 855.21 676.72 843.28 695.80 829.22 713.29 C 825.75 717.13 822.62 721.31 818.82 724.84 C 817.06 726.63 814.37 726.26 812.10 726.37 C 795.40 726.06 778.70 726.23 762.01 726.38 C 755.15 726.54 748.29 726.60 741.47 727.35 C 744.77 713.86 748.30 700.43 751.70 686.96 C 763.84 684.28 775.74 680.08 786.23 673.30 C 797.87 666.25 807.27 656.03 814.81 644.80 C 823.31 631.85 828.76 617.20 833.12 602.41 C 838.57 581.81 839.57 560.25 837.97 539.07 C 836.41 526.35 835.17 513.40 830.84 501.25 C 830.51 500.29 830.17 499.34 829.85 498.40 C 827.53 492.05 826.17 485.41 823.82 479.07 C 816.85 460.38 808.41 442.27 799.41 424.49 C 791.85 410.99 785.09 397.07 777.49 383.59 C 772.55 374.86 768.67 365.61 764.31 356.59 C 762.83 353.39 762.12 349.92 761.29 346.52 Z" />
<path fill="#05122c" opacity="1.00" d=" M 310.42 351.41 C 313.23 349.62 316.43 348.61 319.54 347.47 C 318.59 353.97 315.59 359.79 312.45 365.46 C 295.58 399.65 277.13 433.09 262.15 468.18 C 258.26 478.29 253.53 488.14 251.04 498.74 C 247.95 509.63 245.30 520.66 243.30 531.82 C 240.87 551.02 240.46 570.67 244.36 589.72 C 247.92 610.08 256.45 629.25 267.33 646.71 C 275.61 659.95 287.93 670.44 301.97 677.18 C 310.78 682.05 320.43 685.01 330.11 687.62 C 332.48 701.06 336.65 714.09 339.31 727.47 C 315.24 725.61 291.07 726.42 266.96 726.26 C 263.37 726.47 261.10 723.35 259.04 720.91 C 253.04 713.28 246.42 706.14 240.80 698.22 C 231.24 684.71 222.49 670.61 214.82 655.95 C 211.33 640.89 224.76 627.39 220.57 612.37 C 215.46 592.69 213.66 572.29 213.73 552.00 C 214.17 539.64 213.99 527.23 215.84 514.97 C 217.42 505.06 219.96 495.31 220.93 485.30 C 216.43 482.38 212.36 478.88 207.99 475.79 C 218.08 455.93 230.03 437.06 243.04 419.00 C 253.02 404.91 264.32 391.74 276.74 379.74 C 287.03 369.26 298.22 359.62 310.42 351.41 Z" />
<path fill="#05122c" opacity="1.00" d=" M 395.87 381.98 C 397.69 378.45 400.06 375.23 403.33 372.90 C 403.53 381.65 401.28 390.24 401.44 398.99 C 401.52 410.72 400.66 422.53 402.39 434.18 C 402.72 437.10 403.03 440.02 403.31 442.95 C 400.99 441.60 398.31 440.60 396.74 438.30 C 390.96 430.79 386.57 421.63 386.62 412.00 C 387.34 401.46 390.32 391.01 395.87 381.98 Z" />
<path fill="#05122c" opacity="1.00" d=" M 677.74 374.21 C 682.58 377.92 685.50 383.37 688.26 388.68 C 693.08 398.30 694.87 409.44 692.93 420.04 C 691.06 429.39 685.35 437.75 677.66 443.30 C 678.86 432.23 680.00 421.16 679.53 410.00 C 680.10 398.01 677.62 386.16 677.74 374.21 Z" />
<path fill="#05122c" opacity="1.00" d=" M 480.88 390.92 C 489.31 381.69 501.32 374.88 514.13 375.59 C 514.87 380.64 516.36 385.81 515.24 390.92 C 513.27 393.37 509.96 394.11 507.24 395.46 C 496.77 399.64 488.19 407.47 481.42 416.34 C 477.38 421.92 475.15 428.57 470.92 434.04 C 466.26 425.45 468.05 415.11 471.31 406.37 C 473.27 400.57 476.34 395.09 480.88 390.92 Z" />
<path fill="#05122c" opacity="1.00" d=" M 566.98 375.58 C 570.35 375.66 573.84 375.52 577.02 376.83 C 585.25 380.00 593.62 383.71 599.87 390.13 C 607.35 397.91 613.68 407.82 613.70 418.96 C 614.19 425.06 613.03 431.10 610.77 436.75 C 610.33 436.63 609.45 436.38 609.02 436.26 C 605.48 420.31 593.74 407.45 580.46 398.59 C 576.09 395.50 570.62 394.59 566.18 391.68 C 564.27 386.54 566.56 380.87 566.98 375.58 Z" />
<path fill="#05122c" opacity="1.00" d=" M 754.25 395.80 C 762.96 404.33 766.80 416.90 765.98 428.89 C 764.89 437.99 762.55 447.35 756.80 454.70 C 753.61 458.79 750.09 462.70 745.93 465.81 C 744.58 466.55 743.26 467.32 741.90 468.03 C 737.33 469.66 732.62 470.84 727.93 472.06 C 726.53 481.47 725.13 491.12 720.78 499.71 C 713.18 515.66 696.84 527.41 679.03 528.28 C 669.82 529.10 660.94 526.04 652.41 522.99 C 649.16 528.16 645.52 533.45 644.97 539.71 C 642.99 554.27 645.96 568.79 648.23 583.12 C 648.73 585.68 647.97 588.23 647.63 590.76 C 641.57 585.10 636.92 578.19 633.09 570.88 C 629.13 563.41 622.66 556.66 622.27 547.81 C 622.29 541.19 622.08 534.56 622.53 527.96 C 623.34 517.26 627.15 507.08 631.54 497.39 C 635.49 489.15 639.95 480.97 646.34 474.35 C 656.44 463.28 671.06 456.60 685.97 455.70 C 698.00 454.92 710.05 456.00 722.08 455.69 C 733.63 455.30 745.83 449.92 751.38 439.30 C 757.95 427.22 755.49 412.92 754.20 399.89 C 754.16 398.52 754.18 397.16 754.25 395.80 M 691.48 469.44 C 691.22 474.41 692.70 479.40 691.66 484.34 C 689.82 493.81 679.66 500.91 670.16 499.11 C 662.44 496.46 659.56 488.01 655.41 481.76 C 648.97 484.93 644.65 492.81 647.22 499.85 C 649.25 506.02 655.27 509.44 660.79 512.06 C 668.58 515.82 677.99 516.86 686.00 513.12 C 686.54 512.86 687.62 512.35 688.16 512.09 C 698.25 508.94 706.31 500.47 709.29 490.37 C 711.35 484.36 710.57 477.93 710.38 471.72 C 705.47 470.66 700.65 469.17 695.65 468.60 C 694.22 468.57 692.41 467.99 691.48 469.44 M 667.77 473.11 C 666.65 476.20 667.91 479.44 668.38 482.53 C 670.57 482.82 672.74 483.40 674.98 483.37 C 679.40 482.55 680.43 476.80 679.11 473.18 C 677.11 468.57 669.91 468.71 667.77 473.11 Z" />
<path fill="#05122c" opacity="1.00" d=" M 317.13 414.33 C 318.25 407.44 322.21 401.42 327.15 396.64 C 327.32 398.50 327.54 400.36 327.53 402.24 C 326.18 414.63 324.52 428.01 330.59 439.50 C 335.54 449.27 346.48 454.88 357.14 455.56 C 370.39 456.21 383.70 454.73 396.93 456.09 C 412.25 457.65 427.21 465.07 436.78 477.29 C 445.15 488.06 451.46 500.43 455.41 513.49 C 458.91 525.97 459.41 539.14 458.24 551.99 C 454.73 563.11 447.04 572.14 441.10 581.98 C 439.08 585.38 436.33 588.25 433.38 590.85 C 433.19 588.39 432.41 585.95 433.07 583.50 C 435.72 570.20 437.26 556.60 436.46 543.04 C 436.26 540.71 435.73 538.44 435.06 536.21 C 433.72 531.71 431.12 527.75 428.91 523.65 C 416.42 528.52 402.37 530.71 389.37 526.50 C 380.61 523.16 372.33 518.04 366.38 510.69 C 357.96 500.02 354.03 486.32 354.21 472.83 C 347.85 471.20 341.68 468.91 335.78 466.03 C 332.34 463.94 329.67 460.80 327.29 457.61 C 323.49 452.39 320.14 446.76 318.19 440.58 C 315.24 432.16 315.75 423.00 317.13 414.33 M 376.41 470.50 C 376.79 470.83 377.18 471.16 377.57 471.50 C 375.62 471.62 373.68 471.89 371.74 472.06 C 370.77 480.23 371.83 488.62 375.02 496.23 C 377.14 501.02 381.14 504.63 384.95 508.09 C 387.26 510.26 390.44 510.94 393.40 511.73 C 393.08 512.02 392.76 512.31 392.45 512.61 C 399.54 513.90 406.84 515.48 414.04 514.01 C 420.95 512.83 426.67 508.29 431.60 503.58 C 435.68 499.49 434.48 492.80 431.54 488.41 C 430.14 485.50 427.30 483.94 425.03 481.84 C 422.36 487.00 420.38 492.90 415.86 496.80 C 407.44 502.70 394.77 498.48 390.51 489.41 C 387.18 483.15 388.66 475.89 389.73 469.25 C 385.27 469.51 380.84 469.99 376.41 470.50 M 404.41 470.23 C 400.45 472.53 400.49 478.67 402.91 482.07 C 406.75 485.10 413.25 482.84 413.88 477.84 C 415.89 472.38 409.34 467.08 404.41 470.23 Z" />
<path fill="#05122c" opacity="1.00" d=" M 512.44 414.55 C 515.50 413.15 518.86 411.99 522.28 412.64 C 523.03 419.38 521.53 426.08 520.37 432.68 C 517.62 445.33 514.46 457.92 509.90 470.05 C 507.45 476.35 505.60 482.96 501.77 488.62 C 499.63 481.53 501.61 474.24 501.70 467.03 C 502.08 458.25 503.78 449.44 502.57 440.67 C 500.35 442.76 498.00 444.81 496.59 447.57 C 492.53 455.18 488.20 462.76 485.87 471.13 C 483.23 479.02 481.92 487.26 479.45 495.20 C 478.30 491.92 477.28 488.54 477.42 485.04 C 477.45 475.74 476.98 466.43 477.56 457.15 C 478.51 444.53 486.52 433.83 495.40 425.40 C 500.18 420.53 506.33 417.40 512.44 414.55 Z" />
<path fill="#05122c" opacity="1.00" d=" M 559.61 412.86 C 569.22 414.47 578.76 418.25 585.53 425.48 C 596.31 434.90 604.22 448.43 604.55 462.99 C 604.88 472.90 604.57 483.04 601.59 492.58 C 601.33 492.53 600.82 492.44 600.56 492.40 C 597.30 483.18 596.01 473.38 592.75 464.17 C 589.65 456.54 585.86 448.90 579.63 443.33 C 578.41 458.94 581.41 474.54 580.26 490.14 C 580.02 490.24 579.53 490.43 579.28 490.52 C 573.87 482.68 571.44 473.23 568.96 464.15 C 565.95 450.66 562.21 437.32 560.00 423.67 C 559.42 420.09 559.53 416.46 559.61 412.86 Z" />
<path fill="#05122c" opacity="1.00" d=" M 775.32 447.56 C 780.57 452.11 784.59 457.82 787.98 463.85 C 792.83 472.54 798.01 481.11 801.56 490.45 C 804.29 497.63 807.31 504.73 809.50 512.11 C 809.97 513.77 810.41 515.44 810.81 517.14 C 815.88 539.16 817.25 562.14 813.30 584.47 C 810.23 600.79 804.92 617.80 792.55 629.56 C 789.67 632.58 785.67 633.98 781.89 635.45 C 782.99 630.93 784.44 626.52 785.96 622.13 C 777.08 625.86 768.45 630.64 758.74 631.80 C 742.31 634.56 725.27 628.64 712.94 617.73 L 712.55 616.62 C 717.57 615.06 722.77 614.10 728.02 613.69 C 738.43 612.95 748.85 610.79 758.34 606.34 C 770.27 600.99 780.13 591.04 784.55 578.65 C 789.62 564.22 791.23 548.61 789.75 533.41 C 788.23 512.75 783.98 492.43 779.83 472.18 C 778.36 463.96 775.49 455.98 775.32 447.56 Z" />
<path fill="#05122c" opacity="1.00" d=" M 287.00 477.07 C 292.39 468.07 297.15 458.45 304.73 451.01 C 304.73 454.62 305.10 458.30 304.18 461.84 C 298.44 485.26 293.05 508.89 291.12 532.96 C 289.21 551.39 290.86 571.12 300.77 587.22 C 307.63 598.86 319.83 606.31 332.48 610.23 C 343.99 613.54 356.05 613.88 367.81 615.91 C 368.02 617.01 368.24 618.11 368.46 619.22 C 354.62 629.53 336.61 634.45 319.52 631.40 C 311.27 630.34 303.88 626.33 296.23 623.36 C 297.20 627.43 298.34 631.47 299.27 635.56 C 295.82 634.23 292.18 633.08 289.30 630.69 C 280.36 622.90 274.24 612.30 270.87 601.00 C 267.11 590.08 265.19 578.54 265.30 566.99 C 265.39 556.20 264.78 545.31 266.67 534.64 C 267.47 529.63 268.73 524.72 269.93 519.80 C 273.76 504.91 279.93 490.69 287.00 477.07 Z" />
<path fill="#05122c" opacity="1.00" d=" M 760.63 486.59 C 762.35 488.10 764.60 489.10 765.70 491.23 C 772.34 502.62 775.75 515.81 775.44 528.99 C 774.58 544.70 769.82 560.53 759.89 572.94 C 750.59 584.29 736.55 591.66 721.86 592.51 C 711.30 592.97 700.53 592.71 690.34 589.63 C 690.37 589.11 690.42 588.08 690.45 587.56 C 701.84 583.44 713.22 579.22 724.20 574.07 C 736.31 566.95 747.08 556.84 753.10 543.97 C 756.49 536.20 758.83 527.93 759.70 519.48 C 761.15 508.57 760.01 497.55 760.63 486.59 Z" />
<path fill="#05122c" opacity="1.00" d=" M 316.45 491.46 C 317.25 490.51 317.97 488.84 319.50 489.54 C 321.29 497.95 319.75 506.63 320.83 515.13 C 322.40 531.41 326.43 548.69 338.22 560.77 C 349.72 573.02 365.77 579.40 381.47 584.35 C 384.84 585.27 387.84 587.09 390.74 588.96 C 378.33 594.12 364.35 594.10 351.33 591.49 C 341.38 588.71 331.30 584.61 324.17 576.83 C 313.50 566.23 308.00 551.48 306.15 536.78 C 304.01 521.12 307.22 504.45 316.45 491.46 Z" />
</g>
<g id="#ee6f02ff">
<path fill="#ee6f02" opacity="1.00" d=" M 207.76 182.68 C 214.80 173.58 226.54 168.42 238.03 169.34 C 254.42 170.32 269.85 177.13 283.96 185.14 C 298.50 194.33 312.71 204.09 326.21 214.75 C 333.32 219.54 339.48 225.52 346.21 230.80 C 351.93 235.25 357.19 240.26 362.97 244.63 C 373.88 241.66 383.94 236.33 394.72 232.97 C 437.58 218.84 481.73 207.21 526.95 204.50 C 540.76 204.66 554.66 203.69 568.38 205.68 C 594.03 208.04 619.19 213.90 644.16 220.00 C 660.56 223.85 676.37 229.72 692.41 234.78 C 699.65 237.76 706.83 240.92 714.18 243.66 C 716.07 244.24 718.29 245.15 720.20 244.08 C 725.15 241.25 728.80 236.74 732.98 232.95 C 736.45 229.72 740.55 227.28 744.06 224.09 C 756.63 212.03 771.04 202.10 785.57 192.57 C 795.19 185.60 806.07 180.66 816.77 175.62 C 826.16 171.10 836.65 169.25 847.03 169.38 C 857.16 168.96 865.96 175.37 873.00 181.97 C 881.66 193.41 885.32 207.93 886.49 222.05 C 886.55 233.46 887.22 244.99 885.10 256.27 C 883.87 266.76 880.46 276.79 877.75 286.96 C 874.16 298.02 870.08 308.92 865.79 319.73 C 859.60 338.47 855.87 358.22 856.51 378.01 C 857.26 394.53 863.70 410.36 873.38 423.64 C 883.49 437.32 893.03 451.41 902.43 465.59 C 904.03 468.14 905.42 470.82 906.88 473.47 C 901.88 474.33 896.98 475.70 892.33 477.72 C 895.39 484.42 900.02 490.20 903.27 496.80 C 909.33 509.37 917.85 521.04 920.54 534.99 C 913.92 534.21 907.36 533.09 900.68 533.05 C 889.75 531.96 878.85 533.44 867.93 533.47 C 866.92 547.70 868.28 561.98 867.25 576.22 C 867.72 565.49 867.40 554.74 867.45 544.01 C 867.53 532.75 865.22 521.69 863.82 510.56 C 862.80 502.05 860.81 493.71 859.26 485.30 C 864.02 482.73 868.18 479.27 872.58 476.16 C 865.92 460.64 856.93 446.30 847.82 432.14 C 843.60 425.75 839.50 419.27 834.63 413.36 C 829.49 407.15 825.17 400.26 819.43 394.57 C 813.70 388.95 808.75 382.59 802.77 377.22 C 796.27 371.35 789.82 365.41 782.82 360.13 C 775.98 355.10 769.58 349.10 761.29 346.52 C 762.12 349.92 762.83 353.39 764.31 356.59 C 768.67 365.61 772.55 374.86 777.49 383.59 C 785.09 397.07 791.85 410.99 799.41 424.49 C 808.41 442.27 816.85 460.38 823.82 479.07 C 826.17 485.41 827.53 492.05 829.85 498.40 C 822.81 502.59 816.13 507.32 809.50 512.11 C 807.31 504.73 804.29 497.63 801.56 490.45 C 798.01 481.11 792.83 472.54 787.98 463.85 C 784.59 457.82 780.57 452.11 775.32 447.56 C 775.49 455.98 778.36 463.96 779.83 472.18 C 783.98 492.43 788.23 512.75 789.75 533.41 C 791.23 548.61 789.62 564.22 784.55 578.65 C 780.13 591.04 770.27 600.99 758.34 606.34 C 748.85 610.79 738.43 612.95 728.02 613.69 C 722.77 614.10 717.57 615.06 712.55 616.62 C 711.04 618.35 709.97 620.50 710.22 622.87 C 710.43 636.95 713.60 650.76 714.50 664.79 C 711.66 662.73 709.04 660.40 706.32 658.21 C 706.05 660.68 705.33 663.18 706.13 665.65 C 709.01 678.05 711.24 690.61 712.33 703.31 C 712.86 710.42 714.12 717.56 713.39 724.71 C 713.42 726.72 711.03 726.81 709.63 727.39 C 707.12 727.88 704.33 728.79 701.86 727.80 C 697.24 722.55 692.67 717.22 687.35 712.65 C 673.85 701.37 658.00 691.33 639.93 690.45 C 640.96 690.15 641.99 689.85 643.02 689.52 C 634.42 688.46 625.88 686.89 617.20 686.68 C 617.21 696.89 617.57 707.14 616.29 717.29 C 616.84 705.51 616.38 693.72 616.45 681.93 C 616.21 678.57 619.21 676.45 621.04 674.05 C 626.44 668.12 627.17 659.64 627.19 652.00 C 626.76 644.94 626.71 637.86 626.34 630.80 C 622.71 638.99 621.90 648.10 618.26 656.27 C 615.73 661.85 610.34 665.41 604.62 667.10 C 604.06 676.79 604.80 686.51 604.04 696.21 C 595.26 696.49 586.44 696.55 577.74 697.92 C 567.42 699.45 557.30 702.07 547.14 704.37 C 541.98 705.60 536.63 704.97 531.56 703.68 C 518.52 700.53 505.38 697.32 491.94 696.52 C 486.91 696.24 481.91 695.51 476.89 695.11 C 476.28 685.81 476.66 676.49 476.59 667.17 C 472.54 665.15 468.10 663.44 464.94 660.10 C 458.71 651.81 458.89 640.94 455.29 631.58 C 455.94 633.09 454.58 634.45 454.62 635.97 C 454.13 641.96 454.63 647.98 454.44 653.99 C 454.51 659.90 453.58 666.55 457.49 671.54 C 459.77 675.35 464.57 678.10 464.40 682.99 C 464.43 684.19 464.45 685.40 464.46 686.62 C 445.50 687.17 426.55 692.01 409.79 700.89 C 397.44 707.35 387.63 717.44 378.49 727.75 C 374.79 726.69 371.12 725.55 367.43 724.48 C 367.44 714.38 369.10 704.40 370.09 694.37 C 371.42 681.93 375.49 669.83 375.58 657.28 C 372.38 659.96 369.27 662.76 366.27 665.67 C 367.04 658.89 367.38 652.06 368.20 645.28 C 368.93 636.63 370.51 627.82 368.46 619.22 C 368.24 618.11 368.02 617.01 367.81 615.91 C 356.05 613.88 343.99 613.54 332.48 610.23 C 319.83 606.31 307.63 598.86 300.77 587.22 C 290.86 571.12 289.21 551.39 291.12 532.96 C 293.05 508.89 298.44 485.26 304.18 461.84 C 305.10 458.30 304.73 454.62 304.73 451.01 C 297.15 458.45 292.39 468.07 287.00 477.07 C 279.93 490.69 273.76 504.91 269.93 519.80 C 270.14 517.96 270.45 516.09 270.07 514.26 C 269.08 512.50 267.55 511.11 266.06 509.79 C 261.31 505.77 256.48 501.80 251.04 498.74 C 253.53 488.14 258.26 478.29 262.15 468.18 C 277.13 433.09 295.58 399.65 312.45 365.46 C 315.59 359.79 318.59 353.97 319.54 347.47 C 316.43 348.61 313.23 349.62 310.42 351.41 C 298.22 359.62 287.03 369.26 276.74 379.74 C 264.32 391.74 253.02 404.91 243.04 419.00 C 230.03 437.06 218.08 455.93 207.99 475.79 C 212.36 478.88 216.43 482.38 220.93 485.30 C 219.96 495.31 217.42 505.06 215.84 514.97 C 214.73 521.06 213.65 527.16 213.16 533.34 C 204.72 533.87 196.34 532.46 187.91 532.45 C 184.87 532.27 181.90 533.43 179.80 535.64 C 178.24 534.90 176.96 533.14 175.03 533.69 C 169.69 534.46 164.51 536.12 159.16 536.93 C 164.52 518.74 174.44 502.34 184.45 486.38 C 186.11 483.59 187.52 480.66 188.92 477.74 C 184.13 476.47 179.56 474.54 174.83 473.08 C 178.10 465.61 182.96 459.03 187.21 452.13 C 198.44 435.92 213.03 421.51 219.73 402.58 C 224.97 388.35 226.96 372.84 224.49 357.82 C 221.85 339.96 216.91 322.50 210.49 305.64 C 202.90 286.19 196.66 265.94 195.23 245.01 C 193.69 233.45 194.80 221.77 196.47 210.30 C 197.97 200.35 202.22 191.00 207.76 182.68 M 230.42 186.73 C 226.56 187.38 223.32 189.91 220.91 192.89 C 215.03 200.25 214.42 210.04 213.34 219.02 C 212.35 225.30 212.43 231.68 213.21 237.98 C 214.14 256.96 218.87 275.51 224.71 293.52 C 230.29 309.14 237.29 324.19 243.51 339.56 C 245.04 343.20 246.80 346.74 248.52 350.29 C 250.53 348.74 253.08 347.76 254.45 345.49 C 257.24 341.27 260.45 337.04 261.66 332.05 C 266.05 327.63 270.35 323.13 274.51 318.50 C 281.82 310.47 289.85 303.14 296.99 294.96 C 304.92 286.66 314.46 280.15 322.68 272.16 C 327.16 270.54 331.13 267.82 334.41 264.37 C 335.18 263.52 336.12 262.49 335.60 261.25 C 334.44 257.79 331.90 255.04 329.79 252.15 C 317.20 235.31 302.50 220.07 286.17 206.85 C 281.39 203.18 276.05 200.34 271.06 196.98 C 259.29 188.95 244.63 184.84 230.42 186.73 M 836.85 186.98 C 819.68 189.92 804.51 199.45 791.08 210.13 C 782.99 216.29 776.04 223.73 768.86 230.89 C 763.95 236.66 758.16 241.69 754.08 248.13 C 751.18 252.71 746.85 256.53 745.36 261.89 C 747.53 265.55 751.18 268.04 754.69 270.31 C 756.18 271.18 758.62 272.52 759.68 270.33 C 766.59 277.16 775.07 282.19 781.42 289.62 C 789.54 296.51 795.91 305.09 803.59 312.42 C 809.52 318.45 814.07 325.69 820.15 331.59 C 819.34 337.11 824.04 341.76 826.93 346.08 C 828.22 348.42 831.19 349.26 832.34 351.53 C 836.01 345.14 837.97 337.98 841.53 331.54 C 844.96 325.20 846.49 318.09 849.45 311.55 C 857.32 293.56 862.52 274.48 865.93 255.18 C 868.47 243.28 867.68 231.03 867.67 218.96 C 867.12 209.29 866.13 198.33 858.82 191.16 C 853.05 185.50 844.25 186.00 836.85 186.98 M 518.02 234.21 C 500.02 234.78 481.98 236.37 464.45 240.64 C 438.92 246.06 414.18 257.97 396.16 277.16 C 391.64 281.81 386.49 286.17 383.72 292.17 C 384.72 293.28 386.11 292.94 387.37 292.55 C 403.32 287.76 418.75 281.37 434.86 277.05 C 458.13 269.86 482.14 265.32 506.33 262.54 C 515.44 260.81 524.81 262.17 533.87 260.05 C 535.64 251.60 537.13 243.06 536.72 234.39 C 530.51 233.56 524.24 233.55 518.02 234.21 M 544.28 234.34 C 544.30 242.05 544.43 249.81 545.91 257.40 C 546.23 258.76 546.64 260.21 547.75 261.16 C 553.80 262.06 559.96 261.15 566.04 261.72 C 576.63 262.72 587.21 264.02 597.67 265.97 C 610.00 268.47 622.44 270.60 634.48 274.31 C 645.10 277.51 656.05 279.58 666.49 283.41 C 677.21 286.61 687.37 291.62 698.39 293.81 C 696.93 290.95 695.63 287.97 693.46 285.56 C 686.50 277.52 678.93 269.92 670.25 263.73 C 657.36 254.14 642.50 247.56 627.17 242.97 C 605.94 237.25 583.95 234.65 562.00 234.19 C 556.10 233.61 550.16 233.38 544.28 234.34 M 490.05 288.79 C 481.86 290.12 473.62 291.30 465.60 293.49 C 457.22 295.73 448.59 297.25 440.59 300.73 C 431.41 300.28 422.20 301.56 413.22 303.39 C 403.84 305.84 394.05 306.14 384.73 308.85 C 378.74 310.56 372.50 311.18 366.51 312.85 C 363.03 313.65 361.70 317.30 360.20 320.12 C 357.61 325.77 353.86 330.80 351.56 336.58 C 350.34 339.58 348.97 342.53 347.28 345.30 C 343.96 350.68 342.42 356.88 339.72 362.56 C 337.50 367.91 335.02 373.17 333.11 378.65 C 330.84 386.39 328.65 394.23 327.53 402.24 C 327.54 400.36 327.32 398.50 327.15 396.64 C 322.21 401.42 318.25 407.44 317.13 414.33 C 315.75 423.00 315.24 432.16 318.19 440.58 C 320.14 446.76 323.49 452.39 327.29 457.61 C 329.67 460.80 332.34 463.94 335.78 466.03 C 335.30 465.76 334.34 465.21 333.86 464.94 C 332.93 475.67 333.60 486.72 337.10 496.97 C 339.80 504.16 342.41 511.42 345.90 518.27 C 353.41 530.71 365.14 540.91 379.28 544.94 C 396.92 550.64 416.30 549.15 433.46 542.53 C 436.20 541.81 435.49 538.29 435.06 536.21 C 435.73 538.44 436.26 540.71 436.46 543.04 C 437.26 556.60 435.72 570.20 433.07 583.50 C 432.41 585.95 433.19 588.39 433.38 590.85 C 436.33 588.25 439.08 585.38 441.10 581.98 C 447.04 572.14 454.73 563.11 458.24 551.99 C 460.46 550.02 462.90 548.02 463.87 545.10 C 466.25 538.30 468.28 531.27 468.66 524.04 C 469.26 514.69 470.70 505.39 470.44 496.00 C 470.61 485.01 469.57 474.05 469.41 463.06 C 468.09 452.15 466.93 441.20 464.86 430.40 C 463.25 421.36 463.51 412.15 463.47 403.01 C 463.44 396.65 464.43 390.35 465.45 384.09 C 465.79 385.01 466.14 385.94 466.50 386.88 C 466.54 381.39 468.07 376.07 470.83 371.34 C 472.20 369.28 473.62 367.12 475.85 365.89 C 482.51 362.02 489.79 359.24 497.32 357.63 C 502.32 356.39 507.52 355.99 512.45 354.41 C 514.53 348.30 513.28 341.71 512.80 335.43 C 491.87 335.10 471.68 342.86 453.43 352.50 C 448.87 345.36 445.73 337.46 441.59 330.09 C 446.52 328.50 451.31 326.52 455.71 323.77 C 466.57 319.59 477.95 316.96 489.28 314.42 C 496.43 312.75 503.76 312.28 511.02 311.29 C 513.25 310.84 516.37 310.62 516.94 307.87 C 519.15 301.02 520.39 293.89 521.49 286.79 C 510.96 285.80 500.43 287.13 490.05 288.79 M 559.34 286.71 C 560.58 294.36 562.07 302.07 564.71 309.37 C 568.37 311.32 572.69 311.11 576.70 311.66 C 597.65 314.10 617.95 320.35 637.57 327.90 C 637.99 329.76 638.71 331.73 637.88 333.60 C 635.44 340.37 631.54 346.48 628.62 353.04 C 619.32 346.85 608.63 343.26 598.10 339.80 C 588.54 337.14 578.68 334.91 568.70 335.57 C 567.80 341.69 566.32 348.25 568.75 354.20 C 570.58 355.53 572.93 355.72 575.08 356.18 C 582.67 357.32 590.24 358.91 597.36 361.83 C 602.16 363.80 606.54 366.62 611.01 369.22 C 610.27 369.16 608.77 369.03 608.02 368.96 C 611.29 374.08 614.18 379.55 615.40 385.56 C 619.69 403.53 616.36 422.01 615.07 440.12 C 612.77 458.00 610.20 475.93 610.61 494.00 C 610.31 504.35 611.27 514.67 611.48 525.01 C 611.74 531.77 614.48 538.07 616.73 544.35 C 617.86 546.81 618.77 550.00 621.63 550.96 C 621.92 549.92 622.14 548.87 622.27 547.81 C 622.66 556.66 629.13 563.41 633.09 570.88 C 636.92 578.19 641.57 585.10 647.63 590.76 C 647.97 588.23 648.73 585.68 648.23 583.12 C 645.96 568.79 642.99 554.27 644.97 539.71 C 645.11 545.85 645.42 551.99 645.50 558.14 C 645.32 553.19 645.77 548.26 646.92 543.45 C 653.37 544.48 659.36 547.54 665.96 547.85 C 676.39 548.68 687.01 548.90 697.35 547.04 C 705.49 544.96 712.59 540.16 719.29 535.28 C 725.67 530.67 730.25 524.14 734.52 517.64 C 740.62 508.19 743.19 497.09 746.40 486.46 C 747.82 479.70 748.98 472.67 747.93 465.78 C 747.43 465.79 746.43 465.80 745.93 465.81 C 750.09 462.70 753.61 458.79 756.80 454.70 C 762.55 447.35 764.89 437.99 765.98 428.89 C 766.80 416.90 762.96 404.33 754.25 395.80 C 754.18 397.16 754.16 398.52 754.20 399.89 C 753.52 395.11 752.41 390.38 750.90 385.80 C 747.74 378.36 745.65 370.49 741.90 363.30 C 738.14 356.39 736.39 348.56 732.30 341.81 C 727.49 333.94 724.21 325.26 719.77 317.20 C 717.03 312.20 710.96 311.31 705.86 310.63 C 691.34 308.82 677.39 303.98 662.84 302.41 C 657.33 301.90 651.47 299.38 646.21 302.17 C 638.67 299.14 630.70 297.24 622.95 294.77 C 602.24 289.42 580.83 285.32 559.34 286.71 M 529.30 331.69 C 526.53 354.36 527.72 377.81 535.39 399.47 C 536.45 402.07 537.55 404.96 540.05 406.52 C 542.76 406.96 543.95 403.93 545.12 402.04 C 552.28 386.40 552.65 368.87 553.41 352.00 C 552.92 340.34 552.19 328.62 550.07 317.13 C 547.86 308.73 546.51 299.36 539.93 293.07 C 532.73 304.59 530.60 318.39 529.30 331.69 M 480.88 390.92 C 476.34 395.09 473.27 400.57 471.31 406.37 C 468.05 415.11 466.26 425.45 470.92 434.04 C 475.15 428.57 477.38 421.92 481.42 416.34 C 488.19 407.47 496.77 399.64 507.24 395.46 C 509.96 394.11 513.27 393.37 515.24 390.92 C 516.36 385.81 514.87 380.64 514.13 375.59 C 501.32 374.88 489.31 381.69 480.88 390.92 M 566.98 375.58 C 566.56 380.87 564.27 386.54 566.18 391.68 C 570.62 394.59 576.09 395.50 580.46 398.59 C 593.74 407.45 605.48 420.31 609.02 436.26 C 609.45 436.38 610.33 436.63 610.77 436.75 C 613.03 431.10 614.19 425.06 613.70 418.96 C 613.68 407.82 607.35 397.91 599.87 390.13 C 593.62 383.71 585.25 380.00 577.02 376.83 C 573.84 375.52 570.35 375.66 566.98 375.58 M 512.44 414.55 C 506.33 417.40 500.18 420.53 495.40 425.40 C 486.52 433.83 478.51 444.53 477.56 457.15 C 476.98 466.43 477.45 475.74 477.42 485.04 C 477.28 488.54 478.30 491.92 479.45 495.20 C 481.92 487.26 483.23 479.02 485.87 471.13 C 488.20 462.76 492.53 455.18 496.59 447.57 C 498.00 444.81 500.35 442.76 502.57 440.67 C 503.78 449.44 502.08 458.25 501.70 467.03 C 501.61 474.24 499.63 481.53 501.77 488.62 C 505.60 482.96 507.45 476.35 509.90 470.05 C 514.46 457.92 517.62 445.33 520.37 432.68 C 521.53 426.08 523.03 419.38 522.28 412.64 C 518.86 411.99 515.50 413.15 512.44 414.55 M 559.61 412.86 C 559.53 416.46 559.42 420.09 560.00 423.67 C 562.21 437.32 565.95 450.66 568.96 464.15 C 571.44 473.23 573.87 482.68 579.28 490.52 C 579.53 490.43 580.02 490.24 580.26 490.14 C 581.41 474.54 578.41 458.94 579.63 443.33 C 585.86 448.90 589.65 456.54 592.75 464.17 C 596.01 473.38 597.30 483.18 600.56 492.40 C 600.82 492.44 601.33 492.53 601.59 492.58 C 604.57 483.04 604.88 472.90 604.55 462.99 C 604.22 448.43 596.31 434.90 585.53 425.48 C 578.76 418.25 569.22 414.47 559.61 412.86 M 760.63 486.59 C 760.01 497.55 761.15 508.57 759.70 519.48 C 758.83 527.93 756.49 536.20 753.10 543.97 C 747.08 556.84 736.31 566.95 724.20 574.07 C 713.22 579.22 701.84 583.44 690.45 587.56 C 690.42 588.08 690.37 589.11 690.34 589.63 C 700.53 592.71 711.30 592.97 721.86 592.51 C 736.55 591.66 750.59 584.29 759.89 572.94 C 769.82 560.53 774.58 544.70 775.44 528.99 C 775.75 515.81 772.34 502.62 765.70 491.23 C 764.60 489.10 762.35 488.10 760.63 486.59 M 316.45 491.46 C 307.22 504.45 304.01 521.12 306.15 536.78 C 308.00 551.48 313.50 566.23 324.17 576.83 C 331.30 584.61 341.38 588.71 351.33 591.49 C 364.35 594.10 378.33 594.12 390.74 588.96 C 387.84 587.09 384.84 585.27 381.47 584.35 C 365.77 579.40 349.72 573.02 338.22 560.77 C 326.43 548.69 322.40 531.41 320.83 515.13 C 319.75 506.63 321.29 497.95 319.50 489.54 C 317.97 488.84 317.25 490.51 316.45 491.46 Z" />
<path fill="#ee6f02" opacity="1.00" d=" M 691.48 469.44 C 692.41 467.99 694.22 468.57 695.65 468.60 C 700.65 469.17 705.47 470.66 710.38 471.72 C 710.57 477.93 711.35 484.36 709.29 490.37 C 706.31 500.47 698.25 508.94 688.16 512.09 C 695.22 507.79 702.69 502.95 706.11 495.06 C 709.00 488.36 711.15 480.80 709.76 473.48 C 704.54 470.42 698.26 470.65 692.45 469.81 C 693.19 476.71 694.13 484.25 690.53 490.56 C 686.04 499.11 674.15 503.25 665.66 498.26 C 660.49 494.49 657.96 488.34 654.66 483.06 C 651.38 486.23 647.68 489.70 647.56 494.62 C 646.79 501.86 653.21 507.08 658.99 510.08 C 667.15 514.78 676.98 514.57 686.00 513.12 C 677.99 516.86 668.58 515.82 660.79 512.06 C 655.27 509.44 649.25 506.02 647.22 499.85 C 644.65 492.81 648.97 484.93 655.41 481.76 C 659.56 488.01 662.44 496.46 670.16 499.11 C 679.66 500.91 689.82 493.81 691.66 484.34 C 692.70 479.40 691.22 474.41 691.48 469.44 Z" />
</g>
<g id="#f3dfc6ff">
<path fill="#f3dfc6" opacity="1.00" d=" M 230.42 186.73 C 244.63 184.84 259.29 188.95 271.06 196.98 C 276.05 200.34 281.39 203.18 286.17 206.85 C 302.50 220.07 317.20 235.31 329.79 252.15 C 331.90 255.04 334.44 257.79 335.60 261.25 C 336.12 262.49 335.18 263.52 334.41 264.37 C 331.13 267.82 327.16 270.54 322.68 272.16 C 311.46 256.48 296.30 243.38 278.68 235.39 C 268.06 230.85 256.80 227.60 245.28 226.49 C 241.50 226.05 237.76 227.01 234.24 228.32 C 232.15 232.55 231.13 237.29 231.51 242.01 C 232.09 251.53 233.76 260.94 235.53 270.29 C 240.31 291.39 249.44 311.29 260.77 329.63 C 261.09 330.42 261.39 331.23 261.66 332.05 C 260.45 337.04 257.24 341.27 254.45 345.49 C 253.08 347.76 250.53 348.74 248.52 350.29 C 246.80 346.74 245.04 343.20 243.51 339.56 C 237.29 324.19 230.29 309.14 224.71 293.52 C 218.87 275.51 214.14 256.96 213.21 237.98 C 212.43 231.68 212.35 225.30 213.34 219.02 C 214.42 210.04 215.03 200.25 220.91 192.89 C 223.32 189.91 226.56 187.38 230.42 186.73 Z" />
<path fill="#f3dfc6" opacity="1.00" d=" M 836.85 186.98 C 844.25 186.00 853.05 185.50 858.82 191.16 C 866.13 198.33 867.12 209.29 867.67 218.96 C 867.68 231.03 868.47 243.28 865.93 255.18 C 862.52 274.48 857.32 293.56 849.45 311.55 C 846.49 318.09 844.96 325.20 841.53 331.54 C 837.97 337.98 836.01 345.14 832.34 351.53 C 831.19 349.26 828.22 348.42 826.93 346.08 C 824.04 341.76 819.34 337.11 820.15 331.59 C 825.58 322.03 831.35 312.58 835.35 302.29 C 840.32 288.98 844.72 275.37 847.15 261.34 C 848.66 252.73 850.13 243.91 848.84 235.19 C 848.32 232.30 847.52 228.78 844.53 227.50 C 840.30 225.77 835.58 226.42 831.18 227.00 C 816.24 229.39 801.12 233.71 788.81 242.84 C 777.82 250.53 767.55 259.40 759.68 270.33 C 758.62 272.52 756.18 271.18 754.69 270.31 C 751.18 268.04 747.53 265.55 745.36 261.89 C 746.85 256.53 751.18 252.71 754.08 248.13 C 758.16 241.69 763.95 236.66 768.86 230.89 C 776.04 223.73 782.99 216.29 791.08 210.13 C 804.51 199.45 819.68 189.92 836.85 186.98 Z" />
<path fill="#f3dfc6" opacity="1.00" d=" M 413.22 303.39 C 422.20 301.56 431.41 300.28 440.59 300.73 C 432.84 304.47 425.10 308.31 417.85 312.98 C 401.98 324.06 387.14 337.16 376.64 353.58 C 375.32 355.88 374.35 358.36 373.36 360.81 C 381.22 358.58 388.05 353.99 395.29 350.37 C 404.78 345.49 414.32 340.70 423.93 336.06 C 429.73 333.84 435.76 332.26 441.59 330.09 C 445.73 337.46 448.87 345.36 453.43 352.50 C 441.44 361.46 430.85 372.55 423.78 385.84 C 414.52 401.66 413.33 421.17 417.64 438.72 C 418.57 443.18 421.43 446.83 424.11 450.39 C 424.98 438.09 426.38 425.59 431.10 414.09 C 438.49 395.38 452.52 379.47 469.95 369.47 C 470.17 369.94 470.61 370.87 470.83 371.34 C 468.07 376.07 466.54 381.39 466.50 386.88 C 466.14 385.94 465.79 385.01 465.45 384.09 C 464.43 390.35 463.44 396.65 463.47 403.01 C 463.51 412.15 463.25 421.36 464.86 430.40 C 466.93 441.20 468.09 452.15 469.41 463.06 C 469.57 474.05 470.61 485.01 470.44 496.00 C 470.70 505.39 469.26 514.69 468.66 524.04 C 468.28 531.27 466.25 538.30 463.87 545.10 C 462.90 548.02 460.46 550.02 458.24 551.99 C 459.41 539.14 458.91 525.97 455.41 513.49 C 451.46 500.43 445.15 488.06 436.78 477.29 C 427.21 465.07 412.25 457.65 396.93 456.09 C 383.70 454.73 370.39 456.21 357.14 455.56 C 346.48 454.88 335.54 449.27 330.59 439.50 C 324.52 428.01 326.18 414.63 327.53 402.24 C 328.65 394.23 330.84 386.39 333.11 378.65 C 335.02 373.17 337.50 367.91 339.72 362.56 C 342.42 356.88 343.96 350.68 347.28 345.30 C 348.97 342.53 350.34 339.58 351.56 336.58 C 353.86 330.80 357.61 325.77 360.20 320.12 C 361.70 317.30 363.03 313.65 366.51 312.85 C 372.50 311.18 378.74 310.56 384.73 308.85 C 394.05 306.14 403.84 305.84 413.22 303.39 M 395.87 381.98 C 390.32 391.01 387.34 401.46 386.62 412.00 C 386.57 421.63 390.96 430.79 396.74 438.30 C 398.31 440.60 400.99 441.60 403.31 442.95 C 403.03 440.02 402.72 437.10 402.39 434.18 C 400.66 422.53 401.52 410.72 401.44 398.99 C 401.28 390.24 403.53 381.65 403.33 372.90 C 400.06 375.23 397.69 378.45 395.87 381.98 Z" />
<path fill="#f3dfc6" opacity="1.00" d=" M 646.21 302.17 C 651.47 299.38 657.33 301.90 662.84 302.41 C 677.39 303.98 691.34 308.82 705.86 310.63 C 710.96 311.31 717.03 312.20 719.77 317.20 C 724.21 325.26 727.49 333.94 732.30 341.81 C 736.39 348.56 738.14 356.39 741.90 363.30 C 745.65 370.49 747.74 378.36 750.90 385.80 C 752.41 390.38 753.52 395.11 754.20 399.89 C 755.49 412.92 757.95 427.22 751.38 439.30 C 745.83 449.92 733.63 455.30 722.08 455.69 C 710.05 456.00 698.00 454.92 685.97 455.70 C 671.06 456.60 656.44 463.28 646.34 474.35 C 639.95 480.97 635.49 489.15 631.54 497.39 C 627.15 507.08 623.34 517.26 622.53 527.96 C 622.08 534.56 622.29 541.19 622.27 547.81 C 622.14 548.87 621.92 549.92 621.63 550.96 C 618.77 550.00 617.86 546.81 616.73 544.35 C 614.48 538.07 611.74 531.77 611.48 525.01 C 611.27 514.67 610.31 504.35 610.61 494.00 C 610.20 475.93 612.77 458.00 615.07 440.12 C 616.36 422.01 619.69 403.53 615.40 385.56 C 614.18 379.55 611.29 374.08 608.02 368.96 C 608.77 369.03 610.27 369.16 611.01 369.22 C 619.37 373.71 626.44 380.23 632.94 387.05 C 644.94 399.78 652.43 416.39 655.22 433.57 C 656.23 439.53 656.46 445.58 657.00 451.60 C 662.17 444.76 663.89 436.16 665.26 427.88 C 666.14 417.90 666.24 407.56 662.91 397.99 C 656.78 379.79 644.01 364.28 628.62 353.04 C 631.54 346.48 635.44 340.37 637.88 333.60 C 638.71 331.73 637.99 329.76 637.57 327.90 C 653.69 334.10 669.45 341.24 684.70 349.37 C 692.31 353.13 699.31 358.14 707.33 361.07 C 705.48 355.82 703.06 350.74 699.56 346.40 C 693.56 338.80 686.93 331.69 679.72 325.24 C 669.69 316.00 657.72 309.32 646.21 302.17 M 677.74 374.21 C 677.62 386.16 680.10 398.01 679.53 410.00 C 680.00 421.16 678.86 432.23 677.66 443.30 C 685.35 437.75 691.06 429.39 692.93 420.04 C 694.87 409.44 693.08 398.30 688.26 388.68 C 685.50 383.37 682.58 377.92 677.74 374.21 Z" />
<path fill="#f3dfc6" opacity="1.00" d=" M 333.86 464.94 C 334.34 465.21 335.30 465.76 335.78 466.03 C 341.68 468.91 347.85 471.20 354.21 472.83 C 354.03 486.32 357.96 500.02 366.38 510.69 C 372.33 518.04 380.61 523.16 389.37 526.50 C 402.37 530.71 416.42 528.52 428.91 523.65 C 431.12 527.75 433.72 531.71 435.06 536.21 C 435.49 538.29 436.20 541.81 433.46 542.53 C 416.30 549.15 396.92 550.64 379.28 544.94 C 365.14 540.91 353.41 530.71 345.90 518.27 C 342.41 511.42 339.80 504.16 337.10 496.97 C 333.60 486.72 332.93 475.67 333.86 464.94 Z" />
<path fill="#f3dfc6" opacity="1.00" d=" M 741.90 468.03 C 743.26 467.32 744.58 466.55 745.93 465.81 C 746.43 465.80 747.43 465.79 747.93 465.78 C 748.98 472.67 747.82 479.70 746.40 486.46 C 743.19 497.09 740.62 508.19 734.52 517.64 C 730.25 524.14 725.67 530.67 719.29 535.28 C 712.59 540.16 705.49 544.96 697.35 547.04 C 687.01 548.90 676.39 548.68 665.96 547.85 C 659.36 547.54 653.37 544.48 646.92 543.45 C 646.72 540.88 645.70 538.23 646.73 535.73 C 648.15 531.59 650.73 528.01 652.98 524.31 C 664.69 529.28 677.99 530.62 690.34 527.35 C 704.56 523.08 716.70 512.24 722.52 498.57 C 726.19 490.56 727.33 481.74 728.87 473.15 C 733.39 471.95 737.81 470.34 741.90 468.03 Z" />
<path fill="#f3dfc6" opacity="1.00" d=" M 404.41 470.23 C 409.34 467.08 415.89 472.38 413.88 477.84 C 413.25 482.84 406.75 485.10 402.91 482.07 C 400.49 478.67 400.45 472.53 404.41 470.23 Z" />
<path fill="#f3dfc6" opacity="1.00" d=" M 667.77 473.11 C 669.91 468.71 677.11 468.57 679.11 473.18 C 680.43 476.80 679.40 482.55 674.98 483.37 C 672.74 483.40 670.57 482.82 668.38 482.53 C 667.91 479.44 666.65 476.20 667.77 473.11 Z" />
<path fill="#f3dfc6" opacity="1.00" d=" M 251.04 498.74 C 256.48 501.80 261.31 505.77 266.06 509.79 C 267.55 511.11 269.08 512.50 270.07 514.26 C 270.45 516.09 270.14 517.96 269.93 519.80 C 268.73 524.72 267.47 529.63 266.67 534.64 C 264.78 545.31 265.39 556.20 265.30 566.99 C 265.19 578.54 267.11 590.08 270.87 601.00 C 274.24 612.30 280.36 622.90 289.30 630.69 C 292.18 633.08 295.82 634.23 299.27 635.56 C 298.34 631.47 297.20 627.43 296.23 623.36 C 303.88 626.33 311.27 630.34 319.52 631.40 C 336.61 634.45 354.62 629.53 368.46 619.22 C 370.51 627.82 368.93 636.63 368.20 645.28 C 367.38 652.06 367.04 658.89 366.27 665.67 C 365.96 667.18 365.39 668.62 364.83 670.06 C 360.48 680.14 358.47 691.03 356.37 701.75 C 353.49 716.45 354.40 731.48 354.45 746.36 C 345.75 746.64 337.08 747.59 328.46 748.78 C 319.76 749.95 311.20 752.15 302.41 752.61 C 302.80 752.89 303.19 753.18 303.59 753.48 C 285.49 756.66 268.23 763.44 251.95 771.82 C 247.87 774.20 243.63 776.28 239.40 778.38 C 239.04 768.25 239.54 758.12 239.18 747.99 C 238.43 739.55 238.63 731.07 238.52 722.61 C 219.75 724.79 202.37 732.81 184.55 738.59 C 184.08 720.28 186.29 701.97 189.78 684.01 C 190.93 678.45 192.18 672.90 192.74 667.25 C 182.54 669.24 173.36 674.24 163.68 677.71 C 163.65 674.14 163.79 670.57 164.27 667.03 C 165.73 656.14 166.59 645.12 169.43 634.47 C 171.82 623.40 175.28 612.60 179.23 602.01 C 181.83 594.87 185.69 588.26 188.06 581.03 C 177.68 585.03 169.86 593.24 160.50 598.97 C 159.84 592.13 161.85 585.36 163.43 578.72 C 167.07 563.75 172.67 549.28 179.80 535.64 C 181.90 533.43 184.87 532.27 187.91 532.45 C 196.34 532.46 204.72 533.87 213.16 533.34 C 212.17 545.12 212.09 556.99 212.69 568.80 C 213.92 581.01 215.26 593.26 217.86 605.28 C 219.06 611.05 221.25 616.93 219.99 622.89 C 218.25 631.15 214.73 638.96 213.41 647.32 C 212.89 650.27 213.65 653.24 214.82 655.95 C 222.49 670.61 231.24 684.71 240.80 698.22 C 246.42 706.14 253.04 713.28 259.04 720.91 C 261.10 723.35 263.37 726.47 266.96 726.26 C 291.07 726.42 315.24 725.61 339.31 727.47 C 336.65 714.09 332.48 701.06 330.11 687.62 C 320.43 685.01 310.78 682.05 301.97 677.18 C 287.93 670.44 275.61 659.95 267.33 646.71 C 256.45 629.25 247.92 610.08 244.36 589.72 C 240.46 570.67 240.87 551.02 243.30 531.82 C 245.30 520.66 247.95 509.63 251.04 498.74 Z" />
<path fill="#f3dfc6" opacity="1.00" d=" M 810.88 512.30 C 817.73 508.92 823.08 502.62 830.84 501.25 C 835.17 513.40 836.41 526.35 837.97 539.07 C 839.57 560.25 838.57 581.81 833.12 602.41 C 828.76 617.20 823.31 631.85 814.81 644.80 C 807.27 656.03 797.87 666.25 786.23 673.30 C 775.74 680.08 763.84 684.28 751.70 686.96 C 748.30 700.43 744.77 713.86 741.47 727.35 C 748.29 726.60 755.15 726.54 762.01 726.38 C 778.70 726.23 795.40 726.06 812.10 726.37 C 814.37 726.26 817.06 726.63 818.82 724.84 C 822.62 721.31 825.75 717.13 829.22 713.29 C 843.28 695.80 855.21 676.72 866.09 657.14 C 867.36 654.64 868.57 651.91 868.22 649.05 C 867.39 639.72 862.46 631.33 861.45 622.03 C 860.86 614.59 862.84 607.32 863.71 600.00 C 863.93 601.00 864.15 602.01 864.39 603.03 C 864.62 594.02 866.60 585.19 867.25 576.22 C 868.28 561.98 866.92 547.70 867.93 533.47 C 878.85 533.44 889.75 531.96 900.68 533.05 C 905.71 544.33 911.70 555.31 914.67 567.39 C 914.95 567.14 915.25 566.90 915.56 566.66 C 916.26 570.64 917.01 574.61 917.62 578.61 C 917.89 578.19 918.17 577.76 918.47 577.35 C 918.70 580.15 919.03 582.94 919.34 585.74 C 919.71 585.29 920.08 584.83 920.47 584.39 C 920.43 588.98 921.06 593.53 921.44 598.10 C 911.82 593.74 904.93 584.80 894.61 581.66 C 896.28 589.54 900.26 596.60 902.98 604.12 C 909.76 621.44 913.69 639.74 916.06 658.15 C 917.06 664.39 917.83 670.69 917.45 677.03 C 907.97 673.94 899.10 669.10 889.26 667.14 C 889.82 674.70 891.99 681.99 893.22 689.45 C 895.46 705.77 897.87 722.16 897.38 738.68 C 886.56 736.07 876.50 731.12 865.87 727.88 C 858.28 725.50 850.54 723.66 842.76 722.06 C 842.19 740.75 842.73 759.46 842.49 778.17 C 831.89 773.71 822.24 767.24 811.32 763.54 C 800.06 758.68 788.12 755.81 776.26 752.90 C 759.95 749.31 743.35 746.85 726.65 746.30 C 726.72 735.87 726.96 725.43 726.37 715.01 C 725.21 703.03 723.24 691.06 719.57 679.57 C 718.43 675.71 716.82 672.00 715.97 668.07 C 715.33 654.26 711.75 640.77 711.47 626.94 C 711.57 623.81 712.66 620.82 712.94 617.73 C 725.27 628.64 742.31 634.56 758.74 631.80 C 768.45 630.64 777.08 625.86 785.96 622.13 C 784.44 626.52 782.99 630.93 781.89 635.45 C 785.67 633.98 789.67 632.58 792.55 629.56 C 804.92 617.80 810.23 600.79 813.30 584.47 C 817.25 562.14 815.88 539.16 810.81 517.14 C 810.78 515.52 810.83 513.90 810.88 512.30 Z" />
<path fill="#f3dfc6" opacity="1.00" d=" M 409.79 700.89 C 426.55 692.01 445.50 687.17 464.46 686.62 C 464.45 691.42 463.97 696.20 463.82 701.00 C 464.41 711.00 464.81 721.42 469.40 730.55 C 473.40 738.54 480.70 744.49 488.83 747.96 C 496.78 751.33 504.79 754.66 513.10 757.10 C 515.59 758.03 518.44 758.51 520.51 760.28 C 522.07 763.20 522.86 766.50 524.61 769.34 C 527.00 772.73 530.84 774.63 534.35 776.64 C 534.45 784.10 534.25 791.59 535.21 799.01 C 535.56 801.84 535.09 804.68 534.73 807.49 C 518.84 807.36 504.16 814.25 490.29 821.24 C 477.84 827.98 464.36 833.55 450.04 834.28 C 438.58 834.97 427.15 832.04 416.82 827.21 C 406.42 822.20 398.44 813.51 391.28 804.68 C 389.09 802.09 387.46 799.09 385.71 796.20 C 392.55 796.28 399.19 798.19 405.99 798.74 C 427.58 801.15 450.05 802.21 471.03 795.53 C 470.85 794.23 470.79 792.89 470.30 791.68 C 467.27 790.63 464.08 790.26 460.93 789.78 C 450.14 788.30 439.50 785.91 428.85 783.66 C 410.61 780.13 392.71 775.09 374.81 770.19 C 373.56 769.66 371.94 769.11 371.60 767.63 C 369.95 762.12 369.50 756.33 369.40 750.61 C 384.81 751.45 400.00 754.44 414.91 758.31 C 424.07 760.91 433.06 764.09 442.25 766.63 C 448.16 768.21 453.91 770.57 460.03 771.29 C 462.25 771.58 465.36 770.51 465.53 767.93 C 465.85 765.89 464.27 764.31 462.86 763.12 C 460.19 761.01 457.12 759.51 454.22 757.78 C 430.79 743.74 404.68 735.00 378.49 727.75 C 387.63 717.44 397.44 707.35 409.79 700.89 Z" />
<path fill="#f3dfc6" opacity="1.00" d=" M 617.20 686.68 C 625.88 686.89 634.42 688.46 643.02 689.52 C 641.99 689.85 640.96 690.15 639.93 690.45 C 658.00 691.33 673.85 701.37 687.35 712.65 C 692.67 717.22 697.24 722.55 701.86 727.80 C 695.19 731.16 687.81 732.61 680.80 735.06 C 675.66 736.83 670.58 738.78 665.45 740.57 C 654.43 744.39 644.06 749.78 633.49 754.65 C 628.06 757.27 622.49 759.92 617.91 763.91 C 616.09 765.36 616.34 767.88 615.92 769.94 C 618.63 770.81 621.53 771.37 624.32 770.46 C 638.10 766.79 651.78 762.76 665.47 758.76 C 680.60 754.85 696.03 750.95 711.77 751.34 C 711.76 757.82 710.37 764.16 708.55 770.35 C 701.90 772.08 695.20 773.73 688.38 774.67 C 688.78 774.88 689.19 775.09 689.61 775.32 C 672.20 778.42 655.26 783.72 637.82 786.69 C 628.65 788.35 619.42 789.66 610.25 791.34 C 610.28 792.70 610.32 794.08 610.36 795.46 C 630.88 801.99 652.86 801.34 674.00 798.84 C 681.03 798.20 687.89 796.30 694.97 796.17 C 693.34 797.66 693.37 800.20 691.96 801.92 C 682.98 814.36 671.08 825.32 656.39 830.46 C 649.26 833.17 641.57 833.87 634.00 833.73 C 620.24 834.05 606.67 829.89 594.66 823.36 C 585.21 818.67 576.05 813.08 565.75 810.43 C 559.42 808.70 552.86 807.99 546.34 807.38 C 546.22 797.05 546.25 786.71 546.32 776.38 C 549.85 774.75 553.56 773.13 556.23 770.20 C 558.78 767.41 559.35 763.49 561.32 760.37 C 562.40 759.17 564.08 758.83 565.50 758.21 C 575.43 754.90 585.04 750.71 594.71 746.74 C 606.67 741.96 614.73 729.86 616.29 717.29 C 617.57 707.14 617.21 696.89 617.20 686.68 Z" />
<path fill="#f3dfc6" opacity="1.00" d=" M 321.28 754.24 C 332.53 752.40 343.87 750.39 355.32 750.83 C 355.92 756.40 356.92 761.92 357.72 767.48 C 347.83 768.50 338.24 771.20 328.64 773.67 C 310.21 778.60 292.41 786.51 277.31 798.29 C 272.02 802.14 267.28 806.64 262.46 811.05 C 262.42 808.66 261.33 806.40 261.82 804.00 C 263.11 792.65 263.54 781.23 264.66 769.86 C 275.79 766.11 286.70 761.57 298.20 759.05 C 305.88 757.39 313.48 755.32 321.28 754.24 Z" />
<path fill="#f3dfc6" opacity="1.00" d=" M 726.16 750.72 C 737.29 750.16 748.35 752.08 759.30 753.83 C 777.93 757.13 796.49 761.59 813.85 769.24 C 815.04 769.86 816.48 770.66 816.29 772.25 C 816.78 784.89 819.26 797.38 819.39 810.04 C 815.54 808.29 812.38 805.54 809.42 802.60 C 799.53 794.31 788.26 787.79 776.61 782.30 C 765.59 776.77 753.57 773.81 741.74 770.61 C 735.96 769.03 730.02 768.22 724.10 767.42 C 724.53 761.82 725.42 756.27 726.16 750.72 Z" />
<path fill="#f3dfc6" opacity="1.00" d=" M 715.33 789.93 C 716.75 783.50 720.10 777.72 722.03 771.45 C 737.56 773.23 752.54 777.86 767.35 782.67 C 767.12 782.88 766.90 783.10 766.70 783.32 C 779.74 787.86 792.02 794.58 802.97 803.01 C 808.68 807.66 814.99 811.98 819.26 818.07 C 820.79 825.30 817.52 832.50 813.49 838.35 C 808.08 834.92 804.19 829.77 799.54 825.46 C 791.03 817.05 782.32 808.75 772.51 801.86 C 770.29 818.46 769.00 835.76 761.14 850.89 C 754.02 834.72 744.75 819.34 732.39 806.61 C 727.33 800.41 720.10 796.32 715.33 789.93 Z" />
<path fill="#f3dfc6" opacity="1.00" d=" M 318.46 780.76 C 331.99 777.66 345.26 772.74 359.26 772.23 C 361.30 777.85 364.31 783.13 365.58 789.01 C 366.32 791.20 364.08 792.46 362.78 793.79 C 354.46 800.38 346.57 807.71 340.54 816.51 C 336.74 822.06 332.62 827.41 329.53 833.41 C 326.29 839.15 324.14 845.43 320.85 851.15 C 319.10 850.05 318.51 847.97 317.81 846.17 C 314.78 837.28 312.05 828.24 310.60 818.94 C 309.70 813.23 309.18 807.47 308.20 801.77 C 305.10 804.45 301.82 806.91 298.77 809.66 C 289.00 817.18 280.70 826.36 272.01 835.04 C 270.59 836.12 269.04 837.04 267.70 838.23 C 264.22 832.53 261.00 825.99 261.73 819.14 C 264.27 814.69 268.53 811.59 272.20 808.13 C 279.81 801.17 288.35 795.24 297.62 790.71 C 304.80 787.26 311.80 783.25 319.60 781.33 C 319.22 781.13 318.84 780.94 318.46 780.76 Z" />
<path fill="#f3dfc6" opacity="1.00" d=" M 357.42 804.42 C 360.99 801.20 364.24 797.20 368.88 795.54 C 372.21 799.80 375.11 804.39 378.00 808.96 C 379.25 811.26 380.37 813.63 381.51 816.00 C 371.49 822.56 362.53 830.64 354.74 839.72 C 351.75 843.07 349.97 847.70 345.96 849.99 C 340.16 852.25 333.80 851.97 327.70 852.65 C 327.44 852.01 326.91 850.72 326.65 850.08 C 333.95 833.15 343.88 817.08 357.42 804.42 Z" />
<path fill="#f3dfc6" opacity="1.00" d=" M 709.69 798.76 C 710.61 797.53 711.25 795.53 712.99 795.33 C 716.73 797.30 719.67 800.40 722.75 803.24 C 737.61 816.95 750.22 833.96 755.95 853.54 C 749.63 852.99 743.15 852.75 737.07 850.84 C 731.52 844.75 726.76 837.93 720.67 832.33 C 714.11 825.70 706.12 820.80 699.31 814.46 C 702.84 809.27 706.67 804.28 709.69 798.76 Z" />
<path fill="#f3dfc6" opacity="1.00" d=" M 494.99 830.98 C 509.02 824.44 524.45 820.57 540.00 821.29 C 555.36 820.65 570.77 823.78 584.73 830.18 C 594.56 835.18 604.20 841.02 615.20 843.05 C 628.32 846.68 642.21 846.20 655.47 843.56 C 656.20 859.04 651.96 874.34 645.28 888.19 C 640.90 897.59 635.37 906.64 628.09 914.09 C 620.32 921.10 611.53 927.38 601.44 930.51 C 590.46 934.12 578.96 935.67 567.57 937.26 C 556.77 938.68 545.87 938.63 535.00 938.56 C 519.17 938.67 503.45 936.24 488.00 933.02 C 469.89 928.58 453.36 917.48 443.00 901.90 C 431.83 884.72 425.58 864.18 425.73 843.66 C 436.72 845.49 447.97 846.42 459.07 845.06 C 471.81 842.66 483.35 836.41 494.99 830.98 Z" />
</g>
<g id="#738a9aff">
<path fill="#738a9a" opacity="1.00" d=" M 234.24 228.32 C 237.76 227.01 241.50 226.05 245.28 226.49 C 256.80 227.60 268.06 230.85 278.68 235.39 C 296.30 243.38 311.46 256.48 322.68 272.16 C 314.46 280.15 304.92 286.66 296.99 294.96 C 289.85 303.14 281.82 310.47 274.51 318.50 C 270.35 323.13 266.05 327.63 261.66 332.05 C 261.39 331.23 261.09 330.42 260.77 329.63 C 266.45 324.00 271.67 317.92 277.04 312.00 C 278.75 310.00 280.57 308.00 281.59 305.55 C 282.39 304.07 280.88 302.88 280.17 301.74 C 277.42 297.84 273.04 295.54 270.14 291.78 C 268.56 289.83 267.58 287.50 266.57 285.23 C 262.38 281.66 259.06 276.96 253.99 274.55 C 251.81 271.25 249.83 267.80 247.29 264.77 C 244.13 260.96 239.24 258.82 236.79 254.39 C 234.00 246.02 233.84 237.05 234.24 228.32 Z" />
<path fill="#738a9a" opacity="1.00" d=" M 423.93 336.06 C 433.88 330.40 445.22 328.15 455.71 323.77 C 451.31 326.52 446.52 328.50 441.59 330.09 C 435.76 332.26 429.73 333.84 423.93 336.06 Z" />
<path fill="#738a9a" opacity="1.00" d=" M 727.93 472.06 C 732.62 470.84 737.33 469.66 741.90 468.03 C 737.81 470.34 733.39 471.95 728.87 473.15 C 727.33 481.74 726.19 490.56 722.52 498.57 C 716.70 512.24 704.56 523.08 690.34 527.35 C 677.99 530.62 664.69 529.28 652.98 524.31 C 650.73 528.01 648.15 531.59 646.73 535.73 C 645.70 538.23 646.72 540.88 646.92 543.45 C 645.77 548.26 645.32 553.19 645.50 558.14 C 645.42 551.99 645.11 545.85 644.97 539.71 C 645.52 533.45 649.16 528.16 652.41 522.99 C 660.94 526.04 669.82 529.10 679.03 528.28 C 696.84 527.41 713.18 515.66 720.78 499.71 C 725.13 491.12 726.53 481.47 727.93 472.06 Z" />
<path fill="#738a9a" opacity="1.00" d=" M 213.16 533.34 C 213.65 527.16 214.73 521.06 215.84 514.97 C 213.99 527.23 214.17 539.64 213.73 552.00 C 213.66 572.29 215.46 592.69 220.57 612.37 C 224.76 627.39 211.33 640.89 214.82 655.95 C 213.65 653.24 212.89 650.27 213.41 647.32 C 214.73 638.96 218.25 631.15 219.99 622.89 C 221.25 616.93 219.06 611.05 217.86 605.28 C 215.26 593.26 213.92 581.01 212.69 568.80 C 212.09 556.99 212.17 545.12 213.16 533.34 Z" />
<path fill="#738a9a" opacity="1.00" d=" M 367.43 724.48 C 371.12 725.55 374.79 726.69 378.49 727.75 C 404.68 735.00 430.79 743.74 454.22 757.78 C 448.13 755.99 442.76 752.56 437.08 749.85 C 423.26 743.44 409.05 737.82 394.42 733.52 C 385.82 730.99 377.28 728.19 368.46 726.51 C 368.21 726.00 367.69 724.99 367.43 724.48 Z" />
<path fill="#738a9a" opacity="1.00" d=" M 378.00 808.96 C 383.94 815.98 389.45 823.46 396.50 829.45 C 400.26 832.48 404.96 834.16 408.47 837.52 C 411.53 840.27 410.23 844.76 410.44 848.37 C 389.30 849.00 367.86 846.59 347.00 851.08 C 339.77 852.72 332.39 853.63 324.98 853.73 C 325.53 852.50 326.09 851.29 326.65 850.08 C 326.91 850.72 327.44 852.01 327.70 852.65 C 333.80 851.97 340.16 852.25 345.96 849.99 C 349.97 847.70 351.75 843.07 354.74 839.72 C 362.53 830.64 371.49 822.56 381.51 816.00 C 380.37 813.63 379.25 811.26 378.00 808.96 Z" />
<path fill="#738a9a" opacity="1.00" d=" M 692.48 822.45 C 695.12 820.11 697.30 817.33 699.31 814.46 C 706.12 820.80 714.11 825.70 720.67 832.33 C 726.76 837.93 731.52 844.75 737.07 850.84 C 729.97 850.34 722.94 849.14 715.84 848.61 C 701.46 847.85 687.06 848.42 672.68 848.59 C 668.79 849.04 669.50 844.53 669.60 841.97 C 669.46 838.77 672.65 837.36 674.88 835.84 C 681.30 832.15 686.94 827.31 692.48 822.45 Z" />
</g>
<g id="#a1a2a4ff">
<path fill="#a1a2a4" opacity="1.00" d=" M 831.18 227.00 C 835.58 226.42 840.30 225.77 844.53 227.50 C 847.52 228.78 848.32 232.30 848.84 235.19 C 850.13 243.91 848.66 252.73 847.15 261.34 C 844.72 275.37 840.32 288.98 835.35 302.29 C 831.35 312.58 825.58 322.03 820.15 331.59 C 814.07 325.69 809.52 318.45 803.59 312.42 C 795.91 305.09 789.54 296.51 781.42 289.62 C 775.07 282.19 766.59 277.16 759.68 270.33 C 767.55 259.40 777.82 250.53 788.81 242.84 C 801.12 233.71 816.24 229.39 831.18 227.00 Z" />
<path fill="#a1a2a4" opacity="1.00" d=" M 231.51 242.01 C 231.13 237.29 232.15 232.55 234.24 228.32 C 233.84 237.05 234.00 246.02 236.79 254.39 C 239.24 258.82 244.13 260.96 247.29 264.77 C 249.83 267.80 251.81 271.25 253.99 274.55 C 259.06 276.96 262.38 281.66 266.57 285.23 C 267.58 287.50 268.56 289.83 270.14 291.78 C 273.04 295.54 277.42 297.84 280.17 301.74 C 280.88 302.88 282.39 304.07 281.59 305.55 C 280.57 308.00 278.75 310.00 277.04 312.00 C 271.67 317.92 266.45 324.00 260.77 329.63 C 249.44 311.29 240.31 291.39 235.53 270.29 C 233.76 260.94 232.09 251.53 231.51 242.01 Z" />
<path fill="#a1a2a4" opacity="1.00" d=" M 809.50 512.11 C 816.13 507.32 822.81 502.59 829.85 498.40 C 830.17 499.34 830.51 500.29 830.84 501.25 C 823.08 502.62 817.73 508.92 810.88 512.30 C 810.83 513.90 810.78 515.52 810.81 517.14 C 810.41 515.44 809.97 513.77 809.50 512.11 Z" />
</g>
<g id="#f6c507ff">
<path fill="#f6c507" opacity="1.00" d=" M 376.41 470.50 C 380.84 469.99 385.27 469.51 389.73 469.25 C 388.66 475.89 387.18 483.15 390.51 489.41 C 394.77 498.48 407.44 502.70 415.86 496.80 C 420.38 492.90 422.36 487.00 425.03 481.84 C 427.30 483.94 430.14 485.50 431.54 488.41 C 434.48 492.80 435.68 499.49 431.60 503.58 C 426.67 508.29 420.95 512.83 414.04 514.01 C 406.84 515.48 399.54 513.90 392.45 512.61 C 392.76 512.31 393.08 512.02 393.40 511.73 C 390.44 510.94 387.26 510.26 384.95 508.09 C 381.14 504.63 377.14 501.02 375.02 496.23 C 371.83 488.62 370.77 480.23 371.74 472.06 C 373.68 471.89 375.62 471.62 377.57 471.50 C 377.18 471.16 376.79 470.83 376.41 470.50 Z" />
<path fill="#f6c507" opacity="1.00" d=" M 692.45 469.81 C 698.26 470.65 704.54 470.42 709.76 473.48 C 711.15 480.80 709.00 488.36 706.11 495.06 C 702.69 502.95 695.22 507.79 688.16 512.09 C 687.62 512.35 686.54 512.86 686.00 513.12 C 676.98 514.57 667.15 514.78 658.99 510.08 C 653.21 507.08 646.79 501.86 647.56 494.62 C 647.68 489.70 651.38 486.23 654.66 483.06 C 657.96 488.34 660.49 494.49 665.66 498.26 C 674.15 503.25 686.04 499.11 690.53 490.56 C 694.13 484.25 693.19 476.71 692.45 469.81 Z" />
<path fill="#f6c507" opacity="1.00" d=" M 710.22 622.87 C 709.97 620.50 711.04 618.35 712.55 616.62 L 712.94 617.73 C 712.66 620.82 711.57 623.81 711.47 626.94 C 711.75 640.77 715.33 654.26 715.97 668.07 C 715.47 666.96 714.87 665.92 714.50 664.79 C 713.60 650.76 710.43 636.95 710.22 622.87 Z" />
</g>
</svg>
