<?xml version="1.0" encoding="UTF-8"?>
<!DOCTYPE svg PUBLIC "-//W3C//DTD SVG 1.1//EN" "http://www.w3.org/Graphics/SVG/1.1/DTD/svg11.dtd">
<!-- Creator: CorelDRAW -->
<svg xmlns="http://www.w3.org/2000/svg" xml:space="preserve" width="2098px" height="1870px" version="1.1" shape-rendering="geometricPrecision" text-rendering="geometricPrecision" image-rendering="optimizeQuality" fill-rule="evenodd" clip-rule="evenodd"
viewBox="0 0 2096.32 1869.26"
 xmlns:xlink="http://www.w3.org/1999/xlink"
 xmlns:xodm="http://www.corel.com/coreldraw/odm/2003">
 <g id="Camada_x0020_1">
  <metadata id="CorelCorpID_0Corel-Layer"/>
  <g id="_2579495119168">
   <path fill="white" d="M167.5 934.86c-3.94,14.51 -30.26,59.79 -30.76,58.74 -0.17,-0.36 -0.76,0.89 -1.2,1.28l-27.3 46.8c12.5,0.74 27.39,-2.75 34.05,6.01 8.54,11.24 -0.03,22.86 -4.72,30.33 -17.37,27.66 -79.65,135.93 -82.45,156.63 45.71,-9.12 82.07,-25.81 55.65,42.48 -8.24,21.3 -24.37,48.38 -38.6,65.62 -7.45,9.02 -12.46,11.9 -15.52,22.6 49.86,7.54 103.52,-21.72 85.64,28.26 -13.1,36.61 -20.67,60.54 -19.56,105.83 11.98,-3.68 27.33,-19.54 43.96,-25.4 22.62,-7.97 28.24,12.97 35.09,28.77 14.02,32.29 25.01,63.42 31.53,103.1 13.21,-4.15 31.22,-21.8 45.31,-26.46 23.16,-7.66 31.47,21.38 38.59,36.05 28.02,57.73 31.72,98.85 38.72,113.95 18.89,-3.84 42.7,-30.93 50.86,-45.6 15.16,-27.26 24.26,-40.45 49.21,-3.25 20.36,30.35 66.41,91.58 86.68,105.01 8.6,1.89 55.78,-21.17 71.12,-33.5 5.82,-4.68 13.54,-14.72 20.72,-16.21 27.61,-5.76 74.13,38.94 88.4,50.4l17.54 -37.73c-46.63,-23.14 -67.87,-35.75 -94.37,-69.01 -24.31,-30.5 -41.64,-69.42 -48.56,-116.69 -27.26,-186.2 115.09,-307.31 210.95,-441.33 23.21,-32.44 46.65,-66.41 60.65,-104.5 14.59,-39.69 17.73,-98.29 -7.24,-132.67 -2.68,1.26 -53.22,71.79 -143.98,28.46 -22.98,-10.97 -40.39,-26.82 -52.28,-45.27 -6.44,-10 -11.91,-22.87 -14.34,-35.72 -4,-21.16 0.74,-26.01 2.16,-43.45 -45.11,-2.23 -73.9,-4.77 -104.91,-25.33 -81.67,-54.16 -45.02,-183.26 -32.96,-192.77 5.27,-4.16 36.71,-10.12 25.07,29.08 -5.58,18.76 -8.33,39.28 -7.7,60.92 3.09,106.3 107.98,88.01 167.86,95.5 78.55,9.81 139.79,41.26 176.89,88.39 115.16,146.28 -53.54,315.93 -146.59,434.44 -32.92,41.92 -35.91,151.73 14.66,203.5 17.4,17.81 54.36,40.68 87.94,44.5 1.53,-48.71 -5.71,-111.61 63.67,-140.58 28.32,-11.82 55.17,-12.29 87.51,-3.72 20.91,5.54 59.57,22.76 79.04,24.4 20.48,1.72 57.73,-16.21 78.91,-22.7 54.01,-16.53 117.99,-6.38 143.01,48.65 14.58,32.06 10.43,56.7 7.63,92.79 28.57,-1.25 64.8,-24.06 80.7,-38.04 50,-43.99 51.67,-121 34.86,-182.33 -5.47,-19.96 -35.02,-52.89 -48.9,-70.35 -30.26,-38.08 -72.12,-90.46 -100.26,-134.34 -28.9,-45.07 -62.63,-109.06 -46.82,-182.49 19.92,-92.51 107.65,-146.15 191.81,-159.37 36.05,-5.66 76.48,-3.44 109.75,-9.76 74.05,-14.06 92.37,-71.54 70.43,-149.04 -4.79,-16.91 -2.46,-38.97 20.38,-31.75 12.81,4.06 15.99,27.49 18.66,40.1 8.53,40.35 5.6,67.39 -5.28,103.48 -2.58,8.1 -6.96,11.28 -10.45,17.52 -1.48,2.65 -3.19,7.02 -4.29,8.76 -4.67,7.37 -0.18,2.97 -7.98,7.31 -3.38,11.7 -35.07,27.43 -49.97,32.48 -22.8,7.73 -48.62,9.89 -75.13,10.4 -0.44,17.45 4.42,27.98 0.15,47.41 -7.88,35.87 -34.01,61.32 -65.75,77.18 -34.53,17.26 -81.41,18.88 -116.12,-2.33 -11.3,-6.91 -16.26,-16.17 -25.65,-22.74 -0.42,0.38 -1,0.46 -1.16,1.24 -0.17,0.77 -0.91,0.96 -1.13,1.26l-5.47 10.2c-16.48,42.16 -12.91,84.64 3.45,124.88 12.72,31.27 41.91,74.85 63.42,103.77 115.19,154.81 236.16,252.93 201.66,454.29 -14.43,84.21 -84.43,152.27 -163.27,173.4 2.29,10.32 7.21,22.27 13.25,28.72 10.19,-6.05 21.89,-20.19 38.94,-30.86 8.82,-5.52 36.44,-21.66 49.26,-18.62 7.55,1.79 19.76,17.96 40.54,28.99 12.13,6.43 35.57,18.02 51.5,20.8 8.75,-1.87 48.92,-54.51 59.02,-67.35 9.86,-12.55 11.99,-7.86 17.9,-23.96 4.31,-9.25 11.22,-14.14 16.99,-23.8 7,-11.73 10.72,-12.35 27.62,-11.05 4.6,2.16 10.58,21.84 16.11,29.14 7.32,9.66 3.72,0.07 8.22,11.41 12.04,6.91 18.55,21.22 38.72,29.75 2.35,-2.6 1.15,-0.61 3.19,-4.65 0.31,-0.63 1.09,-2.6 1.33,-3.28 0.06,-0.2 1.31,-6.22 1.45,-6.95 6.36,-32.37 19.02,-68.42 33.45,-96.91 6.4,-12.63 15.69,-41.6 34.26,-39.97 14.45,1.28 32.35,22.02 51.18,26.07 5.64,-33.35 17.53,-72.17 32.05,-102.78 7.8,-16.43 11.88,-36.01 36,-26.47 19.36,7.67 31.84,21.76 42.38,24.72 2.02,-44.43 -7.58,-71.79 -20.24,-107.5 -16.43,-46.36 34.32,-21.84 87.1,-26.36 -0.57,-2.71 -88.01,-110.05 -58.5,-136.01 11.52,-10.13 40.54,1.72 57.52,3.22 -5.31,-29.33 -61,-122.04 -81.74,-155.94 -25.77,-42.11 20.44,-34.7 29.83,-34.97 -3.2,-8.22 -16.81,-24.06 -17.13,-31.69l-6.06 -7.32c-1.66,-2.46 -1.67,-3 -3.14,-5.24l-41.42 -77.07c-2.39,-15.17 6.74,-15.04 6.78,-15.06 7.75,-9.21 49.61,9.4 73.4,-4.3 -7.93,-23.7 -69.86,-91.78 -89.92,-110.98 -8.82,-8.45 -15.41,-14.52 -25.98,-23.92 -14.29,-12.7 -41.06,-25.9 -28.53,-43.01 8.3,-11.35 44.69,-1.93 68.1,-1.37 -6.51,-16.02 -64.32,-65.82 -76,-75.56 -28.85,-24.06 -61.84,-45.39 -83.57,-63.55 -1.53,-17.65 1.8,-17.84 11.12,-26.89 6.47,-6.29 13.03,-10.11 16.56,-19.54 -5.29,-7.7 -16.66,-15 -23.43,-21.37 -7.17,-6.74 -13.48,-13.06 -20.27,-21.1 -15.15,-17.94 -28.41,-43.48 -36.5,-47.07 -4.78,9.03 -40.23,69.05 -47.04,72.36 -10.89,5.31 -21.45,-2.67 -21.88,-13.28 -0.44,-11.09 21.56,-41.34 28.26,-52.13 45.33,-72.91 102.84,-203.26 96.06,-297.5 -7.17,-99.65 -100.67,-134.77 -185.44,-80.74 -37.23,23.73 -54.44,49.71 -80.88,77.69 -5.75,6.07 -76.87,79.69 -95.68,45.21 -6.54,-17.01 5.43,-20.54 18.49,-24.45 26.6,-7.96 53.59,-40.99 71.46,-61.27 14.5,-16.46 27,-31.07 44.12,-44.95 19.02,-15.42 48.07,-29.61 50.81,-34.32 -127.52,-12.57 -171.98,82.9 -236.26,105.37 -26.86,9.38 -48.24,1.27 -75.13,-3.22 -54.37,-9.08 -102.56,-14.45 -158.87,-8.85 -28.68,2.85 -40.6,16.01 -68.11,8.56 -68.11,-18.44 -163.39,-10.84 -235.58,0.5 -34.84,5.47 -36.48,10.14 -70.52,-2.58 -60.57,-22.65 -67.5,-41.15 -105.47,-66.34 -36.05,-23.91 -82.84,-37.84 -134.79,-33.79 4.8,7.71 18.58,11.92 27.27,17.51 53.08,34.12 72.62,75.49 113.31,108.26 28.02,22.57 55.72,16.34 44.7,39.4 -18.74,34.4 -89.97,-38.41 -96.89,-45.76 -27.77,-29.51 -43.48,-54.81 -81.23,-77.36 -85.42,-51.02 -176.52,-20.55 -183.93,81.14 -5.48,75.28 39,193.91 67.34,248.27 9.64,18.48 57.58,90.69 57.2,101.38 -0.39,10.84 -10.98,17.98 -21.86,13.15 -11.53,-5.12 -29.72,-53.18 -47.76,-69.98 -7.32,4.77 -14.31,18.88 -18.75,24.97 -5.84,8 -12.19,15.68 -18.45,22.91 -6.62,7.65 -13.26,13.85 -20.83,20.43 -6.56,5.71 -16.88,12.21 -22.43,18.95 8.4,18.02 49.94,32.2 16.76,55.81 -29.34,20.89 -144.04,108.38 -148.49,130.27 17.27,-0.37 59.96,-15.5 70.29,3.8 4.69,14.21 -4.98,19.01 -13.5,26.05 -36.24,29.94 -124.76,115.79 -132.1,149.77 59.21,10.94 50.62,-4.1 71.18,0.62 4.24,9.05 2.59,24.06 -0.34,32.05z"/>
   <path fill="#343434" d="M167.5 934.86c2.93,-7.99 4.58,-23 0.34,-32.05 -20.56,-4.72 -11.97,10.32 -71.18,-0.62 7.34,-33.98 95.86,-119.83 132.1,-149.77 8.52,-7.04 18.19,-11.84 13.5,-26.05 -10.33,-19.3 -53.02,-4.17 -70.29,-3.8 4.45,-21.89 119.15,-109.38 148.49,-130.27 33.18,-23.61 -8.36,-37.79 -16.76,-55.81 5.55,-6.74 15.87,-13.24 22.43,-18.95 7.57,-6.58 14.21,-12.78 20.83,-20.43 6.26,-7.23 12.61,-14.91 18.45,-22.91 4.44,-6.09 11.43,-20.2 18.75,-24.97 18.04,16.8 36.23,64.86 47.76,69.98 10.88,4.83 21.47,-2.31 21.86,-13.15 0.38,-10.69 -47.56,-82.9 -57.2,-101.38 -28.34,-54.36 -72.82,-172.99 -67.34,-248.27 7.41,-101.69 98.51,-132.16 183.93,-81.14 37.75,22.55 53.46,47.85 81.23,77.36 6.92,7.35 78.15,80.16 96.89,45.76 11.02,-23.06 -16.68,-16.83 -44.7,-39.4 -40.69,-32.77 -60.23,-74.14 -113.31,-108.26 -8.69,-5.59 -22.47,-9.8 -27.27,-17.51 51.95,-4.05 98.74,9.88 134.79,33.79 37.97,25.19 44.9,43.69 105.47,66.34 34.04,12.72 35.68,8.05 70.52,2.58 72.19,-11.34 167.47,-18.94 235.58,-0.5 27.51,7.45 39.43,-5.71 68.11,-8.56 56.31,-5.6 104.5,-0.23 158.87,8.85 26.89,4.49 48.27,12.6 75.13,3.22 64.28,-22.47 108.74,-117.94 236.26,-105.37 -2.74,4.71 -31.79,18.9 -50.81,34.32 -17.12,13.88 -29.62,28.49 -44.12,44.95 -17.87,20.28 -44.86,53.31 -71.46,61.27 -13.06,3.91 -25.03,7.44 -18.49,24.45 18.81,34.48 89.93,-39.14 95.68,-45.21 26.44,-27.98 43.65,-53.96 80.88,-77.69 84.77,-54.03 178.27,-18.91 185.44,80.74 6.78,94.24 -50.73,224.59 -96.06,297.5 -6.7,10.79 -28.7,41.04 -28.26,52.13 0.43,10.61 10.99,18.59 21.88,13.28 6.81,-3.31 42.26,-63.33 47.04,-72.36 8.09,3.59 21.35,29.13 36.5,47.07 6.79,8.04 13.1,14.36 20.27,21.1 6.77,6.37 18.14,13.67 23.43,21.37 -3.53,9.43 -10.09,13.25 -16.56,19.54 -9.32,9.05 -12.65,9.24 -11.12,26.89 21.73,18.16 54.72,39.49 83.57,63.55 11.68,9.74 69.49,59.54 76,75.56 -23.41,-0.56 -59.8,-9.98 -68.1,1.37 -12.53,17.11 14.24,30.31 28.53,43.01 10.57,9.4 17.16,15.47 25.98,23.92 20.06,19.2 81.99,87.28 89.92,110.98 -23.79,13.7 -65.65,-4.91 -73.4,4.3 -0.04,0.02 -9.17,-0.11 -6.78,15.06l41.42 77.07c1.47,2.24 1.48,2.78 3.14,5.24l6.06 7.32c0.32,7.63 13.93,23.47 17.13,31.69 -9.39,0.27 -55.6,-7.14 -29.83,34.97 20.74,33.9 76.43,126.61 81.74,155.94 -16.98,-1.5 -46,-13.35 -57.52,-3.22 -29.51,25.96 57.93,133.3 58.5,136.01 -52.78,4.52 -103.53,-20 -87.1,26.36 12.66,35.71 22.26,63.07 20.24,107.5 -10.54,-2.96 -23.02,-17.05 -42.38,-24.72 -24.12,-9.54 -28.2,10.04 -36,26.47 -14.52,30.61 -26.41,69.43 -32.05,102.78 -18.83,-4.05 -36.73,-24.79 -51.18,-26.07 -18.57,-1.63 -27.86,27.34 -34.26,39.97 -14.43,28.49 -27.09,64.54 -33.45,96.91 -0.14,0.73 -1.39,6.75 -1.45,6.95 -0.24,0.68 -1.02,2.65 -1.33,3.28 -2.04,4.04 -0.84,2.05 -3.19,4.65 -20.17,-8.53 -26.68,-22.84 -38.72,-29.75 -4.5,-11.34 -0.9,-1.75 -8.22,-11.41 -5.53,-7.3 -11.51,-26.98 -16.11,-29.14 -16.9,-1.3 -20.62,-0.68 -27.62,11.05 -5.77,9.66 -12.68,14.55 -16.99,23.8 -5.91,16.1 -8.04,11.41 -17.9,23.96 -10.1,12.84 -50.27,65.48 -59.02,67.35 -15.93,-2.78 -39.37,-14.37 -51.5,-20.8 -20.78,-11.03 -32.99,-27.2 -40.54,-28.99 -12.82,-3.04 -40.44,13.1 -49.26,18.62 -17.05,10.67 -28.75,24.81 -38.94,30.86 -6.04,-6.45 -10.96,-18.4 -13.25,-28.72 78.84,-21.13 148.84,-89.19 163.27,-173.4 34.5,-201.36 -86.47,-299.48 -201.66,-454.29 -21.51,-28.92 -50.7,-72.5 -63.42,-103.77 -16.36,-40.24 -19.93,-82.72 -3.45,-124.88l5.47 -10.2c0.22,-0.3 0.96,-0.49 1.13,-1.26 0.16,-0.78 0.74,-0.86 1.16,-1.24 9.39,6.57 14.35,15.83 25.65,22.74 34.71,21.21 81.59,19.59 116.12,2.33 31.74,-15.86 57.87,-41.31 65.75,-77.18 4.27,-19.43 -0.59,-29.96 -0.15,-47.41 26.51,-0.51 52.33,-2.67 75.13,-10.4 14.9,-5.05 46.59,-20.78 49.97,-32.48 7.8,-4.34 3.31,0.06 7.98,-7.31 1.1,-1.74 2.81,-6.11 4.29,-8.76 3.49,-6.24 7.87,-9.42 10.45,-17.52 10.88,-36.09 13.81,-63.13 5.28,-103.48 -2.67,-12.61 -5.85,-36.04 -18.66,-40.1 -22.84,-7.22 -25.17,14.84 -20.38,31.75 21.94,77.5 3.62,134.98 -70.43,149.04 -33.27,6.32 -73.7,4.1 -109.75,9.76 -84.16,13.22 -171.89,66.86 -191.81,159.37 -15.81,73.43 17.92,137.42 46.82,182.49 28.14,43.88 70,96.26 100.26,134.34 13.88,17.46 43.43,50.39 48.9,70.35 16.81,61.33 15.14,138.34 -34.86,182.33 -15.9,13.98 -52.13,36.79 -80.7,38.04 2.8,-36.09 6.95,-60.73 -7.63,-92.79 -25.02,-55.03 -89,-65.18 -143.01,-48.65 -21.18,6.49 -58.43,24.42 -78.91,22.7 -19.47,-1.64 -58.13,-18.86 -79.04,-24.4 -32.34,-8.57 -59.19,-8.1 -87.51,3.72 -69.38,28.97 -62.14,91.87 -63.67,140.58 -33.58,-3.82 -70.54,-26.69 -87.94,-44.5 -50.57,-51.77 -47.58,-161.58 -14.66,-203.5 93.05,-118.51 261.75,-288.16 146.59,-434.44 -37.1,-47.13 -98.34,-78.58 -176.89,-88.39 -59.88,-7.49 -164.77,10.8 -167.86,-95.5 -0.63,-21.64 2.12,-42.16 7.7,-60.92 11.64,-39.2 -19.8,-33.24 -25.07,-29.08 -12.06,9.51 -48.71,138.61 32.96,192.77 31.01,20.56 59.8,23.1 104.91,25.33 -1.42,17.44 -6.16,22.29 -2.16,43.45 2.43,12.85 7.9,25.72 14.34,35.72 11.89,18.45 29.3,34.3 52.28,45.27 90.76,43.33 141.3,-27.2 143.98,-28.46 24.97,34.38 21.83,92.98 7.24,132.67 -14,38.09 -37.44,72.06 -60.65,104.5 -95.86,134.02 -238.21,255.13 -210.95,441.33 6.92,47.27 24.25,86.19 48.56,116.69 26.5,33.26 47.74,45.87 94.37,69.01l-17.54 37.73c-14.27,-11.46 -60.79,-56.16 -88.4,-50.4 -7.18,1.49 -14.9,11.53 -20.72,16.21 -15.34,12.33 -62.52,35.39 -71.12,33.5 -20.27,-13.43 -66.32,-74.66 -86.68,-105.01 -24.95,-37.2 -34.05,-24.01 -49.21,3.25 -8.16,14.67 -31.97,41.76 -50.86,45.6 -7,-15.1 -10.7,-56.22 -38.72,-113.95 -7.12,-14.67 -15.43,-43.71 -38.59,-36.05 -14.09,4.66 -32.1,22.31 -45.31,26.46 -6.52,-39.68 -17.51,-70.81 -31.53,-103.1 -6.85,-15.8 -12.47,-36.74 -35.09,-28.77 -16.63,5.86 -31.98,21.72 -43.96,25.4 -1.11,-45.29 6.46,-69.22 19.56,-105.83 17.88,-49.98 -35.78,-20.72 -85.64,-28.26 3.06,-10.7 8.07,-13.58 15.52,-22.6 14.23,-17.24 30.36,-44.32 38.6,-65.62 26.42,-68.29 -9.94,-51.6 -55.65,-42.48 2.8,-20.7 65.08,-128.97 82.45,-156.63 4.69,-7.47 13.26,-19.09 4.72,-30.33 -6.66,-8.76 -21.55,-5.27 -34.05,-6.01l27.3 -46.8c0.44,-0.39 1.03,-1.64 1.2,-1.28 0.5,1.05 26.82,-44.23 30.76,-58.74zm1518.51 798.19c6.46,10.19 31.39,26.14 46.16,33.06 30.08,14.1 40.74,14.58 44.04,-22.22 3.17,-35.34 24.74,-101.14 41.15,-123.79 28.35,10.18 51.2,40.48 70.22,31.26 10.09,-4.9 8.18,-16.94 9.18,-27.68 2.56,-27.63 19.4,-95.04 33.52,-110.06 30,14.43 61.32,75.84 75.27,12.35 4.55,-20.71 5.2,-44.89 2.6,-66.42 -2.43,-20.13 -10.98,-42.17 -12.56,-58.19 27.71,-0.49 44.19,1.37 70.74,-5.52 81.5,-21.17 -26.8,-54.63 -46.78,-129.66 44.61,3.67 113.11,50.47 14.14,-129.48 -8.23,-14.95 -27.1,-43.69 -31.95,-57.87 16.98,0.58 41.04,6.73 41.17,-14.64 0.06,-9.34 -32.97,-53.13 -43.43,-71.34 -7.03,-12.22 -13.87,-25.75 -21.01,-36.25l-4.91 -7.49c-2.75,-5.36 -1.85,-2.57 -3.54,-9.86 4.65,0.09 9.29,0.39 13.93,-0.01l12.17 -3.55c20.45,-0.04 55.72,-7.86 44.34,-33.56 -22.79,-51.43 -111.94,-139.43 -114.8,-144.88 13.99,-0.02 37.88,9.46 47.25,7.04 19.32,-4.99 10.17,-25.51 2.86,-34.41 -16.99,-20.69 -32.57,-40.63 -50.75,-57.84 -17.42,-16.48 -37.19,-35.7 -57.22,-51.37l-60.64 -47.26c5.68,-15.94 53.49,-37.98 17.81,-57.7 -22.36,-12.35 -38.73,-26.02 -54.96,-46.94 -7.6,-9.81 -13.31,-18.25 -20.42,-29.47 -26.7,-42.12 -9.28,-27.77 17.6,-107.04 24.55,-72.39 55.03,-178.87 11.83,-250.28 -11.19,-18.48 -31.81,-39.72 -52.53,-49.67 -38.56,-18.52 -119.31,-35.46 -169.27,-31.45 -120.29,9.66 -147.37,73.96 -201.79,101.89 -29.95,15.37 -51.64,3.47 -84.49,-1.6 -56.55,-8.72 -129.38,-15.71 -185.25,-1.03 -33.18,8.72 -37.95,-1.51 -86.18,-5.76 -63.64,-5.6 -128.65,-0.38 -191.37,10.42 -31.45,5.42 -43.82,4.73 -79.63,-14.73 -47.29,-25.7 -58.18,-54.33 -124.53,-77.47 -55.52,-19.37 -121.09,-14.48 -177.3,1.86 -52.39,15.23 -91.45,25.67 -117.27,84.84 -24.04,55.11 -10.31,119.43 3.35,176.38 7.78,32.42 24.84,82.18 39.09,112.78 7.05,15.15 15.65,21.22 7.87,34.61 -20.51,35.3 -38.69,59.56 -70.06,81.87 -11,7.82 -23.42,10.83 -29.77,22.89 -1.5,20.18 21.28,31.33 29.68,43.42 -3.56,6.66 -51.2,41.65 -60.54,48.98 -36.13,28.36 -79.53,73.23 -108.77,110.59 -8.51,10.88 -14.91,30.7 5.66,33.72 9.37,1.37 32.73,-7.35 46.96,-8.05 -3.33,7.06 -33.99,35.26 -42.59,45.15 -14.23,16.37 -26.49,32.11 -40.72,50.49 -5.64,7.29 -32.59,46.22 -34.74,54.65 -6.85,26.79 44.13,29.67 56.12,29.45 7.13,-0.13 13.98,3.18 14.51,10.13l-1.93 3.19 -44.08 72.72c-8.46,13.23 -41.43,46.41 -15.83,56.59 8.78,3.49 21.46,-0.09 31.67,0.03 -5.24,15.51 -85.83,143.17 -83.11,180.76 2.08,28.58 46.89,7.64 65.13,6.75 -9.17,32.1 -45.96,72.36 -64.44,88.83 -49.56,44.16 57.86,46.23 88.6,46.24 -0.87,9.96 -6.21,24.31 -8.65,35.83 -2.71,12.72 -4.66,26.01 -5.41,39.53 -1.52,27.44 2.9,60.57 16.54,75.71 17.27,9.38 43.84,-30.21 63.06,-39.05 14.18,14.71 30.13,81.24 32.96,108.65 1.63,15.87 1.89,44.87 34.76,24.46 10.15,-6.3 35.76,-23.61 45.2,-26.4 12.59,16.5 33.04,75.09 38.08,100.66 6.32,32.07 -8.29,81.68 67.69,33.25 31.87,-20.31 39.23,-39.6 48.4,-43.99 28.84,35.82 34.09,47.33 69.83,87.69 19.93,22.52 28.91,27.76 50.72,21.05 21.84,-6.72 38.19,-13.13 56.64,-23.73 37.2,-21.36 26.86,-27.97 47.49,-15.33 19.1,11.7 31.87,22.23 43.99,36.33 7.17,8.35 28.58,42.23 43.67,5.69 7.71,-18.66 14.91,-36.04 24.25,-55.52 6.28,2.16 7.79,10.99 20.66,24.23 9.17,9.44 13.99,14.04 25.83,21.97 18.98,12.7 40.62,23.01 64.41,31.21 110.37,38.06 296.36,36.59 396.42,-24.62 12.83,-7.85 31.24,-20.65 39.86,-31.83 2.02,-2.62 2.49,-3.56 4.6,-6.29l6.3 -6.9c17.42,21.44 20.06,78.23 49.57,60.67 8.23,-4.9 17.56,-30.27 60.22,-54.91 27.16,-15.68 13.98,8.5 100.83,37.91 30.29,10.26 36.13,-2.76 51.23,-18.32 10.37,-10.68 65.94,-73 68.23,-86.17l6.59 -2.9 20.57 22.72z"/>
   <path fill="white" d="M855.38 1734.95c40.33,0 76.51,-7.52 111.36,-20.83 8.58,-3.28 78.48,-36.03 83.2,-48.44l-0.12 -58.63c-11.32,-6.84 -16.33,-5.82 -25.31,-14.94 -10.18,-10.33 -7.61,-13.14 -14.95,-24.21 -45.94,-5.73 -67.32,-5.06 -88.52,-37.4 -19.7,-30.05 -18.29,-63.58 -35.26,-91.98 -30.49,18.1 -12.21,101.12 -12.74,112.1 -1.01,21.05 -24.13,14.81 -40.28,11.58 -32.01,-6.42 -61.28,-18.4 -85.04,-34.21 -63.31,-42.13 -70.87,-94.65 -75.1,-161.64 -8.62,8.8 -20.99,38.79 -25.78,51.66 -54.71,147.06 10.34,316.94 208.54,316.94z"/>
   <path fill="white" d="M1248.42 1438.34c-18.96,21.1 -12.14,53.91 -35.39,91.97 -19.62,32.13 -44.64,38.16 -90.74,40.03 -4.7,9.67 -8.02,16.47 -14,22.51 -8.52,8.59 -14.12,7.18 -23.85,14.2 -0.7,7.9 -1.51,52.36 0.09,57.87 1.91,6.56 24.13,21.08 31.96,26.29 23.37,15.53 53,28.16 84.12,35.38 70.06,16.26 143.32,8.29 198.39,-23.23 88.17,-50.46 113.77,-154.39 90,-254.17 -5.06,-21.25 -24.86,-73.03 -35.76,-82.81 -1.15,45.18 -4.9,76.45 -26.48,110.66 -28.09,44.53 -69.68,69.99 -121.79,82.58 -79.18,19.12 -44.91,-12.65 -42.79,-65.42 0.78,-19.3 -1.51,-42.83 -13.76,-55.86z"/>
   <path fill="#343434" d="M316.84 1166.18c-12.98,-24.17 -28.05,-163.65 -28.8,-199.73 -5.23,-22.55 -56.02,-24.72 -71.28,88.39 -11.44,84.84 -11.59,213.36 78.96,249.86 5.74,2.31 33.95,10.15 35.96,11.8 4.21,3.45 10.94,26.77 14.44,33.19 38.26,70.04 165.81,102.7 232.4,41.33 6.26,-5.77 19.82,-14.81 18.2,-29.07 -3.91,-34.26 -96.06,11.69 -168.09,-73 -48.07,-56.52 11.12,-126.05 -40.13,-144.4 -32.09,-11.5 -49.41,15.72 -71.66,21.63z"/>
   <path fill="#343434" d="M1871.13 983.82l0.05 3.59c-15.71,-0.1 -2.14,-1.83 -11.89,1.95 -4.82,1.88 -16.39,135.38 -28.23,177.19 -21.24,-4.58 -38.67,-31.75 -69.31,-23.37 -27.81,7.61 -27.32,33.71 -24.41,64.27 3.44,36.24 0.83,54.67 -16.58,77.14 -13.5,17.42 -28.82,32.79 -51.93,43.81 -52.07,24.84 -101.64,12.22 -114.45,24.32 -22.83,21.56 47,92.15 152.44,63.29 49.37,-13.51 87.32,-40.16 101.58,-84.99 10.04,-31.57 14.88,-7.38 59.03,-34.31 70.83,-43.19 68.67,-138.23 64.63,-217.42 -1.69,-32.94 -15.91,-126.67 -59.47,-126.68l-1.46 31.21z"/>
   <path fill="#343434" d="M508.09 972.85l60.85 32.63c22.55,10.22 50.32,19.09 80.25,16.12 29.53,-2.92 46.69,-18.04 57.88,-36.16 31.29,-50.66 -14.45,-25.57 -89.84,-80.5 -40.28,-29.35 -56.38,-72.75 -108.66,-82.96 -28.98,-5.65 -55.94,3.89 -75.79,17.2 -62,41.6 -84.35,128.9 -42.06,196.7 10.78,17.28 28.53,40.32 43.66,51.9 42.23,32.31 100.34,40.21 133.23,-3 36.75,-48.28 -45.87,-74.76 -59.52,-111.93z"/>
   <path fill="#343434" d="M1046.47 389.18c8.23,2.78 15.78,11.27 26.59,16.36 19.93,9.37 93.24,33.42 99.35,6.66 5.7,-25 -26.09,-19.52 -58.47,-27.66 -23.68,-5.96 -48.26,-14.84 -50.64,-39.74 44.94,-19.12 80.1,-29.21 129.19,4.41 70.46,48.24 142.37,15.33 179.91,81.33 -20.23,-3.47 -63.6,-27.05 -69.03,-1.86 -3.41,15.82 9.31,19.52 21.05,23.04 12.34,3.7 24.55,7.42 36.73,11.31 16.11,5.14 61.96,28.58 66.67,3.05 4.06,-22.06 -44.11,-84.89 -81.86,-103.21 -45.53,-22.1 -74.67,-2.17 -141.1,-45.59 -40.93,-26.75 -91.45,-29.31 -136.89,-11.29 -34.48,13.67 -9.47,11.16 -49.87,-3.95 -75.56,-28.25 -120.18,23.7 -159.62,37.61 -18.25,6.44 -40.46,7.99 -60.52,11.7 -62.74,11.62 -88.16,48.02 -115.07,95.24 -14.11,24.75 -0.4,37 25.67,28.06 40.49,-13.9 122.88,-40.21 166.24,-45.21 65.38,-7.53 117.28,6.7 171.67,-40.26z"/>
   <path fill="#343434" d="M829.26 606.43c6.82,-13.87 25.83,-26.3 44.34,-34.48 18.09,-7.99 38.32,-11.9 56.86,-21.27 16.67,-8.42 32.63,-22.36 50.8,-27.16 23.22,-6.13 44.69,7.59 48.26,26 -8.2,13.94 -27.61,19.69 -46.75,24.86 -39.33,10.63 -12.74,59.48 56.03,12.94 16.33,-11.06 10.81,2.06 47.14,14.17 36.07,12.01 81.03,12.56 119.68,23.31 23.82,6.62 94.54,32.66 112.81,31.04 14.34,-16.65 8.08,-21.71 -2.76,-38.93 -53.87,-85.53 -91.55,-72.84 -138.84,-97.75 -24.05,-12.66 -49.26,-36.91 -88.32,-29.61 -22.56,4.22 -26.13,12.09 -39.87,21.74 -11.02,-3.93 -29.09,-31.25 -72.5,-21.14 -26.48,6.18 -41.86,21.1 -63.43,31.77 -46.59,23.04 -69.3,9.65 -119.31,74.2 -8.85,11.42 -41.41,51.88 -13.58,59.72 11.04,3.11 61.35,-17.53 75.73,-21.62 16.79,-4.78 71.1,-11.88 51.72,-38.75 -10.38,-14.39 -62,8.49 -78.01,10.96z"/>
   <path fill="#343434" d="M1639.87 972.36c-14.89,35.73 -88.3,60.41 -65.68,104.83 22.08,43.39 84.6,46.44 128.26,17.58 10.92,-7.22 74.61,-61.86 43.5,-76.49 -26.5,-12.47 -25.77,33.43 -76.21,56.56 -25.3,11.6 -60.08,6.55 -65.88,-15.01 15.56,-22.91 41.83,-33.96 58.78,-59.2 17,-25.31 21.53,-78.56 -22.13,-65.98 -13.84,3.99 -27.21,13.32 -38.83,20.31 -24.78,14.91 -54.43,30.45 -83.88,33.43 -18.01,1.82 -38.83,-2.3 -45.22,-15.19 51.54,-23.69 65.81,-26.32 109.49,-70.49 24.78,-25.06 54.66,-74.84 115.85,-33.99 44.86,29.96 35.5,74.36 57.01,77.55 43.69,6.47 5.94,-94.15 -68.48,-120.64 -24.2,-8.61 -52.55,-5.93 -74.42,5.04 -47.72,23.93 -60.93,85.65 -160.71,112.92 -47.3,12.92 -2.41,80.12 59.89,78.67 61.04,-1.42 115.4,-47.95 128.66,-49.9z"/>
   <path fill="white" d="M817.1 1766.65c12.55,23.4 67.69,43.24 99.92,52.33 110.78,31.25 288.17,22.38 372.08,-50.31 -45.77,-5.18 -68.74,2.73 -127.21,-18.56 -62.51,-22.76 -84.03,-48.09 -95.87,-52.74 -20.86,9.98 -46.08,37.07 -105.3,54.24 -53.1,15.39 -84.83,17.83 -143.62,15.04z"/>
   <path fill="white" d="M673.57 976.14c-6.23,-9.28 -44.68,-15.98 -95.6,-60.18 -29.75,-25.82 -47.88,-66.99 -93.79,-61.92 -64.31,7.1 -121.94,112.69 -42.44,193.81 56.6,57.74 100.01,24.28 100.58,13.96 0.75,-13.82 -61.05,-44.7 -69.51,-85.81 -5.22,-25.33 3.23,-48.34 32.45,-41.71 20.08,4.56 63.32,39.9 105.89,50.71 31.79,8.08 38.96,5.3 62.42,-8.86z"/>
   <path fill="white" d="M539.05 1377.9c-21.49,-1.04 -52.71,-9.75 -71.3,-17.18 -34.6,-13.81 -79.55,-57.18 -88.93,-96.2 -8.74,-36.34 0.39,-54.01 -0.71,-88.32 -30.53,-1.39 -76.74,66.44 -97.85,-12.34 -5.55,-20.73 -8.45,-44.89 -11.87,-66.69 -2.61,-16.68 -4.86,-58.14 -10.18,-70.92 -14.95,14.82 -12.6,131.54 -8.8,157.32 7.68,52.19 28.96,82.26 74.23,95.16 33.92,9.66 33.98,5.59 45.52,39.33 8.24,24.09 17.94,35.77 37.26,47.47 29.39,17.79 98.83,39.29 132.63,12.37z"/>
   <path fill="white" d="M1768.93 1176.43c-5.25,38.93 23.27,80.76 -33.01,142.89 -30.76,33.95 -65.63,48.95 -128.28,58.78 41.41,23.44 97.55,8.77 132.94,-12.87 19.84,-12.13 28.99,-23.96 37.64,-49.14 11.67,-34 14.72,-28.34 48.74,-38.48 46.36,-13.83 62.52,-46.05 70.97,-100.34 6.34,-40.77 2.8,-122.01 -9.93,-157.97 -4.89,44.94 -10,100.28 -20.83,142.15 -21.79,84.23 -70.71,11.37 -98.24,14.98z"/>
   <path fill="white" d="M917.74 1424.64c8.08,25.44 75.95,30.83 111.78,97.26 5.71,10.59 14.53,44.24 20.34,47.18 1.69,-19.69 -7.08,-60.15 16.22,-61.19 29.89,-1.32 10.91,43.24 19.48,59.64 6.32,-7.46 7.26,-18.41 10.4,-28.04 18.45,-56.64 66.79,-75.1 105.13,-99.14 30.46,-19.1 5.35,-31.96 -24.34,-28.62 -46.06,5.18 -80.81,39.84 -132.9,26.03 -30.08,-7.98 -104.46,-46.21 -126.11,-13.12z"/>
   <path fill="white" d="M733.5 430.39c39.49,-6.34 95.87,-33.81 154.39,-35.68 47.71,-1.52 139.12,0.47 141.24,-49.31 -16.57,-15.98 -54.99,-21.43 -80.79,-13.71 -26.63,7.96 -42.83,25.12 -68.54,35.99 -41.01,17.32 -122.14,9.06 -146.3,62.71z"/>
   <path fill="white" d="M836.31 848.49c-13.05,-8.48 -33.28,-28.68 -55.13,-34.28 -4.69,18.69 -4.9,37.61 -27.86,35.44 -20.77,-12.67 -5.67,-26.66 -4,-48.23 -10.57,-5.42 -43.42,-11.59 -56.81,-10.78 -27.75,38.14 16.08,80.07 41.2,91.2 48.12,21.32 101.4,3.91 102.6,-33.35z"/>
   <path fill="white" d="M1377.57 800.45c-1.78,16.12 15.55,41.41 -3.98,48.36 -23.95,8.53 -22.86,-21.11 -29.62,-34.36 -19.19,4.42 -45.63,28.9 -56.96,36.21 5.84,64.58 144.62,48.12 151.22,-29.62 1.51,-17.81 -2.37,-19.32 -6.74,-31 -18.71,0.96 -36.72,6.03 -53.92,10.41z"/>
   <path fill="white" d="M1265.97 606.6c-14.94,-30.06 -64.91,-40.76 -90.76,-51.13 -28.19,-11.33 -67.68,-52.5 -98.83,-23.82 -38.18,35.16 50.44,44.83 72.47,47.79 21.28,2.85 40.18,6.49 60.57,11.3 18.25,4.3 39.53,13.5 56.55,15.86z"/>
   <path fill="white" d="M1134.14 1536.72c36.31,0.63 58.95,-22.93 61.99,-55.06 -23.01,10.52 -51.6,35.6 -61.99,55.06z"/>
   <path fill="white" d="M996.95 1533.27c-6.95,-16.12 -39.2,-44.19 -59.95,-50.66 5.18,33.92 23.99,48.6 59.95,50.66z"/>
  </g>
 </g>
</svg>
