<?xml version="1.0" encoding="UTF-8"?>
<!DOCTYPE svg PUBLIC "-//W3C//DTD SVG 1.1//EN" "http://www.w3.org/Graphics/SVG/1.1/DTD/svg11.dtd">
<!-- Creator: CorelDRAW -->
<svg xmlns="http://www.w3.org/2000/svg" xml:space="preserve" width="500px" height="622px" version="1.1" shape-rendering="geometricPrecision" text-rendering="geometricPrecision" image-rendering="optimizeQuality" fill-rule="evenodd" clip-rule="evenodd"
viewBox="0 0 499.56 621.48"
 xmlns:xlink="http://www.w3.org/1999/xlink"
 xmlns:xodm="http://www.corel.com/coreldraw/odm/2003">
 <g id="Camada_x0020_1">
  <metadata id="CorelCorpID_0Corel-Layer"/>
  <rect fill="white" width="499.56" height="621.48"/>
  <path fill="#628D23" fill-rule="nonzero" d="M159.08 229.49c2.16,-2.98 6.38,-2.03 9.33,-0.98 -1.1,2.76 -2.71,5.77 -1.54,8.79 1.01,2.97 3.1,6.49 6.69,6.4 3.26,0.37 6.28,-1.66 7.95,-4.34 1.17,-1.91 1.86,-4.07 2.71,-6.14 3.28,2.45 5.85,6.39 5.47,10.62 -0.7,3.56 -3.02,6.79 -6,8.82 -3.58,1.89 -7.88,3.18 -11.89,1.97 -5.22,-1.43 -10.46,-4.27 -13.15,-9.16 -2.54,-4.94 -2,-11.12 0.43,-15.98z"/>
  <path fill="#628D23" fill-rule="nonzero" d="M342.43 229.04c2.45,-0.56 4.95,-1.84 7.51,-1.33 4.02,2.39 4.53,7.76 4.08,11.99 -0.21,4.17 -3.7,6.98 -6.67,9.42 -3.79,3.12 -8.96,3.39 -13.65,3.44 -4.76,0.17 -9.21,-2.84 -11.56,-6.84 -1.19,-1.91 -0.5,-4.21 0.38,-6.07 1.15,-2.65 3.08,-4.84 5.1,-6.85 1.46,2.31 2.21,4.97 3.63,7.29 3.56,3.1 10.27,1.37 11.42,-3.41 0.41,-2.54 -0.07,-5.11 -0.24,-7.64z"/>
  <g id="_2579482042944">
   <g id="__x0023_391b12ff">
    <g>
     <path fill="black" fill-rule="nonzero" d="M77.94 9.57c3.96,0.71 7.69,2.23 11.49,3.51 7.77,2.67 15.57,5.29 23.35,7.95 8.51,3.27 14.87,10.13 20.61,16.96 2.66,3.38 4.96,7.05 7.96,10.16 3.27,3.46 6.15,7.28 9.69,10.47 -2.45,-5.86 -5.54,-11.45 -8.99,-16.78 -0.89,-1.37 -1.53,-2.88 -2.1,-4.4 1.84,-0.05 3.66,0.35 5.29,1.21 8.61,4.16 16.99,8.81 24.92,14.16 1.94,1.26 3.6,2.94 5.67,4.02 1.29,0.27 2.6,-0.28 3.86,-0.53 4.74,-1.33 9.68,-1.62 14.47,-2.73 6.35,-1.34 12.92,-1.57 19.17,-3.38 -4.55,-3.04 -9.96,-4.39 -15.14,-5.93 -3.91,-1.29 -8,-0.14 -12,-0.31 1.93,-2.72 5.2,-3.89 8.29,-4.75 5.67,-1.3 11.52,-2.11 17.35,-1.67 2.87,0.37 5.64,1.29 8.54,1.49 -2.03,-2.07 -4.29,-3.9 -6.15,-6.13 5.79,-0.8 11.46,0.94 17.13,1.76 4.23,0.62 8.44,1.44 12.44,3.02 3.48,1.09 6.98,3.22 10.76,2.27 7.86,-1.63 15.74,-3.19 23.62,-4.76 5.43,-1.15 11.18,0.01 16.46,-1.97 1.52,-0.58 3.1,-1.06 4.74,-0.92 -2.39,2.16 -5.13,3.87 -7.61,5.92 7.47,-0.07 14.96,0.36 22.4,-0.45 -0.07,1.31 -0.28,2.61 -0.35,3.92 8.06,3.48 16.83,4.59 25.32,6.53 3.31,0.69 6.66,2.34 10.09,1.38 4.08,-1 8.38,-1.69 12,-3.97 5.62,-3.52 10.49,-8.06 15.35,-12.53 4.16,-3.7 9.66,-5.17 14.43,-7.88 8.32,-4.46 17.47,-7.31 26.87,-8.2 3.41,-0.22 7.13,-1.73 10.3,0.21 -4.79,2.53 -9.97,4.22 -14.81,6.65 -8.43,4.22 -17.32,8.17 -23.87,15.16 -2.52,2.97 -4.94,6.05 -7.03,9.33 7.35,-3.56 13.13,-9.77 20.65,-12.97 -0.5,1.43 -1.12,2.85 -2.17,3.98 -4.45,5.07 -9.28,9.91 -12.8,15.71 -2.66,4.41 -4.21,9.34 -6.02,14.11 -2.07,5.37 -3.05,11.18 -2.65,16.93 4.06,-3.65 6.49,-8.77 10.83,-12.13 3.15,-2.54 6.13,-5.33 9.61,-7.42 -0.46,6.73 -4.44,12.54 -5.19,19.21 -0.41,4.22 -0.91,8.43 -1.5,12.63 3.1,-2.94 4.74,-7.18 8.31,-9.67 2.37,-1.68 4.71,-3.43 7.12,-5.07 0.62,2.64 -1.3,4.81 -1.94,7.23 -0.72,2.9 -0.73,5.92 -0.63,8.89 2.54,-1.99 4.85,-4.24 7.33,-6.32 0.73,2.71 0.71,5.51 0.71,8.29 -0.05,3.45 1.55,6.69 3.48,9.46 0.59,0.7 1.17,1.86 2.29,1.43 3.27,-3.61 4.92,-8.4 8.26,-11.97 5.59,-5.87 11.75,-11.55 15.13,-19.06 2.34,-4.89 2.9,-10.38 3.02,-15.73 0.53,-0.15 1.57,-0.43 2.09,-0.58 -0.13,3.6 -0.75,7.15 -0.87,10.75 3.23,-4.94 3.84,-11.12 2.54,-16.78 -0.88,-3.19 -2.92,-5.94 -3.59,-9.21 1.56,1.06 2.94,2.32 4.31,3.61 -0.16,-1.59 -0.34,-3.18 -0.48,-4.78 0.37,0.05 1.12,0.16 1.49,0.21 2.51,7.69 1.65,15.86 0.44,23.7 -0.87,3.35 -2.73,6.32 -4.23,9.41 -3.3,6.7 -10.52,11.11 -11.97,18.77 -1.37,9.8 3.36,19.61 10.75,25.92 -0.04,0.52 -0.13,1.56 -0.16,2.08 -8.3,-5.07 -15.22,-12.52 -19.25,-21.41 -0.34,-0.03 -1.01,-0.07 -1.34,-0.1 -1.12,2.38 -1.94,4.95 -3.5,7.08 -1.7,1.52 -4.07,1.86 -6.18,2.48 -2.37,-5.11 -3.75,-10.64 -6.58,-15.52 -1.37,2.52 -2.2,5.31 -3.69,7.77 -1.34,0.19 -1.4,-1.31 -1.75,-2.22 -1.25,-4.64 -0.48,-9.48 -0.84,-14.21 -4.44,3.13 -6.75,8.31 -10.92,11.73 -2.35,-4.85 -1.18,-10.28 -1.49,-15.44 -0.39,-3.65 1.65,-6.92 1.72,-10.53 -5.22,5.31 -9.56,11.71 -15.97,15.72 -0.46,-6.36 -0.46,-12.79 0.67,-19.09 0.5,-6 3.15,-11.49 5.55,-16.92 1.82,-4.08 4.58,-7.59 7.11,-11.24 -4.9,1.9 -8.3,6.27 -13.19,8.2 1.04,-4.44 3.37,-8.41 4.69,-12.76 1.56,-5.2 5.86,-8.82 8.45,-13.46 -4.09,1.69 -7.74,4.3 -11.04,7.22 -6.04,5.44 -10.09,12.63 -15.49,18.64 -3.93,3.97 -8.04,7.8 -12.46,11.23 -3.37,2.93 -7.37,5.9 -12.03,5.76 1.35,-2.05 3.56,-3.22 5.39,-4.79 0.34,-0.75 -0.11,-1.48 -0.48,-2.12 -2.99,-4.85 -7.42,-8.74 -12.54,-11.23 -7.24,-3.91 -15.66,-4.78 -22.94,-8.58 -0.08,-1.31 -0.15,-2.64 -0.2,-3.96 -2.22,-0.31 -4.41,-0.74 -6.64,-0.94 -3.52,-0.32 -6.94,0.86 -10.45,0.83 -2.12,-0.01 -4.19,-0.55 -6.24,-1.07 0.64,-1.11 1.19,-2.25 1.83,-3.34 -3.49,0.89 -6.99,1.8 -10.6,2.07 -7.21,0.65 -14.07,3.19 -21.23,4.2 -4.06,0.53 -7.85,-1.27 -11.76,-1.98 -3.71,-0.79 -7.6,-0.77 -11.21,-2.04 -2.77,-0.96 -5.63,-1.67 -8.56,-1.88 2.28,2.02 5.2,3.19 7.39,5.33 -0.21,2.21 -3.42,1.12 -4.94,1.8 2.77,1.72 5.69,3.2 8.34,5.12 2.3,1.67 4.86,3.04 7.69,3.6 -2.07,-3.97 -6.15,-6.15 -9.32,-9.12 0.28,-0.72 0.53,-1.46 0.76,-2.2 8.38,0.85 15.83,6.04 20.1,13.22 6.33,-6.2 15.2,-8.21 23.39,-10.7 2.93,-0.89 6.02,-1.03 9.05,-0.87 -1.15,2.31 -2.82,4.28 -4.53,6.19 4.65,0.68 9.31,1.29 14.02,1.28 2.97,0.11 5.97,-0.23 8.92,0.25 1.97,0.57 3.42,2.16 4.83,3.57 -2.93,0.07 -5.81,-0.45 -8.68,-0.95 -7.3,-1.5 -14.88,-0.18 -22.07,-2.36 -0.31,-0.97 -0.61,-1.94 -0.91,-2.92 -5.74,0.36 -11.13,2.46 -16.46,4.42 -3.72,1.32 -4.8,5.57 -7.63,7.97 -0.65,-0.94 -1.28,-1.89 -1.91,-2.84 -0.8,0.77 -1.49,1.65 -2.42,2.26 -0.98,0.14 -1.98,0.09 -2.97,0.1 4.25,4.1 4.78,10.23 7.28,15.31 1.52,-2.52 3.06,-5.1 5.41,-6.94 3.77,-3.09 7.8,-5.94 12.21,-8.04 1.42,-0.88 3.01,-0.19 4.47,0.18 -1.45,2.46 -3.8,4.15 -5.93,5.98 3.6,-1.34 7.37,-2.09 11.16,-2.64 -2.31,4.42 -8.19,5.55 -9.97,10.41 7.92,-1.83 15.22,-5.66 23.12,-7.56 0.13,0.49 0.38,1.48 0.51,1.97 -1.86,1.45 -3.62,3.06 -4.85,5.09 7.75,0.38 15.5,-0.91 23.25,-0.79 1.55,0.27 2.77,1.41 3.98,2.34 -0.54,1.33 -2.14,1.71 -3.2,2.53 5.42,1.42 11.02,0.34 16.52,0.71 -0.01,0.39 -0.04,1.18 -0.06,1.57 -3.01,0.45 -6.02,1.37 -9.1,0.91 -5.18,-0.71 -10.44,-0.57 -15.6,-1.54 0.03,-0.33 0.09,-0.99 0.11,-1.33 1.3,-0.4 2.58,-0.81 3.87,-1.27 -3.31,-1.4 -6.93,-0.78 -10.4,-0.72 -4.16,0.05 -8.31,0.77 -12.46,0.17 -7.22,-0.98 -14.55,1.35 -21.7,-0.5 1.55,-1.54 3.07,-3.12 4.33,-4.91 -4.18,1.44 -7.53,4.65 -11.9,5.55 -2.44,0.17 -2.77,2.97 -3.59,4.77 -0.96,-0.32 -2.31,-0.22 -2.66,-1.39 -1.47,-3.38 -2.3,-7.14 -4.82,-9.96 0.49,5.36 3.28,10.18 3.7,15.56 -1.66,-0.64 -3.36,-1.2 -4.88,-2.11 -1.04,-2.04 -1.28,-4.38 -2.29,-6.43 -1.78,-3.77 -5.01,-6.6 -8.37,-8.94 2.08,4.35 5.1,8.47 5.34,13.46 -4.64,-1.6 -6.75,-6.66 -11.13,-8.74 0.99,1.94 2.46,3.69 3.07,5.82 0.25,1.95 0.09,3.93 -0.03,5.89 -2.27,-2.09 -4.11,-4.64 -6.69,-6.38 -2.12,-1.43 -4.34,-2.7 -6.61,-3.88 -3.92,-2.01 -8.41,-2.31 -12.73,-2.45 3.88,2.73 7.74,5.61 12.26,7.19 -0.27,0.82 -0.58,1.64 -0.76,2.48 1.57,2.44 4.13,4.03 6.39,5.78 4.63,3.48 10,5.78 14.98,8.67 2.6,1.46 4.78,3.59 7.52,4.83 2.85,-1.95 5,-4.96 8.38,-6.12 7.95,-2.52 16.06,-4.65 24.42,-5.25 4.75,-0.18 9.47,-1.73 14.24,-0.81 -1.74,3.46 -5.99,4.03 -8.7,6.48 8.46,-0.79 16.82,-2.87 25.34,-2.89 -1.57,1.43 -3.34,2.62 -5.13,3.77 3.04,-0.47 6.14,-0.7 9.2,-0.24 8.96,1.14 17.94,2.03 26.88,3.32 -0.01,0.43 -0.03,1.3 -0.03,1.74 -1.29,0.44 -2.57,0.98 -3.93,1.13 -3.19,0.04 -6.29,-1.84 -9.46,-0.75 -4.45,1.34 -8.97,2.47 -13.28,4.21 7.37,1.31 15.14,2.29 21.57,6.46 3.27,2.11 7,3.63 9.67,6.56 -0.94,0.42 -1.85,0.91 -2.84,1.16 -2.28,-1.67 -4.21,-3.87 -6.92,-4.85 -6.9,-2.73 -14.3,-3.82 -21.42,-5.81 -2.13,-0.62 -3.98,-1.9 -5.79,-3.14 3.55,-3.65 8.92,-3.91 12.94,-6.72 -6.54,-0.06 -12.97,1.61 -19.21,3.43 -3.6,1.22 -8.17,3.29 -11.41,0.2 0.33,-1.33 2.09,-2.89 0.83,-4.15 -7.28,1.11 -14.02,4.22 -20.98,6.44 -1.53,0.49 -3.12,0.66 -4.71,0.79 -0.24,-4.45 4.46,-6.15 7.17,-8.77 -8.87,2.79 -18.02,5.07 -26.01,10.02 -3.3,-1.33 -6.76,-3.19 -10.45,-2.44 -2.78,0.48 -5.56,1.04 -8.4,0.88 -5.61,-0.27 -11.15,0.8 -16.72,1.32 -4.21,0.39 -8.44,0.8 -12.51,2.03 -6.34,1.86 -12.96,2.55 -19.55,2.84 -2.9,0.14 -5.82,-0.03 -8.69,-0.56 -0.02,-1.28 -0.06,-2.56 -0.09,-3.84 4.02,-1.07 8.19,-0.28 12.29,-0.3 4.78,0.23 9.48,-0.9 14.25,-1.02 5.88,-0.46 12.18,0.05 17.55,-2.85 -4.29,-0.68 -8.63,-0.07 -12.93,-0.43 -3.15,-0.46 -6.02,-1.96 -8.85,-3.33 0,-0.8 0,-1.6 -0.03,-2.39 2.98,0.81 5.99,2.36 9.15,1.64 6.87,-1.26 13.87,-0.1 20.78,-0.77 -2.35,-1.19 -4.9,-1.83 -7.46,-2.38 -3.51,-0.77 -6.76,-2.28 -9.99,-3.81 0.01,-0.79 -0.01,-1.59 -0.05,-2.38 2.9,-0.39 5.81,-0.12 8.71,0.07 0.03,-2.76 0.02,-5.53 -0.07,-8.29 -6.87,-1.96 -13.91,-3.32 -20.84,-5.08 -2.96,-0.85 -6.02,-0.37 -8.99,0.1 4.48,2.95 10.06,3.93 14.1,7.56 -2.77,1.56 -5.96,0.71 -8.94,0.5 -4.15,-0.33 -8.34,-0.83 -12.49,-0.2 -4.69,0.72 -9.41,1.28 -14.16,1.49 -1.42,0.13 -2.81,-0.28 -4.1,-0.82 4.58,-1.88 9.52,-2.63 14.39,-3.29 4.35,-0.65 8.78,-0.17 13.14,-0.75 -2.71,-2.03 -5.87,-3.36 -8.54,-5.44 5.94,-2.87 12.72,-2.96 19.19,-2.85 -0.31,-1.25 -0.62,-2.5 -0.92,-3.74 5.9,-0.21 11.93,-0.46 17.68,1.14 4.27,1.01 8.18,3.02 12.22,4.62 -2.31,-3.71 -5.77,-6.59 -9.69,-8.47 -1.96,-1.02 -4.48,-1.7 -5.12,-4.12 5.49,1.11 10.45,3.84 15.4,6.38 2.68,1.36 5.05,3.24 7.5,4.97 -0.92,-2.43 -2.01,-4.8 -3.49,-6.93 -1.89,-2.88 -4.57,-5.2 -6.11,-8.32 6.96,0.18 11.76,5.63 17.19,9.14 -0.67,-1.67 -1.47,-3.29 -2.26,-4.91 0.81,-1.5 1.61,-3.01 2.3,-4.58 -4.8,-2.93 -10.29,-4.34 -15.42,-6.59 -3.35,-1.54 -7,-2.16 -10.64,-2.5 1.38,1.63 2.99,3.07 4.77,4.29 0.09,0.36 0.27,1.09 0.36,1.45 -6.12,0.14 -12.33,0.02 -18.32,1.51 -5.53,1.39 -11.13,2.68 -16.33,5.11 -2.73,1.25 -5.66,1.92 -8.59,2.5 -5,-4.26 -9.65,-9.07 -15.55,-12.13 -3.83,-2.16 -8.2,-2.96 -12.3,-4.46 0.86,-0.48 1.75,-0.92 2.66,-1.32 -1.85,-0.94 -3.71,-1.89 -5.57,-2.79 2.06,4.76 4.51,9.34 7.19,13.78 1.58,2.58 2.78,5.46 5.02,7.56 2.26,2.14 5.8,2.94 7.02,6.08 -2.3,0.08 -4.62,0.27 -6.89,-0.15 -2.58,-0.75 -4.67,-2.56 -6.62,-4.32 -3.81,-3.62 -7.89,-6.98 -11.18,-11.11 -3.44,-4.01 -6.35,-8.48 -10.16,-12.16 1.49,3.51 3.46,6.8 5.01,10.29 2.7,5.93 5.1,12.13 9.32,17.18 2.46,3.17 5.63,5.7 8,8.95 -7.33,-0.39 -14.13,-3.68 -20.57,-6.99 1.45,3.54 3.83,6.56 5.44,10.01 1.84,4.46 4.38,9.01 3.3,14.03 -2.94,-1.87 -3.84,-5.39 -5.63,-8.16 -1.52,-2.65 -4.24,-4.19 -6.67,-5.87 -3.95,-2.72 -8.2,-4.98 -12.56,-6.95 3.97,4.8 9.08,9.18 10.55,15.5 0.91,3.97 2.65,7.81 2.68,11.92 -0.69,0.42 -1.42,0.74 -2.14,1.08 -1.51,-3.33 -3.57,-6.43 -6.41,-8.79 -3.32,-2.85 -6.56,-6.09 -10.82,-7.47 2.58,3.72 6.02,6.87 7.81,11.1 1.68,4.24 3.36,8.93 1.85,13.48 -4.38,-3.33 -7.26,-8.2 -11.69,-11.47 -0.22,2.01 -0.01,4.1 -0.56,6.06 -2.06,2.76 -4.99,4.72 -7.41,7.13 -3.42,2.97 -6.37,6.57 -10.37,8.79 1.98,-7.69 9,-12.49 15.4,-16.42 0.33,-3.72 -1.04,-7.24 -1.23,-10.91 5,0.89 7.6,5.95 12.11,7.91 -1.16,-4.49 -3.75,-8.43 -6.62,-12 -2.3,-2.94 -5.66,-5.05 -7.14,-8.6 3.7,-0.19 7.26,1.07 10.67,2.34 3.94,1.56 7.04,4.52 10.46,6.94 -1.17,-5.03 -3.76,-9.84 -7.67,-13.27 -3.74,-2.88 -8.22,-4.66 -11.82,-7.75 1.97,-0.63 4.08,-2.3 6.19,-1.23 5.84,2.44 11.38,5.61 17.4,7.64 -3.41,-9.25 -8.89,-18.44 -17.67,-23.46 -3.44,-2.05 -7.24,-3.41 -10.8,-5.22 0.04,-0.49 0.14,-1.47 0.18,-1.96 7.44,1.87 15.44,3.74 21.06,9.34 4.41,3.78 6.79,9.47 11.6,12.82 2.38,1.74 4.77,-1.19 6.86,-2.17 -2.28,-4.48 -5.45,-8.41 -8.04,-12.71 -4.47,-7.37 -7.47,-15.7 -13.44,-22.09 -3.69,-4.85 -9.84,-6.3 -15.18,-8.56 -6.61,-2.52 -12.81,-6.03 -19.49,-8.38 1.56,2.99 3.71,5.63 4.95,8.78 -3.18,0.64 -6.35,-0.33 -9.52,-0.59 -0.44,1.51 -0.46,3.23 -1.45,4.52 -2.48,2.38 -5.95,3.24 -8.71,5.2 -0.84,0.54 -0.91,1.67 -1.02,2.57 -0.29,3.92 0.38,7.94 -0.74,11.78 -1.89,6.89 -4.36,13.74 -4.49,20.97 -0.08,5.01 -0.29,10.13 0.99,15.03 1.46,5.31 5.57,9.21 8.62,13.62 -0.37,0.14 -1.11,0.42 -1.48,0.56 -4.37,-3.5 -8.6,-7.58 -10.5,-12.99 -1.82,-4.77 -1,-9.96 -0.34,-14.88 0.71,-7.17 1.92,-14.29 4.16,-21.15 1.69,-4.97 0.33,-10.32 1.63,-15.35 0.3,-1.33 1.29,-2.34 2.46,-2.97 2.5,-1.45 5.11,-2.73 7.51,-4.35 -2.2,-3.59 -5.67,-6.15 -7.85,-9.76 5.39,0.9 10.33,3.39 15.62,4.71 -1.22,-3.58 -3.17,-6.87 -4.39,-10.45l0 0zm162.23 36.9c2.81,3.62 5.66,7.2 8.15,11.05 1.41,0.23 0.78,-1.36 0.73,-2.19 -1.08,-4.25 -4.5,-7.94 -8.88,-8.86l0 0zm99.81 9.94c2.15,3.15 4.79,5.91 7.65,8.41 0.23,-1.84 1.31,-3.28 2.67,-4.47 -0.03,-0.4 -0.08,-1.18 -0.11,-1.57 -3.66,0.78 -7.01,-0.81 -10.21,-2.37l0 0zm-97.84 5.89c1.19,1.38 2.77,2.35 4.26,3.4 -0.92,-2.18 -1.84,-4.37 -2.6,-6.61 -0.84,0.89 -2.39,1.77 -1.66,3.21l0 0zm-107.09 7.49c3.13,2.92 7.13,4.78 11.37,5.39 -1.98,-2.8 -3.96,-5.9 -7.06,-7.53 -1.53,0.49 -2.91,1.36 -4.31,2.14l0 0zm-5.28 4.36c-0.94,0.9 0.68,2.55 1.6,1.61 0.88,-0.94 -0.64,-2.48 -1.6,-1.61l0 0zm85.38 8.57c-0.13,1.97 -0.17,3.95 -0.22,5.93 2.59,0.76 5.22,1.37 7.87,1.86 -2.4,-2.74 -4.77,-5.54 -7.65,-7.79l0 0zm213.7 22.64c0.04,0.93 0.86,1.55 1.34,2.27 0.21,-1.57 0.38,-3.14 0.49,-4.72 -0.64,0.8 -1.33,1.56 -1.83,2.45z"/>
    </g>
    <g>
     <path fill="black" fill-rule="nonzero" d="M262.92 115.25c0.36,-0.03 1.1,-0.1 1.46,-0.13 1.1,5.98 2.18,12 4.62,17.61 4.48,-5.72 10.24,-10.39 16.85,-13.43 3.45,4.84 1.83,11.36 4.94,16.28 1.23,2.34 4.02,0.81 5.84,0.12 6.19,-3.08 12.27,-6.4 18.48,-9.43 1.28,-0.52 3.03,-1.42 4.14,-0.08 0.58,3.81 -0.75,7.6 -0.47,11.44 6.77,-0.08 13.37,-2.01 20.14,-2.25 -0.09,3.45 -3.9,4.94 -5.44,7.73 2.3,0.24 4.71,-0.07 6.94,0.67 2.21,1.17 4.29,2.62 6.25,4.19 -5.63,0.11 -11.02,-1.94 -16.37,-3.45 0.41,-2.05 1.04,-4.04 1.64,-6.03 -4.5,0.29 -8.94,1.47 -13.47,1.36 -1.24,0.14 -2.29,-0.94 -2.4,-2.12 -0.3,-2.78 -0.11,-5.59 -0.25,-8.37 -8.14,3.44 -15.9,7.74 -23.98,11.32 -1.55,-1.68 -3.07,-3.4 -4.22,-5.37 -1.98,-3.33 -2.79,-7.16 -4.33,-10.68 -5.25,2.07 -7.76,7.53 -11.21,11.61 -0.85,1.18 -2.35,1.4 -3.63,1.82 -2.4,-4.56 -2.69,-10.06 -5.82,-14.23 -1.87,4.77 -3.09,9.8 -5.26,14.45 -0.57,1.65 -2.9,1.95 -3.73,0.36 -1.46,-2.9 -1.03,-6.43 -2.88,-9.19 -0.8,2.29 -0.95,4.71 -1.06,7.12 -0.01,3.59 -3.34,5.92 -4.13,9.26 -0.3,2.76 0.86,5.37 1.32,8.04 1.3,5.74 0.91,11.81 3.06,17.35 4.13,-6.2 6.77,-13.25 10.82,-19.5 1.21,1.13 2.44,2.34 2.96,3.96 1.55,4.25 2.34,8.73 3.02,13.19 0.37,0.15 1.1,0.46 1.47,0.62 4.19,-4.7 7.87,-9.81 12.09,-14.47 4.46,4.69 1.99,11.36 2.03,17.04 6.85,-2.91 12.61,-8.33 19.96,-9.99 3.19,2.57 3.07,7.1 4.83,10.53 5.75,-1.85 11.17,-4.53 16.82,-6.65 0.27,0.35 0.81,1.06 1.08,1.41 -5.7,3.95 -12.25,6.47 -18.78,8.68 -2.71,1.27 -4.93,-1.61 -5.48,-3.96 -0.24,-1.87 -0.12,-3.76 -0.15,-5.62 -6.55,5.33 -14.35,9.86 -23.08,9.61 -0.12,-4.52 1.12,-8.97 0.69,-13.5 -3.56,3.36 -4.54,8.67 -8.57,11.61 -1.43,1 -2.93,2.55 -4.78,2.39 -1.98,-1.44 -1.83,-4.26 -2.56,-6.39 -2.19,0.18 -4.51,0.21 -6.45,1.35 -2.38,1.33 -3.57,3.9 -5.38,5.82 -1.31,1.71 -4.43,0.67 -4.7,-1.41 -0.44,-2.75 -0.58,-5.55 -1.32,-8.24 -1.79,3.86 -1.91,8.21 -3.42,12.15 -0.48,1.89 -3.63,1.85 -4.07,-0.04 -1.55,-4.54 -2.45,-9.54 -5.87,-13.17 -0.4,4.97 1.35,9.79 2.36,14.6 1.45,4.92 1.22,10.13 0.23,15.11 -6.34,-0.09 -12.25,-2.78 -18.51,-3.48 -0.21,3.02 -0.23,6.05 -0.21,9.07 -2.85,0.46 -5.7,0.91 -8.54,1.44 1.78,4.84 4.45,9.35 5.45,14.45 1.58,7.69 3.98,15.32 3.92,23.25 0.03,5.24 0.2,10.55 -0.99,15.69 -1.51,7.49 -4.69,14.57 -8.91,20.91 -2.59,3.9 -5.51,7.76 -6.52,12.42 -1.46,5.44 -0.9,11.09 -1.14,16.64 -3.23,-1.11 -3.62,-4.97 -3.74,-7.9 0.32,-9.35 0.87,-18.96 -1.89,-28.03 -1.51,-4.29 -3.94,-8.55 -7.83,-11.08 -1.97,-1.42 -4.46,-0.66 -6.66,-0.35 -7.01,1.18 -14.15,-1.21 -19.98,-5.04 -2.6,-1.68 -4.12,-4.47 -5.43,-7.18 -1.25,-2.63 -2.69,-5.25 -3.05,-8.18 -0.3,-2.64 -0.44,-5.31 -1.05,-7.9 -1.76,2.49 -1.81,5.66 -1.94,8.6 -0.07,5.75 -0.55,11.78 1.93,17.17 1.99,6.17 5.26,12.03 10.17,16.33 3.07,2.45 6.55,4.38 10.21,5.8 2.34,0.96 5.17,1.11 6.91,3.17 -8.5,1.49 -16.85,-1.51 -24.75,-4.27 -3.24,-1.03 -5.44,-3.75 -8.19,-5.57 -1.86,-1.34 -4.08,-2.47 -5.08,-4.65 -2.25,-4.62 -4.15,-9.49 -7.46,-13.47 -1.87,-2.34 -4.38,-4 -6.82,-5.67 -0.01,-0.43 -0.05,-1.29 -0.07,-1.72 5.55,0.1 10.82,2.01 15.53,4.83 -0.77,-4.47 -2.81,-8.71 -2.75,-13.32 0.01,-4.96 -0.13,-9.95 0.55,-14.88 0.4,-4.08 1.59,-8.12 1.27,-12.26 -2.53,2.86 -2.69,6.87 -3.87,10.34 -1.54,4.7 -2.02,9.62 -2.66,14.49 -0.45,-0.02 -1.33,-0.05 -1.77,-0.07 -1.99,-5.26 -2.68,-10.86 -3.33,-16.4 -0.3,0.11 -0.91,0.35 -1.21,0.47 -0.3,1.84 -0.64,3.66 -0.97,5.5 -0.76,-0.01 -1.51,0 -2.26,0.01 -0.63,-4.72 -0.57,-9.54 -0.03,-14.26 0.36,-3.51 1.86,-6.73 2.55,-10.15 -3.01,2.16 -3.7,6 -4.71,9.32 -2.16,8.42 -4.49,16.79 -6.66,25.21 -1.08,6.35 -1.06,13.1 1.07,19.25 2.29,6.63 7.61,11.45 11.77,16.89 2.2,2.9 5.3,4.89 7.95,7.33 -2.32,0.12 -4.78,0.35 -6.96,-0.69 -4.74,-2.16 -9.27,-4.78 -14.1,-6.76 0.74,3.36 1.44,6.88 3.47,9.74 3.25,4.72 8.12,8.01 13.14,10.61 2.72,1.32 5.78,2.59 8.86,1.9 6.07,-1.04 12.01,-3.56 18.3,-2.81 -1.69,4.09 -5.49,6.67 -7.97,10.23 -3.34,4.75 -7.39,9.05 -10.08,14.24 3.27,-1.71 5.99,-4.35 9.35,-5.88 3.08,-0.59 6.21,-0.99 9.24,-1.9 -0.04,0.45 -0.12,1.36 -0.16,1.81 -5.96,2.3 -11.99,4.82 -17.01,8.85 -2.43,1.87 -4.01,4.93 -7.16,5.71 0.26,-3.89 1.97,-7.43 3.28,-11.03 1.47,-4.27 4.9,-7.48 6.38,-11.75 -4.34,2.2 -7.66,5.86 -11.46,8.82 -2.08,1.52 -3.79,3.82 -6.32,4.57 -2.94,-1.2 -4.97,-3.81 -7.06,-6.09 -6.49,-7.38 -10.63,-16.6 -12.58,-26.19 -0.66,-5.18 -0.87,-10.41 -1.49,-15.6 -0.46,-3.74 0.62,-7.42 0.58,-11.15 -0.12,-6.68 -0.05,-13.48 1.72,-19.98 1.04,-4.2 0.99,-8.59 2.11,-12.77 1.51,-5.64 3.71,-11.1 4.78,-16.86 -8.28,7.6 -14.24,17.38 -18.34,27.77 -2.03,5.25 -3.21,10.76 -4.85,16.13 -1.07,3.41 -0.74,7.03 -0.82,10.55 0.03,4.03 -0.45,8.17 0.67,12.11 0.89,3.12 0.93,6.43 1.84,9.54 1.57,2.18 4.8,3.23 5.14,6.21 0.83,5.95 -4.06,10.81 -4.02,16.69 0.13,0.92 0.51,1.92 1.45,2.28 2.43,1.18 5.05,1.87 7.56,2.88 -0.05,1.61 0.2,3.28 -0.28,4.84 -2.45,2.43 -5.65,4.09 -7.56,7.06 -1.5,1.93 -1.99,4.38 -2.13,6.77 4.36,1.22 8.91,1.25 13.39,0.9 -0.01,0.39 -0.02,1.14 -0.02,1.52 -3.61,2.9 -7.31,6.04 -8.94,10.52 3.91,-1.98 7.3,-4.86 11.29,-6.66 4.12,-1.24 8.33,-2.12 12.4,-3.55 -0.03,0.45 -0.06,1.36 -0.08,1.81 -4.7,2.89 -9.18,6.69 -11.01,12.07 6.79,-3.19 12.34,-8.9 19.74,-10.75 0.25,0.22 0.77,0.66 1.02,0.88 -3.78,5.49 -9.72,9.69 -11.75,16.3 1.53,-0.85 2.95,-1.88 4.19,-3.09 6.66,-6.55 14.41,-11.88 22.38,-16.69 1.98,-1.26 4.16,-2.43 6.59,-2.11 -0.91,2.64 -3.66,3.63 -5.77,5.1 -5.35,3.38 -9.36,8.39 -12.91,13.55 -3.91,5.76 -7.85,11.6 -10.59,18.03 2.12,-1.86 3.94,-4.03 6.17,-5.76 2.4,-1.87 4.54,-4.22 7.51,-5.18 -0.51,5.55 -5.1,9.5 -6.33,14.84 2.99,-2.37 5.23,-5.56 8.36,-7.77 2.81,-1.97 5.2,-4.73 8.63,-5.61 -0.03,1.48 -0.15,2.98 -0.82,4.32 -3.23,6.71 -6.37,13.58 -8.02,20.88 4.44,-4.61 6.91,-10.77 11.51,-15.24 1.25,-1.11 2.93,-2.26 4.69,-1.73 0.94,0.56 1.74,1.33 2.56,2.06 1.45,-5.06 4.93,-9.15 7.07,-13.89 2.65,-4.82 4.44,-10.24 8.26,-14.3 0.27,1.36 0.3,2.81 -0.37,4.07 -5.15,11.25 -9.81,22.72 -14.8,34.04 -2.07,4.51 -1.63,9.61 -1.73,14.44 0.87,-1.54 1.64,-3.12 2.44,-4.68 2.25,3.58 3.24,7.77 5.34,11.43 0.76,-1.96 1.53,-3.92 2.49,-5.79 2.5,3.55 3.56,7.92 6.4,11.26 0.59,-1.98 1.28,-3.94 2.15,-5.81 3.26,2.28 5.35,6.01 9.07,7.69 3.33,1.51 7.06,1.91 10.32,3.63 -1.82,1.9 -4.6,0.81 -6.78,0.3 -4.31,-1.1 -7.78,-3.97 -11.3,-6.52 0.25,2.12 2.46,4.73 0.65,6.53 -3.69,-1.52 -6.19,-4.78 -8.68,-7.74 -0.15,0.1 -0.46,0.3 -0.61,0.4 0.15,1.38 0.29,2.78 0.37,4.18 -4.55,-2.05 -5.49,-7.58 -8.7,-11 -0.06,2.74 0.29,5.45 0.36,8.18 -0.45,-0.09 -1.34,-0.29 -1.79,-0.39 -0.92,-1.36 -1.88,-2.68 -2.91,-3.95 -0.19,3.92 -0.22,8.03 1.5,11.65 1.64,3.42 3.27,6.95 5.8,9.81l0.58 -0.03c0.93,-1.97 0.5,-4.32 0.82,-6.44 0.46,0.05 1.36,0.15 1.81,0.2 1.95,3.28 3.73,6.65 5.91,9.79 1.36,-2.81 2.52,-5.72 4.24,-8.33 3.18,2.97 5.08,6.97 7.84,10.29 1.33,-1.39 2.5,-2.92 3.65,-4.45 2.01,1.01 3.75,2.43 5.53,3.79 1.77,1.47 4.28,0.49 6.27,1.39 1.85,0.86 3.46,2.17 5.39,2.86 1.9,0.67 4.08,0.79 5.61,2.26 -1.94,0.32 -3.92,0.65 -5.88,0.36 -2.4,-0.46 -4.12,-2.39 -6.35,-3.2 -1.5,-0.12 -3.01,0.19 -4.5,-0.04 -1.86,-0.93 -3.35,-2.43 -4.94,-3.74 -1,1.82 -2.3,3.49 -4.23,4.4 -2.92,-2.9 -5.64,-5.99 -8.5,-8.95 -0.71,2.32 -1.78,4.55 -3.46,6.35 -2.26,-1.69 -4.14,-3.8 -5.69,-6.15 -0.87,1.36 -1.82,2.69 -2.76,4 -2.03,-2.04 -3.91,-4.25 -6.05,-6.18 1.3,5.01 4.94,8.81 8.11,12.73 1.86,2.27 3.83,4.46 5.97,6.48 0.18,-1.52 0.37,-3.04 0.57,-4.55 4.02,2.5 7.34,5.95 11.27,8.58 0.31,-1.24 0.61,-2.48 0.93,-3.71 2.09,0.53 3.78,1.87 5.49,3.11 1.07,0.86 2.37,-0.16 3.51,-0.31 2.05,-0.92 3.89,0.85 5.71,1.58 3.92,2.28 8.61,0.91 12.84,1.91 -2.4,2.07 -5.76,1.08 -8.64,1.29 -2.73,0.26 -5.12,-1.15 -7.66,-1.84 -2.2,0.1 -4.39,1.04 -6.57,0.28 -2.34,-0.93 -4.88,0.8 -7.14,-0.46 -2.68,-1.13 -4.94,-2.99 -7.22,-4.76 -0.45,1.31 -0.89,2.62 -1.33,3.94 -1.9,-1.76 -3.71,-3.63 -5.69,-5.29 0.53,2.02 1.22,4.16 2.96,5.48 4.24,3.45 9.76,4.6 14.57,7.05 4.75,2.02 9.19,5.61 14.61,5.27 4.51,0 8.47,-2.36 12.66,-3.63 7.21,-1.95 14.2,-4.64 20.94,-7.8 5.28,-2.33 10.3,-5.29 14.8,-8.92 1.73,-1.52 3.77,-3.33 3.6,-5.86 -0.03,-5.91 1.73,-11.69 1.27,-17.61 -3.1,0.13 -6.61,1.24 -9.44,-0.44 -2.68,-2.89 -3.67,-6.89 -5.87,-10.12 -1.58,-2.62 -4.26,-4.25 -6.87,-5.67 -4.54,-2.45 -9.09,-4.86 -13.7,-7.18 -2.55,-1.27 -4.89,-2.95 -6.9,-4.96 -1.62,-1.62 -3.37,-3.31 -3.94,-5.6 -1.76,-6.58 -1.42,-13.44 -1.33,-20.18 0.04,-4.78 0.41,-9.55 0.99,-14.28 0.11,-1.32 1.72,-1.2 2.66,-1.38 0.94,5.16 0.24,10.45 1.14,15.6 0.55,3.6 1.55,7.1 2.49,10.62 0.83,3.07 1.66,6.27 3.7,8.8 3.88,4.91 9.53,7.83 14.76,11.02 3.46,2.29 6.86,4.7 9.92,7.51 2.24,2.01 3.61,4.73 5.53,7.01 0.87,1.19 2.72,1.21 3.93,0.55 2.07,-2.13 2.25,-5.37 4.03,-7.71 3.07,1.81 4.01,5.66 6.67,7.94 0.76,0.42 1.8,0.3 2.44,-0.32 1.95,-1.81 3.24,-4.18 5.01,-6.16 5.99,-6.95 13.71,-12.08 21.45,-16.86 2.32,-1.4 4.37,-3.23 5.8,-5.53 -5,0.11 -9.82,1.61 -14.62,2.87 -3.9,1.03 -7.53,2.92 -10.7,5.43 -1.72,1.18 -3.34,2.88 -5.56,2.96 -5.97,0.35 -11.97,-0.05 -17.89,-0.81 -3.31,-1.08 -5.55,-4.03 -8.51,-5.77 -4.95,-3.4 -11.19,-4.69 -15.67,-8.78 5.72,0.33 10.92,3.12 15.82,5.85 2.9,1.66 5.36,3.93 8.09,5.85 2.01,1.49 4.64,0.99 6.97,1.13 4.18,-0.05 8.78,0.46 12.47,-1.93 3.89,-2.66 7.24,-6.17 11.67,-7.96 6.34,-3.03 13.74,-5.81 20.74,-3.43 1.92,-4.79 3.23,-9.84 3.42,-15 0.13,-7 0.64,-14.06 -0.52,-21.01 -0.23,-3.68 -1.73,-7.63 0.16,-11.1 2.29,3.52 3.41,7.6 4.59,11.58 2.22,7.82 2.81,15.95 3.42,24.01 0.5,4.2 -0.84,8.28 -1.5,12.38 -0.74,3.95 -1.06,8.46 -4.16,11.38 -8.75,5.19 -18.91,7.83 -27.01,14.13 -3.39,2.54 -3.41,7.05 -4.78,10.68 -1.55,2.16 -4.07,3.44 -6.39,4.64 -2.42,1.26 -5.15,0.33 -7.66,-0.02 0.13,6.84 -0.9,14.04 1.89,20.53 1.33,3.27 4.78,4.7 7.6,6.41 7.08,4.02 14.06,8.37 21.86,10.87 6.65,2.02 13.07,4.96 20.03,5.84 3.73,0.6 7.71,0.99 11.31,-0.44 7.35,-2.96 14.4,-7.5 18.73,-14.31 -0.07,-0.29 -0.21,-0.88 -0.28,-1.18 -2.84,-0.14 -3.91,3.15 -5.63,4.86 -1.58,-0.47 -3.15,-0.98 -4.71,-1.48 -2.37,1.37 -4.7,3.38 -7.63,3.06 -5.39,-0.25 -10.62,1.81 -16.02,1.26 -1.59,-0.18 -3.57,-0.23 -4.54,-1.72 2.67,-0.23 5.34,-0.23 8.03,-0.3 4.27,-0.06 8.2,-2.29 12.51,-2.02 3.62,0.34 6.26,-2.47 8.95,-4.41 1,0.78 1.99,1.57 2.99,2.35 1.62,-2.18 3.03,-4.53 4.89,-6.51 1.58,1.19 2.73,2.84 4.17,4.21 3.67,-6.54 7.9,-12.8 11.01,-19.63 -2.2,2.39 -3.94,5.17 -6.15,7.54 -0.87,-1.54 -1.65,-3.1 -2.43,-4.68 -1.96,1.99 -3.61,4.79 -6.53,5.41 -1.07,-1.01 -1.92,-2.22 -2.82,-3.36 -2.03,1.5 -3.64,3.58 -5.89,4.74 -1.67,0.06 -3.2,-0.72 -4.73,-1.24 -1.4,1.01 -2.78,2.05 -4.16,3.08 -1.61,-0.74 -3.16,-1.65 -4.89,-2.02 -2.98,0.68 -5.63,2.43 -8.71,2.8 -3.02,0.28 -6.32,0.6 -9.03,-1.05 3.33,-0.67 6.78,-0.45 10.07,-1.36 2.59,-0.71 4.83,-2.25 7.04,-3.72 1.8,0.74 3.57,1.53 5.36,2.28 1.56,-2.34 3.12,-4.75 5.41,-6.46 0.93,1.74 1.77,3.53 2.63,5.31 3.47,-1.15 4.32,-4.81 5.72,-7.73 0.21,0.03 0.64,0.07 0.85,0.09 1.61,1.76 2.77,3.88 4.28,5.73 3.14,-2.52 3.88,-6.57 5.93,-9.81 1,2.33 1.84,4.73 2.96,7.02 3.33,-4.03 5.67,-8.77 7.44,-13.64 1.22,-3.18 0.85,-6.65 0.76,-9.97 -3.81,3.49 -7.1,7.89 -12.2,9.59 -0.14,-2.04 -0.17,-4.08 -0.23,-6.11 -3.08,2.74 -5.84,6.22 -10.02,7.27 -0.25,-1.67 -0.43,-3.35 -0.57,-5.03 -2.57,1.44 -5.04,3.03 -7.53,4.59 -3.51,2.21 -7.78,2.95 -11.87,2.83 1.8,-2.46 5.15,-2.35 7.72,-3.52 5.71,-2.06 9.79,-6.77 14.93,-9.75 0.65,2.13 0.97,4.33 1.29,6.54 3.93,-3.28 5.54,-8.23 7.48,-12.77 0.33,-0.08 0.98,-0.24 1.3,-0.33 0.06,4.04 -0.09,8.07 0.23,12.1 4.8,-2.74 7.1,-8.31 7.44,-13.61 0.07,-3.32 -1.65,-6.29 -2.64,-9.37 -1.47,-4.35 -2.89,-8.73 -4.73,-12.95 -2.25,-5.2 -3.73,-10.67 -5.68,-15.98 -2.73,-7.33 -5.72,-14.56 -8.75,-21.77 -0.72,-1.96 -2.14,-4.38 -0.34,-6.21 2.72,3.9 4.34,8.41 6.51,12.61 6.47,13.07 12.81,26.19 19.22,39.28 2.52,5.59 3.56,11.7 5.55,17.49 1.59,4.36 1.51,9.07 1.18,13.65 -0.48,3.42 -1.85,6.63 -2.95,9.89 -1.24,3.59 -3.93,6.42 -5.39,9.9 -0.87,1.92 -1.22,4.02 -1.47,6.1 5.26,-2.48 10.05,-6.73 11.73,-12.46 1.92,-6.4 2.17,-13.14 3.25,-19.71 0.9,-4.43 -0.65,-8.8 -1.1,-13.19 -0.67,-5.85 -1.48,-11.68 -1.91,-17.55 0.3,-0.11 0.91,-0.32 1.22,-0.42 0.95,2.08 2.24,4.05 2.73,6.31 1.61,8.63 4.04,17.09 5.7,25.73 0.8,6.51 -0.09,13.06 -1.25,19.48 2.28,-2.03 2.93,-5.1 3.71,-7.9 1.21,-4.48 2.36,-9.14 1.61,-13.8 -0.72,-4.12 -0.6,-8.33 -0.51,-12.49 0.5,-0.16 1.51,-0.46 2.01,-0.61 0.66,1.56 1.27,3.15 1.85,4.75 0.33,0.13 0.99,0.37 1.31,0.5 -0.64,-3.86 -1.89,-7.6 -2.21,-11.5 1.33,1.27 2.53,2.68 3.78,4.03 -1.02,-8.09 -4.66,-15.5 -8.27,-22.69 -1.39,-1.95 1.47,-3.49 3.16,-3.01 1.81,0.61 3.44,1.68 5.11,2.6 2.55,1.37 4.08,3.91 6.17,5.82 -0.55,-2.33 -1.42,-4.58 -2.45,-6.73 -2.12,-4.45 -4,-9.15 -7.43,-12.79 -1.49,-1.87 -3.61,-3.38 -4.39,-5.7 0.5,-0.71 1.01,-1.39 1.54,-2.06 2.24,2.1 4.55,4.17 7.33,5.54 -1.26,-1.82 -2.62,-3.57 -3.73,-5.48 1.24,-0.28 2.54,-0.84 3.82,-0.42 5.36,1.27 9.01,5.79 13.99,7.85 -3.51,-4.84 -9.94,-6.26 -13.71,-10.86 6.54,-0.56 11.32,4.42 17,6.67 -2.74,-2.91 -5.95,-5.42 -9.6,-7.07 -2.43,-1.08 -4.97,-2.09 -6.81,-4.1 6.14,-1.51 12.01,1.73 18,2.57 -2.3,-2.85 -5.66,-4.56 -9.14,-5.5 -1.83,-0.66 -3.93,-0.85 -5.5,-2.07 -1.6,-2.81 -0.93,-6.48 -2.75,-9.17 -3.48,-2.71 -7.48,-4.72 -11.48,-6.55 0.81,2.66 3.39,5.12 2.38,8.05 -2.62,-2.9 -3.66,-6.87 -6.49,-9.6 0.67,2.72 3.91,5.13 2.42,8.03 -2.65,-3.41 -4.28,-7.61 -7.66,-10.41 -3.16,-2.71 -6.63,-5.09 -9.36,-8.27 4.04,-1.5 8.32,-0.2 12.47,0 4.87,0.3 9.52,2.64 14.46,2.02 2.26,-0.38 3.56,-2.52 4.5,-4.4 2.8,-5.74 4.72,-11.86 6.49,-17.99 1.16,-4.04 2.46,-8.07 2.99,-12.26 -6.41,5.12 -12.46,11.54 -20.76,13.4 -4.21,1.06 -8.28,2.76 -12.62,3.29 0.39,-2.57 3.17,-2.93 5.14,-3.86 8.44,-3.62 15.96,-9.68 20.66,-17.64 4.47,-6.52 8.16,-14.13 7.83,-22.22 -1.49,-9.89 -5.66,-19.09 -9.52,-28.23 -0.81,-2.03 -1.91,-4 -3.69,-5.33 4.12,8.26 5.33,17.78 4.14,26.89 -1.49,9.27 -4.59,18.38 -9.89,26.18 -2.3,3.29 -4.7,6.53 -6.61,10.06 -0.91,1.89 -2.51,3.33 -4.55,3.88 -8.08,2.58 -16.27,4.81 -24.32,7.5 -3.72,1.21 -7.06,3.35 -10.85,4.38 -0.07,-0.52 -0.2,-1.55 -0.27,-2.07 4.49,-3.35 9.43,-6.01 14.35,-8.66 3.45,-1.82 6.97,-3.58 10.73,-4.73 2.21,-0.76 4.8,-1.34 6.08,-3.5 3.87,-6.33 6.73,-13.22 9.23,-20.18 0.91,-2.79 4.35,-2.79 6.67,-3.73 0.43,-5.44 -0.01,-11.46 -3.76,-15.75 -4.77,-0.65 -9.92,-0.86 -14.45,1.07 -0.23,4.53 0.44,9.2 -0.92,13.62 -0.94,3.35 -2.19,6.79 -4.91,9.13 -4.67,4.87 -11.07,7.6 -17.53,9.14 -5.08,0.36 -10.23,0.09 -15.2,-1.06 -4.93,4.58 -8.35,10.84 -8.99,17.58 -0.9,6.45 0.02,12.98 -0.52,19.44 -0.28,0.09 -0.82,0.27 -1.09,0.36 -2.01,-1.64 -3.02,-4.11 -4.32,-6.29 -1.84,-3.42 -4.24,-6.55 -5.72,-10.16 -2.32,-6.2 -4.39,-12.5 -5.67,-19.01 -0.31,-0.02 -0.92,-0.07 -1.22,-0.1 -0.67,4.23 -1.02,8.53 -0.45,12.8 0.39,4.01 1.53,7.9 2.03,11.9 -0.51,0.12 -1.52,0.36 -2.03,0.48 -1.28,-3.79 -2.27,-7.67 -3.3,-11.53 -0.71,-2.89 -2.69,-5.2 -4,-7.81 -1.26,-2.49 -2.65,-4.92 -3.71,-7.5 1.53,0.85 2.96,1.88 4.38,2.91 0.03,-6.52 0.92,-13.03 2.52,-19.34 1.67,-6.58 3.22,-13.23 5.64,-19.59 1.54,-4.11 3.87,-7.91 5.06,-12.17 -4.19,2.33 -7.57,6.13 -12.4,7.24 0.37,-7.19 3.45,-13.74 6.06,-20.31 -2.95,1.1 -5.72,2.64 -8.2,4.57 -1.55,1.25 -3.37,2.07 -5.34,2.38 0.73,-1.9 1.88,-3.65 3.63,-4.75 4.25,-2.87 9.31,-5.27 14.56,-4.59 -3.11,5.91 -6.44,11.88 -7.46,18.58 5.83,-2.12 9.09,-9.52 15.88,-9.04 -1.18,4.83 -4.5,8.77 -5.75,13.59 -1.59,5.78 -4.19,11.46 -3.86,17.58 -0.25,8.4 0.06,17.27 4.28,24.79 1.85,2.96 3.12,6.27 5.22,9.07 0.36,-3.09 0.26,-6.25 1.14,-9.26 1.55,-5.33 3.28,-10.63 5.9,-15.53 2.53,-4.78 4.45,-10.06 8.35,-13.93 2.86,-2.91 6.88,-4.1 10.59,-5.48 6.67,-2.51 13.87,-2.78 20.76,-4.38 5.35,-1.25 9.86,-5.24 11.92,-10.31 2.58,-5.89 1.54,-12.49 0.51,-18.6 -0.46,-3.01 -1.68,-5.94 -3.97,-8.02 -3.59,-3.37 -6.4,-7.77 -10.99,-9.92 -2.63,-1.43 -6.07,-1.47 -7.99,-4.03 2.97,-0.26 6.04,-0.1 8.82,1.1 10.93,4.36 21.09,11.03 28.88,19.92 2.69,3.11 6.28,5.38 8.53,8.88 4.1,6.25 8.75,12.1 13.45,17.9 1.08,1.37 2.43,2.54 3.89,3.51 0.27,-8.5 -3.3,-16.69 -8.53,-23.25 -2.66,-4.1 -6.53,-7.4 -8.41,-11.97 4.93,1.11 8.67,4.8 12.21,8.16 3.39,3.26 6.04,7.22 9.58,10.32 -0.73,-5.5 -1.36,-11.33 -4.51,-16.07 -2.32,-3.66 -4.31,-7.62 -7.5,-10.62 -3.95,-3.75 -7.87,-7.63 -12.54,-10.48 -3.29,-2.02 -6.55,-4.08 -9.62,-6.4 -3.46,-2.64 -7.56,-4.16 -11.49,-5.91 -0.07,-0.48 -0.2,-1.46 -0.26,-1.94 4.61,0.36 8.97,2 13.29,3.55 6.17,2.26 12.22,5.01 17.58,8.87 6.82,4.96 14.64,8.86 20.01,15.55 3.1,3.63 7.27,6.22 9.99,10.2 6.75,9.53 13.62,18.99 19.91,28.84 3.03,5.39 6.24,11.14 6.35,17.49 -4.44,-0.08 -8.62,-2.76 -13.1,-1.71 -1.79,0.66 -1.92,3.16 -1,4.58 1.19,1.95 2.66,3.73 3.65,5.8 -3.01,0.16 -6.01,0.15 -9.01,0.25 0.69,1.91 1.57,3.77 1.89,5.79 0.04,1.57 -0.58,3.06 -0.96,4.56 -0.33,0.01 -1,0.03 -1.32,0.04 -0.76,-2.61 -1.36,-5.43 -3.25,-7.49 -2.04,-2.23 -5.08,-3.02 -7.81,-4.03 0.5,-1.06 0.86,-2.38 2.08,-2.84 3.65,-1.65 7.78,-0.75 11.66,-0.85 -1.69,-3.42 -4.33,-6.27 -5.81,-9.81 6.02,-0.02 12.04,0.05 18.06,-0.14 -2.56,-5.75 -5.52,-11.34 -9.01,-16.57 -3.81,-5.22 -7.63,-10.43 -11.88,-15.29 -2.84,-3.24 -5.44,-6.82 -9.11,-9.17 1.43,5.66 5.09,10.58 5.75,16.47 0.39,2.9 0.18,6.28 -2.13,8.39 -2.43,2.3 -6.03,2.03 -9.12,2.16 1.11,4.16 2.47,8.78 0.61,12.94 -0.63,1.98 -3.01,2.75 -4.87,2.27 -1.67,-0.94 -3.07,-2.28 -4.61,-3.4 0.75,7.52 3.29,14.73 3.77,22.29 1.39,9.14 1.68,18.57 -0.32,27.65 -0.8,4.64 -1.42,9.37 -3.3,13.72 -1.5,3.54 -3.26,6.95 -4.98,10.38 -2.02,4.03 -5.53,6.98 -8.25,10.49 -1.83,2.01 -0.89,4.99 0.22,7.11 1.03,2.44 4.08,1.88 6.18,2.48 8.3,1.72 16.47,4.39 23.79,8.71 -0.42,-2.23 -0.89,-4.47 -1.82,-6.54 -1.48,-3.45 -4.24,-6.15 -5.77,-9.58 9.48,-0.81 19.14,0.64 28.04,3.97 0.06,0.39 0.2,1.15 0.27,1.53 -6.16,0.59 -11.58,-3.29 -17.72,-2.95 0.94,6.38 1.94,12.86 0.49,19.24 -6.2,-3.84 -12.53,-7.62 -19.58,-9.68 3,4.36 7.21,8.46 7.94,13.91 -3.53,-0.8 -6.23,-3.38 -9.57,-4.64 -1.75,-0.71 -3.6,-1.13 -5.43,-1.53 2.64,2.18 5.87,3.8 7.7,6.83 1.52,2.49 3.48,5.15 2.87,8.24 -3.18,-0.05 -4.91,-2.92 -7.07,-4.78 1.63,3.62 4.23,6.98 4.54,11.06 0.32,1.5 -1.3,1.95 -2.22,2.69 -1.5,-3.74 -2.99,-7.83 -6.45,-10.23 -3.32,-2.22 -6.6,-4.61 -10.31,-6.16 1.87,3.05 4.81,5.25 6.74,8.27 3.15,4.5 4.07,10.01 5.82,15.11 2.19,6.03 1.49,12.54 1.45,18.83 -0.86,0.17 -1.71,0.35 -2.56,0.56 -0.23,1.65 -0.52,3.28 -0.94,4.89 -3.19,-4.91 -5.24,-10.44 -7.95,-15.61 -0.24,0.13 -0.73,0.38 -0.98,0.5 2.29,4.73 3.76,9.89 3.61,15.19 -1.11,-0.1 -2.22,-0.19 -3.33,-0.3 -1,3.92 -1.89,7.92 -1.6,12.01 2.65,-3.08 1.73,-7.65 4.32,-10.78 1.33,6.69 -3.12,12.53 -5.8,18.28 -0.74,2.24 -3.06,3 -4.7,4.41 -1.6,2.88 -2.26,6.25 -4.22,8.96 -2.22,3.11 -4.58,6.12 -6.89,9.15 -1.62,2.16 -3.99,3.52 -6.28,4.85 -2.45,1.42 -4.61,3.27 -6.72,5.13 -5.44,4.79 -11.04,9.4 -16.48,14.17 -3.8,3.29 -5.55,8.15 -7.46,12.64 -1.4,3.26 -1.55,6.84 -1.59,10.35 -0.48,0.24 -1.46,0.7 -1.95,0.94 -1.28,-3.44 -1.5,-7.1 -1.91,-10.7 -0.89,1.39 -1.19,3.02 -1.36,4.64 -0.97,8.66 -4.2,17.02 -9.12,24.2 -2,2.78 -2.92,7.42 -6.93,7.83 -0.88,-4.08 -2.4,-8.18 -5.43,-11.17 -0.41,2.21 -0.53,4.47 -1.22,6.62 -0.4,0.19 -1.19,0.55 -1.58,0.74 -1.85,-2.11 -1.52,-5.26 -2.96,-7.64 -0.44,3.05 0.17,6.21 -0.67,9.2 -0.31,1.43 -1.79,1.88 -2.93,2.46 -0.29,-1.7 -0.6,-3.38 -0.84,-5.08 -1.24,1.01 -2.32,2.34 -3.87,2.89 -1.99,0.14 -3.9,-0.52 -5.78,-1.04 1.21,-2.21 3.84,-1.53 5.92,-1.6 0.53,-2.19 1.11,-4.36 1.8,-6.5 1.15,0.19 2.3,0.39 3.45,0.58 -0.13,-3.5 -0.19,-7.01 0.35,-10.48 0.94,0.58 1.88,1.19 2.8,1.83 0.89,-0.68 1.56,-1.83 2.72,-2.02 4.3,2.19 6.8,6.5 9.85,10.04 3.62,-6.68 1.05,-14.56 -0.98,-21.34 -1.74,-4.26 -2.94,-8.84 -5.3,-12.79 -2.71,-0.93 -5.64,-1.11 -8.27,-2.27 -2.84,-1.25 -5.79,-2.24 -8.78,-3.04 -6.42,-1.81 -12.25,-5.15 -17.89,-8.62 -1.94,-1.16 -3.98,-2.39 -6.28,-2.57 -6.29,-0.51 -12.53,1.14 -18.81,0.55 -2.78,-0.12 -5.81,-0.83 -8.37,0.66 -5.71,3.09 -10.93,7.14 -17.11,9.34 -7.37,2.72 -14.06,7.99 -22.26,7.76 -3.48,10.04 -4.87,20.82 -3.93,31.41 3.05,-1.96 5.57,-4.68 8.85,-6.28 0.36,4.79 -0.29,9.65 0.65,14.4 1.44,-2.59 1.69,-6.16 4.55,-7.69 1.19,0.5 2.27,1.24 3.39,1.91 1.4,-1.08 2.81,-2.14 4.25,-3.16 1.79,2.58 3.28,5.34 4.88,8.04 0.63,0.93 1.2,2.13 2.38,2.47 3.29,0.94 6.74,1.21 10.15,1.37 6.54,0.15 13.03,1 19.51,1.76 2.43,0.2 4.59,1.4 6.39,2.98 -3.15,1.2 -6.56,0.66 -9.85,0.71 -9.23,-0.17 -18.55,0.42 -27.7,-1.13 -2.56,-1.54 -4.08,-4.36 -6.24,-6.4 -1.83,1.11 -3.84,1.95 -5.52,3.29 -1.45,1.99 -2.09,4.44 -3.08,6.68 -1.35,-0.55 -3.18,-0.76 -3.53,-2.45 -1.55,-4.6 -4.45,-8.78 -4.59,-13.79 -2.47,2 -3.25,5.12 -4.74,7.78 -1.55,0.81 -3.79,0.63 -4.81,-0.93 -1.32,-1.74 -2.44,-3.64 -3.26,-5.66 -1.35,-3.79 -0.69,-7.92 -1.72,-11.77 -0.24,-0.06 -0.72,-0.15 -0.96,-0.21 -1.52,2.19 -2.61,4.65 -4.28,6.73 -2.66,-3.86 -1.88,-8.81 -1.31,-13.16 1.11,-7.34 6.25,-12.97 9.75,-19.22 -0.35,0.07 -1.04,0.22 -1.4,0.29 -2.12,4.86 -6.62,7.94 -10.07,11.79 -1.91,1.98 -2.86,4.62 -4.02,7.08 -0.43,-0.02 -1.3,-0.04 -1.73,-0.06 0.83,-4.56 1.04,-9.4 3.62,-13.43 -1.2,-0.03 -2.39,-0.07 -3.58,-0.11 0.75,-3.07 2.27,-5.83 3.5,-8.71 -2.53,1.55 -4.57,3.77 -7.16,5.22 0.13,-2.94 1.55,-5.56 2.99,-8.04 -4.57,-3.56 -9.93,-5.91 -14.87,-8.89 -5.84,-2.92 -10.39,-7.7 -15.49,-11.65 -1.46,-1.27 -3.19,-2.34 -4.15,-4.07 -2.62,-7.74 -1.28,-15.97 -0.73,-23.91 0.4,-4.34 2.38,-8.32 2.84,-12.65 -2.16,3.33 -3.46,7.12 -5.55,10.48 -0.57,1.13 -1.79,1.58 -2.85,2.11 -0.31,-4.87 -0.13,-9.75 -0.15,-14.62 -0.09,-6.39 4.32,-11.61 5.29,-17.79 -2.74,1.57 -3.78,4.66 -5.08,7.35 -1.94,3.97 -3.23,8.22 -5,12.27 -0.42,0.03 -1.27,0.08 -1.7,0.1 -0.06,-4.11 -0.08,-8.26 0.76,-12.31 0.76,-4.56 2.56,-8.85 3.88,-13.26 -2.89,3.18 -5.35,6.71 -8.03,10.06 -0.91,1.26 -2.29,2.02 -3.67,2.66 -1.26,-3.28 -0.12,-6.67 0.48,-9.95 0.74,-4.04 2.46,-7.82 3.54,-11.77 -3.38,2.93 -5.97,6.75 -9.87,9.07 -1.85,-4.2 -0.42,-8.87 1.31,-12.85 1.59,-3.79 4.38,-6.86 6.49,-10.34 -5.86,4.07 -10.13,9.94 -15.41,14.67 -2.43,-1.69 -2,-4.84 -1.58,-7.37 0.83,-3.61 2.48,-6.95 4.2,-10.21 -4.24,2.3 -7.34,6.11 -10.91,9.26 -1.45,1.17 -2.67,3.01 -4.63,3.28 -1.1,-0.92 -2.48,-2.11 -2.16,-3.71 0.94,-6.43 3.91,-12.55 8.82,-16.89 -2.87,0.75 -5.81,1.97 -8.83,1.44 -1.24,-1.75 -1.64,-4.15 -0.56,-6.08 1.63,-3.16 3.52,-6.2 5.66,-9.03 2.2,-2.93 5.84,-4.47 7.56,-7.79 -3.14,-1.96 -7.95,-2 -9.59,-5.8 0.47,-5.64 3.27,-10.77 4.38,-16.29 0.36,-1.36 -0.38,-2.64 -0.75,-3.9 -2.32,0.62 -4.62,1.31 -6.98,1.72 1.02,-2.06 3.25,-3.91 2.66,-6.45 -0.54,-4.12 -1.74,-8.13 -2.39,-12.23 -0.64,-3.74 -0.17,-7.55 -0.51,-11.32 -3.77,5.35 -2.82,12.15 -3.39,18.3 -2.12,1.78 -4.19,3.73 -6.82,4.76 1.07,-2.87 3.34,-5.12 4.13,-8.1 1.61,-8.26 -1.07,-17.05 2.14,-25.05 2.01,-6.02 3.74,-12.12 5.64,-18.17 1.13,-3.62 3.44,-6.69 5.41,-9.88 2.81,-4.36 5.29,-8.97 8.64,-12.96 2.65,-3.37 5.9,-6.17 8.72,-9.4 1.98,-2.2 3.79,-4.56 5.95,-6.58 3.98,-3.75 8.79,-6.48 12.75,-10.25 3.27,-2.99 6,-6.59 9.74,-9.05 5.13,-3.46 10.28,-6.89 15.33,-10.46 1.78,-1.29 3.7,-2.41 5.74,-3.21 -0.3,1.52 -0.97,2.96 -2.22,3.94 -7.8,7.04 -15.97,13.98 -21.72,22.89 -3.77,5.63 -6.7,11.78 -9.14,18.08 -0.8,1.99 -1.19,4.11 -1.31,6.24 2.2,-2.09 2.71,-5.92 5.93,-6.77 -1.02,4.32 -2.27,8.69 -1.45,13.17 2.38,-3.18 2.58,-7.31 4.29,-10.8 2.77,-6.32 7.58,-11.39 12.3,-16.29 1.39,-1.38 2.73,-2.89 4.44,-3.88 1.91,-1.03 4.14,-1.06 6.24,-1.31 -0.03,0.44 -0.09,1.33 -0.12,1.78 -1.92,1 -4.08,1.86 -5.38,3.69 -2.54,3.54 -3.05,8 -3.71,12.18 -0.43,3.76 -1.06,7.99 1.12,11.35 2.51,3.92 6.17,7.25 10.62,8.79 5.28,1.82 10.81,2.71 16.3,3.66 3.87,0.66 7.38,2.52 10.94,4.06 2.11,0.99 4.47,1.93 5.7,4.05 3.06,4.76 2.87,10.7 5.06,15.82 1.26,2.86 2.03,5.9 2.48,8.99 0.31,-0.06 0.94,-0.19 1.25,-0.26 2.22,-5.34 3.69,-10.95 5.79,-16.33 1.33,-4.29 1.89,-8.78 2.43,-13.23 -0.02,-6.74 -2.04,-13.38 -5.15,-19.33 -1.38,-2.88 -3.23,-5.55 -4.26,-8.59 0.28,-0.87 0.67,-1.88 1.78,-1.76 2.04,-0.22 4.09,0.03 6.13,0.08 -0.55,-2.98 -1.97,-5.72 -2.55,-8.68 -0.41,-1.18 0.67,-2.43 1.87,-2.3 3.24,0.2 6.42,0.92 9.59,1.57 4.69,0.98 8.89,4.14 13.85,3.69 0.18,-4.59 -0.22,-9.2 -1.57,-13.6 -0.64,-2.96 -3.53,-4.6 -4.58,-7.37 -2.22,-5.52 -7.23,-9.1 -12.06,-12.18 2.2,6.16 5.96,11.6 8.57,17.59 -0.33,0.25 -0.99,0.76 -1.33,1.01 -4.19,-2.22 -8.06,-5.02 -12.43,-6.87 0.94,1.65 1.96,3.25 2.91,4.89 -5.61,0.08 -11.28,0.31 -16.82,-0.67 -5.57,-0.98 -11.27,-0.83 -16.88,-1.5 0.16,-0.29 0.46,-0.87 0.62,-1.17 5.68,-0.57 11.44,-1.79 17.13,-0.64 2.91,0.6 5.84,1.17 8.82,1.38 -3.85,-2.97 -8.01,-5.72 -10.7,-9.88 2.65,-0.04 5.27,-0.46 7.9,-0.71 3.89,-0.28 7.09,2.29 10.52,3.69 -1.21,-2.81 -3.24,-5.1 -5.29,-7.31 -1.93,-1.94 -2.12,-4.78 -2.39,-7.34 4.19,0.24 8.34,1.26 12.08,3.17 3.29,1.7 5.33,4.95 8.06,7.36 -0.64,-5.46 -3.24,-10.47 -3.77,-15.95 2.1,0.79 3.77,2.32 5.18,4.03 4.07,4.77 7.67,10.01 10.03,15.85 0.62,1.01 0.85,2.68 2.26,2.86 2.6,-5.25 2.61,-11.26 4.03,-16.86 0.93,-3.33 0.43,-7.15 2.63,-10.03 1.09,-1.87 3.08,-3.96 2,-6.27 -2.49,-5.57 -7.26,-10 -12.83,-12.42 -0.15,4.82 0.67,9.98 -1.88,14.37 -5.37,-2.88 -8.19,-9.53 -14.58,-10.66 0.2,2.97 0.7,5.9 1.16,8.84 -1.89,0.56 -3.91,0.91 -5.78,0.11 -7.79,-2.93 -16.18,-3.17 -24.36,-4.02 0.65,4.94 4.62,9.02 3.76,14.21 -6.68,-1.79 -12.84,-5.3 -19.7,-6.51 -4.13,-0.63 -8.3,-1.22 -12.5,-1.1 1.44,1.35 3.1,2.44 4.42,3.9 1.02,1.48 1.56,3.23 2.11,4.92 -5.88,-1.12 -11.4,-3.79 -17.44,-4.13 1.72,2.26 4.34,4.3 4.09,7.45 -1.99,0.09 -4.04,0.05 -5.87,-0.83 -5.61,-2.38 -11.91,-4.34 -17.98,-2.59 5.24,3.02 13.14,2.83 15.81,9.23 -3.81,0.58 -7.58,-0.47 -11.38,-0.44 -3.61,0.01 -7.21,0.37 -10.79,0.91 2.39,1.32 4.96,2.23 7.5,3.16 -0.42,0.96 -0.83,1.93 -1.36,2.83 -2.58,0.6 -5.25,0.14 -7.85,0.53 -2.69,0.31 -4.85,2.09 -7.04,3.51 1.3,1.49 2.64,2.95 3.93,4.44 -3.74,1.89 -8.04,1.52 -11.98,2.69 -4.3,1.19 -8.52,2.82 -12.41,5.03 -2.05,1.1 -3.55,3.97 -2.03,6.06 3.62,1.8 7.79,1.41 11.7,1.79 -0.75,1.41 -1.32,3.4 -3.25,3.48 -4.72,0.88 -9.54,1.34 -14.2,2.55 -7.62,1.89 -14.84,5.61 -20.59,10.97 0.9,0.45 1.81,1.04 2.88,0.99 5.35,0.09 10.7,-0.06 16.05,-0.04 1.66,-0.03 3.28,0.37 4.86,0.85 -3.16,4.04 -8.41,5.11 -12.53,7.82 -3.81,2.47 -7.64,4.91 -11.53,7.25 -3.52,2.01 -5.63,5.56 -8.25,8.52 -2.4,2.68 -3.74,6.6 -2.67,10.14 1,1.59 3.25,1.27 4.85,1.79 -0.05,0.64 -0.09,1.28 -0.14,1.93 -2.77,0.05 -5.61,0.41 -8.36,-0.15 -3.07,-2 -3.76,-6.42 -1.96,-9.51 4.04,-7.1 10.64,-12.25 17.24,-16.84 3.67,-2.61 7.93,-4.38 11.24,-7.49 -5.36,0.12 -10.47,1.91 -15.76,2.44 -1.75,-0.25 -4.37,-1.42 -3.96,-3.59 0.58,-3.02 2.86,-5.4 5.39,-6.98 9.21,-5.62 19.02,-11.29 30.09,-11.75 0.11,-0.28 0.32,-0.85 0.42,-1.13 -3.94,-0.92 -8.01,-1.45 -11.73,-3.15 0.96,-3.16 3.66,-5.19 6.07,-7.23 1.34,-1.14 2.99,-1.82 4.67,-2.3 6.72,-1.8 13.28,-4.34 20.29,-4.76 -1.26,-1.79 -3.87,-3.37 -3.36,-5.85 2.79,-3.93 8.21,-3.18 12.33,-4.44 -1.79,-1.33 -3.71,-2.47 -5.66,-3.54 -0.03,-0.44 -0.08,-1.34 -0.11,-1.79 6.74,-1.48 13.67,-0.81 20.47,-1.75 -3.05,-1.95 -6.46,-3.61 -10.13,-3.75 -1.44,-0.09 -2.88,-0.35 -4.29,-0.64 1.88,-1.93 4.18,-3.55 6.89,-4 4.73,-1.37 9.69,-0.57 14.53,-1 -2.29,-1.71 -4.79,-3.14 -6.89,-5.09 6.66,-0.11 13.19,1.49 19.81,1.98 -2.82,-2.06 -5.9,-3.7 -8.84,-5.55 -0.03,-0.41 -0.08,-1.24 -0.1,-1.65 5.89,-1.06 11.76,0.42 17.61,1.06 3.97,0.72 7.87,1.73 11.8,2.66 4.02,0.98 7.72,2.82 11.57,4.27 -0.85,-6.46 -6.84,-9.82 -11.13,-13.91 1.91,-1.01 3.97,-2.09 6.2,-1.75 3.24,0.4 6.49,0.86 9.77,0.79 6.98,-0.09 12.56,5.39 19.57,5.11 -1.33,-2.77 -2.96,-5.38 -4.18,-8.2 1.65,-0.81 3.27,-1.7 4.83,-2.68 3.52,1.41 7.22,2.56 10.3,4.85 3.05,2.19 4.72,5.8 7.92,7.84 0.41,-5.19 -1.39,-10.23 -1.2,-15.42 3.05,0.91 6.02,2.2 8.58,4.12 3.3,2.31 5.59,5.68 8.5,8.4 0.75,-5.07 -0.2,-10.23 0.83,-15.28 0.4,0.03 1.19,0.1 1.59,0.14 3.01,5.72 4.07,12.14 6.25,18.16 0.21,-0.01 0.62,-0.03 0.83,-0.03 2.96,-6.04 3.66,-12.92 6.77,-18.91l0 0zm-80.56 14.29c1.07,1.41 2.56,2.22 4.34,1.6 -1.24,-1.01 -2.77,-1.44 -4.34,-1.6l0 0zm73.71 39.12c1.27,-0.21 2.62,-0.23 3.83,-0.74 2.22,-1.14 0.48,-3.93 0.35,-5.76 -2.09,1.64 -3.39,4 -4.18,6.5l0 0zm-170.58 15.34c0.98,0.21 1.97,0.41 2.97,0.61 -0.21,-0.99 -0.41,-1.96 -0.62,-2.93 -0.78,0.77 -1.57,1.54 -2.35,2.32l0 0zm322.85 -0.17c1.52,2.19 3.23,4.29 5.39,5.89 -0.9,-2.24 -2.2,-4.28 -3.59,-6.25 -0.6,0.12 -1.21,0.24 -1.8,0.36l0 0zm-196.23 6.25c-0.01,0.57 -0.03,1.71 -0.04,2.28 0.89,-0.27 1.78,-0.54 2.68,-0.81 -0.88,-0.49 -1.76,-0.99 -2.64,-1.47l0 0zm164.77 0.14c2.36,3.6 5.56,6.56 9.05,9.06 -2.29,-3.64 -4.93,-7.37 -9.05,-9.06l0 0zm-263.58 8.78c-9.25,7.97 -16.5,18.48 -19.84,30.29 1.11,-1.46 2.14,-2.98 3.07,-4.56 4.45,-7.59 9.18,-15.21 15.74,-21.19 2.4,-2.39 5.52,-4.46 6.29,-7.98 -1.91,0.88 -3.67,2.05 -5.26,3.44l0 0zm257 -2.19c0.08,1.95 0.3,3.9 0.56,5.83 0.83,-0.16 1.66,-0.34 2.5,-0.51 -0.63,-1.98 -1.47,-3.92 -3.06,-5.32l0 0zm-312.04 11.27c0.77,0.67 1.41,1.55 2.39,1.94 2.75,0.13 5.5,-0.63 7.93,-1.89 -3.43,-0.33 -6.88,-0.26 -10.32,-0.05l0 0zm335.57 7.77c0.81,3.34 1.93,6.6 2.79,9.93 0.89,2.89 1.46,5.97 3.19,8.52 -0.16,-3.55 -1.54,-6.85 -2.55,-10.2 -0.87,-2.86 -1.96,-5.65 -3.43,-8.25l0 0zm-245.58 2.05c0.47,1.85 1.97,2.77 3.73,3.13 -0.81,-1.5 -2.09,-2.62 -3.73,-3.13l0 0zm10.83 11.59c-2.43,4.86 -2.97,11.04 -0.43,15.98 2.69,4.89 7.93,7.73 13.15,9.16 4.01,1.21 8.31,-0.08 11.89,-1.97 2.98,-2.03 5.3,-5.26 6,-8.82 0.38,-4.23 -2.19,-8.17 -5.47,-10.62 -0.85,2.07 -1.54,4.23 -2.71,6.14 -1.67,2.68 -4.69,4.71 -7.95,4.34 -3.59,0.09 -5.68,-3.43 -6.69,-6.4 -1.17,-3.02 0.44,-6.03 1.54,-8.79 -2.95,-1.05 -7.17,-2 -9.33,0.98l0 0zm183.35 -0.45c0.17,2.53 0.65,5.1 0.24,7.64 -1.15,4.78 -7.86,6.51 -11.42,3.41 -1.42,-2.32 -2.17,-4.98 -3.63,-7.29 -2.02,2.01 -3.95,4.2 -5.1,6.85 -0.88,1.86 -1.57,4.16 -0.38,6.07 2.35,4 6.8,7.01 11.56,6.84 4.69,-0.05 9.86,-0.32 13.65,-3.44 2.97,-2.44 6.46,-5.25 6.67,-9.42 0.45,-4.23 -0.06,-9.6 -4.08,-11.99 -2.56,-0.51 -5.06,0.77 -7.51,1.33l0 0zm94.5 4.51c-1.31,0.29 -0.79,2.5 0.53,2.1 1.28,-0.32 0.79,-2.5 -0.53,-2.1l0 0zm-245.71 18.15c-0.04,0.86 -0.09,1.72 -0.15,2.57 0.61,-0.68 1.23,-1.37 1.83,-2.07 -0.56,-0.16 -1.12,-0.33 -1.68,-0.5l0 0zm20.43 8.02c1.28,-2.67 1.61,-5.65 1.25,-8.57 -2.17,2.31 -2.07,5.71 -1.25,8.57l0 0zm178.85 6.23c-2.89,2.62 -5.73,5.33 -8.21,8.35 2.97,-1.98 6.84,-3.72 8.17,-7.23 2.68,-2.4 3.92,-5.84 5.55,-8.95 0.51,0.42 1,0.85 1.5,1.3 -0.31,1.89 -1.1,3.66 -1.69,5.47 2.03,-1.89 4.47,-3.71 5.3,-6.49 -0.1,-1.37 -0.65,-2.64 -1.06,-3.93 -5.11,1.38 -9.72,5.93 -9.56,11.48l0 0zm-256.59 -10.37c1.83,3.75 3.69,7.49 5.59,11.21 0.91,1.98 2.91,2.96 4.86,3.62 -1.41,-3.52 -4.07,-6.3 -5.96,-9.55 -1.18,-2 -2.73,-3.77 -4.49,-5.28l0 0zm-28.89 7.77c0.49,-0.12 1.45,-0.35 1.94,-0.47 0.02,-1.08 0.04,-2.16 0.04,-3.22 -0.74,1.18 -1.4,2.41 -1.98,3.69l0 0zm98.61 13.44c3.31,-3.35 5.4,-7.73 6.59,-12.24 -2.85,3.68 -4.77,7.98 -6.59,12.24l0 0zm191.35 10.97c0.53,-0.04 1.59,-0.11 2.11,-0.14 0.88,-4.11 1.62,-8.36 0.64,-12.52 -2.08,3.89 -2.5,8.34 -2.75,12.66l0 0zm-284.83 -1.49c1.66,8.61 7.51,15.6 13.94,21.24l0.05 0.33c0.89,-1.33 2.39,-1.39 3.8,-1.01 -0.66,-1.1 -1.34,-2.32 -0.69,-3.6 2.25,0.77 4.72,0.29 6.76,-0.82 -2.54,-0.7 -5.3,-0.96 -7.55,-2.43 -2,-1.26 -3.91,-2.63 -5.95,-3.82 1.58,2.12 3.15,4.31 5.19,6.01 -0.76,0.85 -1.51,1.69 -2.27,2.52 -5.03,-5.68 -8.71,-12.39 -13.28,-18.42l0 0zm8.73 4.25c1.97,3.65 5.61,5.9 9.19,7.73 4.2,2.13 9.5,2.4 13.55,-0.23 -3.74,0.37 -7.85,1.43 -11.35,-0.53 -3.91,-2.13 -7.24,-5.25 -11.39,-6.97l0 0zm23.04 5.36c3.07,-0.06 6.39,-0.31 8.8,-2.45 -3.07,0.08 -6.36,0.36 -8.8,2.45l0 0zm250.61 11.71c3.44,-1.64 4.38,-5.53 5.82,-8.71 -2.17,2.73 -4.28,5.56 -5.82,8.71l0 0zm26.11 10.28c1.52,2.9 3.24,5.69 5.17,8.32 -0.15,-2.9 -0.99,-5.7 -2.55,-8.15 -0.88,-0.05 -1.75,-0.11 -2.62,-0.17l0 0zm-329.88 12.69c0,0.39 0,1.16 -0.01,1.55 1.23,-0.01 2.47,-0.01 3.7,-0.02 -0.01,-0.37 -0.02,-1.12 -0.04,-1.5 -1.22,0 -2.43,-0.02 -3.65,-0.03l0 0zm0.42 18.69c1.67,-1.33 2.68,-3.23 2.8,-5.37 -2,1.09 -2.69,3.22 -2.8,5.37l0 0zm13.34 3.47c1.13,-1.66 1.9,-3.52 2.4,-5.45 -1.4,1.5 -2.15,3.42 -2.4,5.45l0 0zm-0.7 0.45c-1.23,0.32 -0.86,2.53 0.49,2.13 1.26,-0.31 0.83,-2.54 -0.49,-2.13l0 0zm196.6 18.32c1.66,-1.77 2.35,-4.11 2.36,-6.5 -1.19,2 -1.96,4.21 -2.36,6.5l0 0zm-168.85 2.69c3.31,-2.03 6.26,-4.8 7.78,-8.44 -3.42,1.9 -6.2,4.84 -7.78,8.44l0 0zm0.26 19.13c2.71,-2.44 3.86,-6.07 3.8,-9.65 -2.8,2.39 -3.59,6.14 -3.8,9.65l0 0zm148.14 -3.1c2.68,-0.75 5.12,-2.21 6.99,-4.28 -2.67,0.78 -5.1,2.23 -6.99,4.28l0 0zm106.75 -0.03c0.08,1.68 0.16,3.36 0.24,5.04 0.45,0.12 1.36,0.36 1.8,0.47 -0.13,-1.68 -0.26,-3.36 -0.38,-5.03 -0.42,-0.12 -1.24,-0.37 -1.66,-0.48l0 0zm-232.7 6.66c-1.14,0.58 -0.29,2.69 0.93,1.95 1.13,-0.6 0.28,-2.71 -0.93,-1.95l0 0zm203.56 38.21c-3.9,2.52 -7.1,5.94 -10.9,8.6 -2.7,1.87 -4.93,4.33 -6.74,7.07 6.8,-4.94 12.99,-10.66 19.45,-16.02 3.53,-3.23 8.56,-5.77 9.24,-11.04 -3.3,4.13 -6.57,8.46 -11.05,11.39l0 0zm-198.92 -6c0.29,2.18 0.49,4.44 1.51,6.41 1.49,2.99 4.17,5.1 6.74,7.11 -2.15,-4.83 -4.69,-9.57 -8.25,-13.52l0 0zm91.91 11.53c3.59,0.16 7.19,0.17 10.79,-0.02 -1.96,-1.42 -3.9,-3.11 -6.35,-3.57 -1.78,0.75 -3.09,2.26 -4.44,3.59l0 0zm-88.91 -0.02c-1.2,1.29 -2.4,2.59 -3.59,3.89 1.91,0.3 3.84,0.56 5.77,0.76 -0.64,-1.59 -1.38,-3.14 -2.18,-4.65l0 0zm30.1 55.37c0.43,0.02 1.3,0.05 1.73,0.07 -0.21,-4.94 0.35,-9.88 0.06,-14.81 -3.47,4.07 -1.98,9.88 -1.79,14.74l0 0zm113.14 -6.8c0.79,2.46 2.55,4.47 5.12,5.15 -0.96,-2.35 -2.79,-4.17 -5.12,-5.15z"/>
    </g>
    <path fill="black" fill-rule="nonzero" d="M70.47 129.65c0.99,-0.62 2.04,-1.2 3.22,-1.33 1.46,0.85 0.04,2.34 -0.8,3.06 -4.58,4.02 -9.54,7.6 -13.91,11.86 1.95,-0.79 3.87,-1.63 5.83,-2.4 0.29,0.52 0.87,1.55 1.16,2.06 -5.62,3.59 -8.59,9.75 -13.54,14.05 -3.13,2.73 -4.22,6.88 -6.49,10.23 -1.4,2.08 -2.02,4.54 -2.37,6.99 3.68,-0.22 7.26,-1.11 10.92,-1.37 -3.15,6.72 -8.49,12.05 -12.76,18.06 -5.76,8.12 -11.42,16.39 -16.06,25.2 3.15,-2.29 4.47,-6.83 8.47,-7.88 -0.5,3.35 -2.84,5.94 -4.97,8.41 -2.79,3.03 -5.84,5.88 -9.36,8.04 -0.59,0.87 -2.57,0.22 -1.83,-0.83 3.93,-8.56 9.59,-16.16 14.36,-24.25 3.01,-5.2 6.99,-9.72 10.56,-14.53 2.16,-2.96 4.95,-5.42 6.81,-8.6 -4.38,0.09 -8.39,2.08 -12.67,2.65 -1.6,-0.39 -3.42,-1.67 -3.42,-3.47 0.23,-1.33 1.24,-2.34 2.01,-3.39 3.42,-4.04 6.72,-8.17 10.07,-12.27 3.22,-3.98 7.54,-6.88 10.78,-10.85 -3.51,0.68 -6.93,1.96 -10.54,1.95 0.73,-3.58 3.78,-5.87 6.34,-8.17 5.91,-4.61 11.95,-9.06 18.19,-13.22z"/>
    <path fill="black" fill-rule="nonzero" d="M453.67 139.17c2.52,0.27 5.22,0.84 6.99,2.83 1.15,0.98 0.94,2.6 1.14,3.94 -3,1.63 -6.07,3.12 -8.99,4.89 4.71,1.91 9.6,3.79 13.48,7.15 2.52,2.78 4.04,6.68 3.75,10.45 -0.31,2.55 -3.45,2.78 -5.31,3.67 2.61,2.06 5.58,3.64 8.1,5.82 2.33,2.39 3.89,5.4 5.85,8.09 1.21,1.6 1.95,3.49 2.21,5.49 -4.47,-0.75 -8.86,-2.08 -13.41,-2.29 -2.8,-0.13 -5.6,-0.13 -8.4,-0.1 4.39,3.24 9.14,5.95 13.44,9.32 2.34,1.87 5.93,3.47 5.44,7.07 -5.49,-1.64 -10.98,-3.36 -16.7,-4.01 2.83,4.31 6.09,8.33 8.55,12.87 3.83,6.66 6.23,13.99 9.97,20.69 1.31,2.26 1.86,4.83 2.27,7.38 0.64,3.81 2.29,7.37 2.74,11.22 -0.99,-0.54 -2.47,-0.65 -2.8,-1.91 -0.97,-2.64 -1.36,-5.47 -2.41,-8.09 -2.91,-7.33 -5.64,-14.78 -9.88,-21.47 -3.16,-5.91 -7.77,-10.83 -11.57,-16.3 -2.16,-3.33 -5.01,-6.25 -6.48,-9.99 3.68,-0.91 7.47,-1.2 11.21,-0.48 -3.34,-2.11 -7.1,-3.36 -10.69,-4.96 0.34,-1.17 0.29,-2.86 1.78,-3.2 6.91,-2.46 14.32,-0.99 21.48,-1.52 -5.99,-6.98 -14.46,-11.05 -22.5,-15.15 -1.55,-0.57 -2.03,-2.07 -2.05,-3.57 5.15,-0.45 11.18,0.13 15.12,-3.93 -1.62,-1.85 -3.37,-3.61 -5.43,-4.98 -4.91,-3.39 -10.97,-4.46 -15.97,-7.67 3.8,-2.37 8.29,-3.1 12.28,-5.04 0.86,-0.29 1.24,-0.89 1.14,-1.8 -1.17,-1.1 -2.61,-1.85 -3.98,-2.66 -0.09,-0.44 -0.28,-1.33 -0.37,-1.76z"/>
    <g>
     <path fill="black" fill-rule="nonzero" d="M37.54 278.78c3.89,1.92 7.91,3.65 11.39,6.27 -0.98,1.36 -2.07,2.8 -3.82,3.15 -4,1.08 -8.11,1.85 -11.84,3.74 4.34,5.88 11.82,7.62 18.48,9.4 3.54,1.06 7.6,0.57 10.64,2.96 -5.45,6.2 -13.79,9.38 -18.1,16.66 -0.69,1.22 -0.05,2.92 1.36,3.23 4.93,1.44 10.16,0.47 15.22,0.9 -1.1,3.07 -4.09,4.63 -6.32,6.77 -1.76,1.69 -3.6,3.41 -4.8,5.57 -0.53,0.91 0.14,1.95 1.19,1.95 6.09,1.11 12.07,-2.07 18.15,-1.03 -1.32,2.43 -3.19,4.47 -5.07,6.47 -3.09,3.23 -4.97,7.46 -8.45,10.35 -2.63,2.12 -4.57,4.98 -5.5,8.23 1.95,0.02 3.97,0.31 5.86,-0.32 6.83,-2.7 13.09,-6.87 20.22,-8.81 -0.85,2.8 -2.88,4.93 -4.47,7.3 -1.68,2.47 -1.86,5.52 -2.77,8.28 -0.32,1.35 -1.83,1.74 -2.83,2.48 -0.41,-3.71 0.85,-7.26 2.1,-10.68 -2.62,1.55 -5.28,3.03 -8.05,4.32 -2.87,1.33 -5.51,3.21 -8.61,4.01 -2.17,0.56 -4.42,0.14 -6.57,-0.25 -0.16,-3.39 -0.29,-6.93 1.21,-10.06 3.22,-7.21 10.09,-11.67 14.71,-17.84 -5.61,0.43 -11.03,1.98 -16.54,2.98 -1.22,0.27 -2.44,-0.04 -3.63,-0.23 0.99,-3.17 1.52,-6.85 4.2,-9.11 2.95,-2.59 6.16,-4.87 8.96,-7.62 -5.63,-0.87 -11.37,-0.87 -16.98,-1.79 -3.3,-0.57 -6.41,-3.77 -5.16,-7.28 1.65,-2.51 4.38,-4.02 6.68,-5.87 4.04,-3.18 8.71,-5.39 13.24,-7.79 -4.23,-0.6 -8.38,-1.64 -12.63,-2.13 -3.16,-0.33 -6.32,-1.56 -8.4,-4.04 -2.55,-2.47 -2.6,-7.43 0.32,-9.6 3.71,-1.77 7.91,-2.23 11.67,-3.89 -1.94,-1.69 -4.01,-3.23 -6.11,-4.7 0.37,-0.66 0.72,-1.32 1.05,-1.98l0 0zm9.48 33.7c-2.06,2.14 -4.72,3.6 -6.7,5.81 -1.35,1.41 -0.9,3.5 -0.98,5.27 0.73,0.09 1.45,0.21 2.18,0.35 1.36,-6.67 7.75,-10.23 11.72,-15.23 -2.37,0.7 -4.52,2.01 -6.22,3.8z"/>
    </g>
    <g>
     <path fill="black" fill-rule="nonzero" d="M68.35 431.35c4,-3.25 8.21,-6.74 13.4,-7.77 -0.48,1.14 -0.92,2.38 -1.95,3.16 -3.72,3.17 -8.09,5.65 -11.1,9.6 8.65,-2.91 17.6,-5.22 26.77,-5.53 1.83,-0.13 3.64,0.19 5.36,0.81 -0.55,4.61 -1.41,9.2 -1.41,13.85 5.81,-2.37 10.93,-6.12 16.47,-9.02 1.2,-0.62 2.55,-0.78 3.85,-1.02 0.08,4.46 -2.47,8.37 -2.88,12.76 -0.31,3.58 -0.35,7.21 -0.04,10.8 -0.05,0.78 0.79,1.27 1.48,1.27 4.37,-2.22 7.04,-7.1 11.95,-8.32 -0.6,4.74 -2.51,9.33 -1.86,14.19 -0.01,2.35 1.69,4.53 4.02,4.94 3.25,0.62 6.49,-0.43 9.74,-0.5 4.22,-0.32 8.26,1.14 12.37,1.83 2.03,0.46 4.58,0.92 5.46,3.1 0.73,1.32 0.21,2.84 0.1,4.26 -4.52,1.14 -9.16,1.8 -13.61,3.24 -6.31,2 -12.74,3.65 -18.86,6.2 -3.33,1.39 -6.74,2.5 -10.11,3.75 6.18,4.36 14.04,4.43 20.99,6.79 6.58,2.25 13.7,3.67 19.2,8.18 -0.07,0.28 -0.22,0.82 -0.29,1.09 -6.25,0.15 -12.81,-0.01 -18.7,2.34 3.64,2.06 7.79,2.89 11.68,4.39 9.04,3.34 18.01,7 26.26,12.05 4.69,2.64 9.54,5.08 13.65,8.62 3.69,2.87 7.89,5.03 11.51,8.01 3.32,2.7 5.18,6.66 7.18,10.35 -2,0.77 -4.18,2.28 -6.38,1.33 -2.8,-1.05 -5.31,-2.78 -8.21,-3.58 -6.65,-1.89 -13.53,-2.88 -20.14,-4.92 -1.47,-0.44 -2.95,-0.81 -4.45,-1.13 3.09,2.86 6.94,4.67 10.42,6.99 9.72,6.56 18.92,13.92 27.18,22.26 10.26,9.5 18.1,21.19 25.74,32.8 1.34,1.82 1.62,4.07 1.52,6.28 -1.76,-1.11 -2.88,-2.88 -3.84,-4.67 -9.22,-16.31 -21.54,-30.82 -35.97,-42.75 -4.41,-3.55 -9.28,-6.48 -13.66,-10.06 -4.7,-3.86 -9.95,-6.97 -15.33,-9.79 -3.66,-1.92 -7.18,-4.16 -11.08,-5.57 -2.14,-0.86 -4.43,-1.44 -6.37,-2.7 -1.37,-0.84 -1.1,-2.69 -1.52,-4.03 9.97,1.32 19.48,4.71 29.28,6.86 8.16,1.69 15.57,6.45 24.04,6.73 -2.01,-3.56 -5.95,-5.24 -8.89,-7.89 -8.85,-7.37 -19.14,-12.77 -29.85,-16.86 -11.46,-4.75 -23.4,-8.15 -35.12,-12.13 0,-1.24 0,-2.47 -0.01,-3.7 6.55,0.13 12.96,-1.64 19.4,-2.66 -7.95,-3.68 -16.5,-5.98 -25.13,-7.4 -5.65,-1.01 -11.64,0.09 -17.04,-2.25 1.09,-1.47 2.31,-2.89 3.85,-3.9 4.37,-2.82 8.77,-5.79 13.87,-7.08 8.72,-2.51 17.32,-5.7 26.36,-6.78 -0.12,-0.27 -0.34,-0.83 -0.46,-1.1 -3.85,-0.97 -7.66,-2.12 -11.51,-3.1 -2.54,-0.7 -5.21,-0.37 -7.79,-0.79 -1.93,-0.9 -3.61,-2.78 -3.82,-4.96 -0.38,-3.03 -0.16,-6.1 -0.32,-9.14 -4.7,2.95 -8.07,7.8 -13.26,9.96 -0.47,-1.78 -1.48,-3.57 -1.03,-5.45 1.9,-8.02 4.91,-15.76 6.5,-23.85 -5.73,2.69 -11.26,5.85 -16.34,9.62 -2.77,2.01 -5.22,4.54 -8.43,5.87 0.15,-7.48 3.73,-14.18 5.67,-21.25 -4.89,-0.81 -9.73,0.54 -14.47,1.6 -5.37,1.31 -10.86,2.5 -15.76,5.14 -2.34,1.27 -4.82,2.32 -7.5,2.6 1.68,-4.87 5.58,-8.5 9.22,-11.97l0 0zm43.39 34.35c1.4,-1.2 1.72,-2.97 1.67,-4.71 -1.45,1.16 -1.68,2.96 -1.67,4.71z"/>
    </g>
    <g>
     <path fill="black" fill-rule="nonzero" d="M455.54 435.5c-0.83,-3.71 -1.15,-7.54 -0.76,-11.32 0.89,1.11 1.87,2.24 2.3,3.65 2.55,8.09 2.19,17.04 -0.88,24.93 -2.06,-1.99 -2.7,-4.9 -4.48,-7.08 -1.91,-2.07 -4.42,-3.44 -6.82,-4.84 1.3,6.25 4.14,13.35 0.67,19.38 -2.11,-1.88 -4.13,-3.9 -6.62,-5.29 -2.9,-1.68 -6.18,-2.51 -9.43,-3.21 0.04,3.09 0.89,6.26 -0.03,9.29 -2.16,5.75 -5.9,11.14 -11.44,14.04 -1.6,-0.58 -2.23,-2.4 -3.29,-3.6 -1.74,-2.65 -4.38,-4.5 -7.24,-5.78 1.07,6.67 -0.36,13.36 -2.4,19.69 -1.04,2.83 -2.58,5.61 -4.94,7.54 -0.88,1.08 -3.11,0.36 -2.94,-1.11 -0.09,-2.23 0.6,-4.43 0.41,-6.66 -0.33,-2.1 -1.45,-3.95 -2.37,-5.83 -1.27,6.22 -5.45,11.55 -10.96,14.62 -1.45,-1.86 -2.93,-3.69 -4.56,-5.39 -7.2,2.88 -13.92,6.8 -20.66,10.6 -5.68,3.15 -10.62,7.43 -15.35,11.84 -5.06,4.68 -10.32,9.19 -14.92,14.35 -5.09,5.39 -9.59,11.3 -14.5,16.84 -2.94,3.64 -5.03,7.88 -8.01,11.5 -3.86,4.61 -7.12,9.68 -10.07,14.9 -2.21,5.11 -4.13,10.35 -6.36,15.45 -1.51,3.81 -3.87,7.38 -4.17,11.57 1.29,0.23 2.75,0.9 3.92,-0.06 4.24,-2.87 7.84,-6.57 11.49,-10.13 3.72,-3.63 5.99,-8.37 9.29,-12.32 7.76,-8.76 16.48,-16.72 26.26,-23.17 6.99,-4.54 13.02,-10.42 20.3,-14.54 5.16,-3.06 10.65,-5.53 16.38,-7.33 2.89,-0.85 5.79,-2.81 8.89,-1.82 -1.17,1.84 -2.25,3.73 -2.99,5.8 -1.52,4.06 -4.43,7.42 -5.9,11.5 5.1,-1.56 9.38,-4.93 13.36,-8.37 6.06,-5.15 11.26,-11.32 15.35,-18.13 1.87,-3.09 3.22,-7.02 6.97,-8.31 -0.09,7.32 0.9,14.63 2.86,21.69 3.8,-7.66 5.15,-16.17 7.19,-24.39 1.96,-6.79 3.22,-13.75 4.84,-20.62 4.02,1.46 5.17,5.92 7.78,8.87 2.79,3.15 5.56,6.35 8.77,9.08 0.38,-3.66 -0.07,-7.35 -1.48,-10.76 -1.44,-3.17 -1.13,-6.72 -0.87,-10.09 0.82,0.7 1.79,1.4 2.15,2.49 3.08,8.82 3.61,18.34 2.36,27.56 -0.51,0.29 -1.01,0.59 -1.51,0.89 -3.37,-5.22 -5.18,-11.62 -10.15,-15.66 -1.53,-1.38 -3.51,-2.01 -5.47,-2.48 -0.8,6.14 -1.88,12.3 -4.09,18.12 -2.58,6.68 -5.3,13.3 -7.78,20.02 -0.93,2.43 -1.59,5.17 -3.75,6.86 -2.44,-7.02 -0.41,-15.1 -4.5,-21.61 -4.91,4.46 -7.05,11.08 -11.63,15.82 -2.11,2.09 -4.59,3.77 -6.73,5.82 -3.37,3.14 -6.22,6.92 -10.29,9.24 -5.45,3.23 -10.53,7.08 -16.2,9.93 -0.71,-2.48 0.95,-4.64 1.98,-6.73 1.89,-3.41 3.35,-7.13 6,-10.04 3.28,-3.7 6.54,-7.66 7.93,-12.51 -5.2,1 -9.96,3.38 -14.67,5.7 -5.88,2.92 -11.28,6.7 -16.28,10.94 -4.89,4.16 -9.98,8.12 -14.53,12.66 -7.45,7.42 -14.85,14.88 -22.33,22.26 -5.81,5.25 -8.01,13.69 -14.93,17.83 -2.17,0.64 -4.3,-0.62 -6.36,-1.15 -2.07,-0.82 -4.83,-1.15 -5.84,-3.41 -1.12,-3.25 -0.85,-7.07 1.24,-9.89 2.87,-4.11 3.75,-9.14 6,-13.56 1.93,-3.99 3.77,-8.08 6.44,-11.65 3.5,-4.68 6.67,-9.6 9.81,-14.52 -3.24,2.01 -6.25,4.36 -9.24,6.71 -3.56,2.78 -5.9,6.71 -8.63,10.22 -2.42,3.4 -5.43,6.56 -6.52,10.7 -1.14,4.01 -3.34,7.62 -4.4,11.66 -0.66,2.28 -0.97,4.66 -1.75,6.91 -1.06,0.57 -2.12,-0.33 -3.13,-0.55 1.31,-4.53 1.81,-9.3 3.66,-13.65 1.82,-4.33 3.45,-8.79 6.21,-12.64 2.66,-3.8 4.8,-8.08 8.44,-11.07 3.78,-3.52 8.3,-6.06 12.4,-9.18 3.41,-2.36 7.57,-3.88 9.91,-7.52 3.66,-5.53 8.83,-9.78 12.94,-14.93 1.56,-1.94 3.47,-3.52 5.41,-5.06 3.22,-2.56 5.89,-5.71 8.84,-8.56 5.31,-5.17 11.25,-9.64 16.61,-14.75 5.9,-5.47 11.34,-11.66 18.44,-15.64 2.48,-1.41 5.62,-0.69 7.39,1.51 2.8,2.14 3.7,5.61 4.33,8.9 2.29,-3.29 4.72,-6.65 5.79,-10.57 0.04,-2.8 -1.17,-5.49 -1,-8.32 2.42,0.48 5.2,1.03 6.74,3.17 1.29,1.85 2.4,3.84 4.01,5.45 0.22,-3.32 0.43,-6.66 0.22,-9.98 -0.14,-2.11 -1.09,-4.06 -1.16,-6.16 0.59,-1.29 1.44,-2.46 2.49,-3.41 2.4,0.05 4.37,1.7 6.27,2.98 3.76,2.62 6.33,6.45 8.94,10.13 3.98,-3.97 6.82,-9.17 7.58,-14.77 0.48,-3.39 -0.14,-6.79 -0.48,-10.16 3.67,0.28 7.41,0.6 10.94,1.76 2.8,0.9 5.34,2.4 8.02,3.59 -0.45,-5.4 -3.18,-10.61 -2.13,-16.08 5.21,2.15 9.27,6.13 13.24,10 0.68,-3.49 0.94,-7.11 0.16,-10.6l0 0zm-89.12 51.04c4.54,-1.42 8.31,-4.62 13.03,-5.59 0.03,-0.37 0.08,-1.14 0.11,-1.52 -5.46,-0.86 -9.93,3.24 -13.14,7.11l0 0zm-72.36 79.31c-1.93,3.9 -4.08,7.73 -5.45,11.88 3.33,-2.97 5.04,-7.16 6.59,-11.22 1.98,-3.27 4.18,-6.4 5.82,-9.86 -3.09,2.43 -5.1,5.81 -6.96,9.2z"/>
    </g>
   </g>
   <g>
    <path fill="black" fill-rule="nonzero" d="M408.34 183.83c0.59,-0.12 1.2,-0.24 1.8,-0.36 1.39,1.97 2.69,4.01 3.59,6.25 -2.16,-1.6 -3.87,-3.7 -5.39,-5.89z"/>
    <path fill="black" fill-rule="nonzero" d="M376.88 190.22c4.12,1.69 6.76,5.42 9.05,9.06 -3.49,-2.5 -6.69,-5.46 -9.05,-9.06z"/>
    <path fill="black" fill-rule="nonzero" d="M370.3 196.81c1.59,1.4 2.43,3.34 3.06,5.32 -0.84,0.17 -1.67,0.35 -2.5,0.51 -0.26,-1.93 -0.48,-3.88 -0.56,-5.83z"/>
    <path fill="black" fill-rule="nonzero" d="M148.25 217.9c1.64,0.51 2.92,1.63 3.73,3.13 -1.76,-0.36 -3.26,-1.28 -3.73,-3.13z"/>
    <path fill="black" fill-rule="nonzero" d="M211.65 259.72c-0.82,-2.86 -0.92,-6.26 1.25,-8.57 0.36,2.92 0.03,5.9 -1.25,8.57z"/>
    <path fill="black" fill-rule="nonzero" d="M390.5 265.95c-0.16,-5.55 4.45,-10.1 9.56,-11.48 0.41,1.29 0.96,2.56 1.06,3.93 -0.83,2.78 -3.27,4.6 -5.3,6.49 0.59,-1.81 1.38,-3.58 1.69,-5.47 -0.5,-0.45 -0.99,-0.88 -1.5,-1.3 -1.63,3.11 -2.87,6.55 -5.55,8.95 0.01,-0.28 0.03,-0.84 0.04,-1.12z"/>
    <path fill="black" fill-rule="nonzero" d="M133.91 255.58c1.76,1.51 3.31,3.28 4.49,5.28 1.89,3.25 4.55,6.03 5.96,9.55 -1.95,-0.66 -3.95,-1.64 -4.86,-3.62 -1.9,-3.72 -3.76,-7.46 -5.59,-11.21z"/>
    <path fill="black" fill-rule="nonzero" d="M105.02 263.35c0.58,-1.28 1.24,-2.51 1.98,-3.69 0,1.06 -0.02,2.14 -0.04,3.22 -0.49,0.12 -1.45,0.35 -1.94,0.47z"/>
    <path fill="black" fill-rule="nonzero" d="M394.98 287.76c0.25,-4.32 0.67,-8.77 2.75,-12.66 0.98,4.16 0.24,8.41 -0.64,12.52 -0.52,0.03 -1.58,0.1 -2.11,0.14z"/>
    <path fill="black" fill-rule="nonzero" d="M141.92 295.88c2.44,-2.09 5.73,-2.37 8.8,-2.45 -2.41,2.14 -5.73,2.39 -8.8,2.45z"/>
    <path fill="black" fill-rule="nonzero" d="M392.53 307.59c1.54,-3.15 3.65,-5.98 5.82,-8.71 -1.44,3.18 -2.38,7.07 -5.82,8.71z"/>
    <path fill="black" fill-rule="nonzero" d="M125.7 302.17c0.5,0.38 1.01,0.73 1.55,1.06 -0.65,1.28 0.03,2.5 0.69,3.6 -1.41,-0.38 -2.91,-0.32 -3.8,1.01l-0.05 -0.33c-0.18,-0.95 -0.38,-1.9 -0.66,-2.82 0.76,-0.83 1.51,-1.67 2.27,-2.52z"/>
    <path fill="black" fill-rule="nonzero" d="M129.57 374.18c1.58,-3.6 4.36,-6.54 7.78,-8.44 -1.52,3.64 -4.47,6.41 -7.78,8.44z"/>
    <path fill="black" fill-rule="nonzero" d="M129.83 393.31c0.21,-3.51 1,-7.26 3.8,-9.65 0.06,3.58 -1.09,7.21 -3.8,9.65z"/>
    <path fill="black" fill-rule="nonzero" d="M384.72 390.18c0.42,0.11 1.24,0.36 1.66,0.48 0.12,1.67 0.25,3.35 0.38,5.03 -0.44,-0.11 -1.35,-0.35 -1.8,-0.47 -0.08,-1.68 -0.16,-3.36 -0.24,-5.04z"/>
    <path fill="black" fill-rule="nonzero" d="M389.34 390.44c1.11,0.11 2.22,0.2 3.33,0.3 -0.15,0.23 -0.45,0.7 -0.61,0.93 -2.59,3.13 -1.67,7.7 -4.32,10.78 -0.29,-4.09 0.6,-8.09 1.6,-12.01z"/>
    <path fill="black" fill-rule="nonzero" d="M152.02 396.84c1.21,-0.76 2.06,1.35 0.93,1.95 -1.22,0.74 -2.07,-1.37 -0.93,-1.95z"/>
    <path fill="black" fill-rule="nonzero" d="M159.66 440.56c0.8,1.51 1.54,3.06 2.18,4.65 -1.93,-0.2 -3.86,-0.46 -5.77,-0.76 1.19,-1.3 2.39,-2.6 3.59,-3.89z"/>
    <path fill="black" fill-rule="nonzero" d="M189.76 495.93c-0.19,-4.86 -1.68,-10.67 1.79,-14.74 0.29,4.93 -0.27,9.87 -0.06,14.81 -0.43,-0.02 -1.3,-0.05 -1.73,-0.07z"/>
    <path fill="black" fill-rule="nonzero" d="M288.61 577.73c1.37,-4.15 3.52,-7.98 5.45,-11.88 0.29,0.17 0.86,0.5 1.14,0.66 -1.55,4.06 -3.26,8.25 -6.59,11.22z"/>
   </g>
  </g>
 </g>
</svg>
